<svg width="85" height="71" viewBox="0 0 85 71" fill="none" xmlns="http://www.w3.org/2000/svg">
<path d="M79.5161 0H5.48387C4.02946 0 2.63461 0.57541 1.60619 1.59965C0.577763 2.62388 0 4.01305 0 5.46154V51.8846C0 53.3331 0.577763 54.7223 1.60619 55.7465C2.63461 56.7707 4.02946 57.3462 5.48387 57.3462H31.5323V62.8077H30.1613C29.7977 62.8077 29.449 62.9515 29.1919 63.2076C28.9348 63.4637 28.7903 63.811 28.7903 64.1731V69.6346C28.7903 69.9967 28.9348 70.344 29.1919 70.6001C29.449 70.8561 29.7977 71 30.1613 71H54.8387C55.2023 71 55.551 70.8561 55.8081 70.6001C56.0652 70.344 56.2097 69.9967 56.2097 69.6346V64.1731C56.2097 63.811 56.0652 63.4637 55.8081 63.2076C55.551 62.9515 55.2023 62.8077 54.8387 62.8077H53.4677V57.3462H79.5161C80.9705 57.3462 82.3654 56.7707 83.3938 55.7465C84.4222 54.7223 85 53.3331 85 51.8846V5.46154C85 4.01305 84.4222 2.62388 83.3938 1.59965C82.3654 0.57541 80.9705 0 79.5161 0ZM5.48387 2.73077H79.5161C80.2433 2.73077 80.9408 3.01847 81.455 3.53059C81.9692 4.04271 82.2581 4.73729 82.2581 5.46154V46.4231H2.74194V5.46154C2.74194 4.73729 3.03082 4.04271 3.54503 3.53059C4.05924 3.01847 4.75666 2.73077 5.48387 2.73077ZM53.4677 68.2692H31.5323V65.5385H53.4677V68.2692ZM50.7258 62.8077H34.2742V57.3462H50.7258V62.8077ZM79.5161 54.6154H5.48387C4.75666 54.6154 4.05924 54.3277 3.54503 53.8156C3.03082 53.3034 2.74194 52.6089 2.74194 51.8846V49.1538H82.2581V51.8846C82.2581 52.6089 81.9692 53.3034 81.455 53.8156C80.9408 54.3277 80.2433 54.6154 79.5161 54.6154Z" fill="url(#paint0_linear_1895_55053)"/>
<defs>
<linearGradient id="paint0_linear_1895_55053" x1="5.98015e-08" y1="-11.2644" x2="86.1112" y2="73.3994" gradientUnits="userSpaceOnUse">
<stop stop-color="#FC4C00"/>
<stop offset="1" stop-color="#F1A515"/>
</linearGradient>
</defs>
</svg>
