<svg width="50" height="82" viewBox="0 0 50 82" fill="none" xmlns="http://www.w3.org/2000/svg">
<path d="M0.0527344 40.8105C0.0527344 29.4409 0.0527344 18.0742 0.0527344 6.71031C0.0527344 2.41086 1.99027 0.5 6.31715 0.5H43.3172C47.5007 0.5 49.4252 2.44995 49.4252 6.68425C49.4252 29.3627 49.4252 52.0412 49.4252 74.7197C49.4252 79.2319 47.5442 81.095 42.9957 81.095H6.33453C1.9338 81.095 0.0527344 79.1972 0.0527344 74.7631V40.8105ZM5.38314 10.9794V70.5549H44.1383V10.9794H5.38314ZM28.6293 75.8228C28.6147 75.0565 28.3735 74.3118 27.9363 73.6823C27.499 73.0528 26.8852 72.5668 26.1721 72.2854C25.459 72.004 24.6786 71.9399 23.9291 72.1012C23.1796 72.2624 22.4947 72.6418 21.9605 73.1915C21.4263 73.7412 21.0668 74.4366 20.9273 75.1902C20.7878 75.9437 20.8745 76.7217 21.1764 77.4262C21.4784 78.1306 21.9822 78.7299 22.6243 79.1486C23.2663 79.5673 24.018 79.7867 24.7846 79.7791C25.8185 79.762 26.8036 79.3361 27.5241 78.5946C28.2447 77.8531 28.642 76.8565 28.6293 75.8228ZM24.7498 4.40859C23.5076 4.34038 22.2621 4.35925 21.0225 4.46504C20.4968 4.54321 20.058 5.23807 19.5758 5.65065C20.0103 6.08493 20.4447 6.90574 20.9139 6.92745C23.4509 7.0534 26.001 7.04905 28.538 6.92745C29.0159 6.90139 29.4503 6.10665 29.9021 5.66802C29.433 5.23373 28.9985 4.54756 28.4772 4.47373C27.2379 4.36282 25.9923 4.34105 24.7498 4.40859ZM37.1831 5.71145C38.052 6.31076 38.5906 6.96654 38.9773 6.88402C39.2682 6.78533 39.532 6.62007 39.7477 6.40141C39.9634 6.18275 40.1251 5.91675 40.2197 5.62459C40.2893 5.32927 39.4899 4.50413 39.0685 4.49544C38.5733 4.50413 38.065 5.12082 37.1831 5.71145Z" fill="url(#paint0_linear_1895_54962)"/>
<path d="M26.049 49.8964C26.049 51.8984 26.049 53.8962 26.049 55.8982C26.049 56.8754 25.7493 57.8004 24.6675 57.5919C24.1636 57.492 23.5033 56.4975 23.4859 55.8895C23.3816 51.8941 23.3816 47.8958 23.4859 43.8945C23.4859 43.2909 24.168 42.2877 24.6675 42.1965C25.7449 41.9924 26.049 42.9174 26.0447 43.8989C26.036 45.8966 26.049 47.8987 26.049 49.8964Z" fill="black"/>
<path d="M15.6445 57.621C15.6445 55.6232 15.5489 53.6168 15.7053 51.6278C15.7531 51.0241 16.5046 50.4813 16.9347 49.8906C17.3691 50.4552 18.1772 51.0067 18.1946 51.5843C18.3046 55.6377 18.3046 59.6911 18.1946 63.7444C18.1946 64.3264 17.3909 64.8909 16.9564 65.4816C16.522 64.9213 15.7487 64.3828 15.7053 63.7878C15.5445 61.7337 15.6445 59.6751 15.6445 57.621Z" fill="black"/>
<path d="M33.8379 57.8649C33.8379 59.8105 33.9379 61.7735 33.7815 63.6974C33.7337 64.3184 33.0951 65.2956 32.5911 65.3868C31.5094 65.5865 31.2183 64.6615 31.2227 63.68C31.2227 59.6846 31.1836 55.6848 31.2922 51.6893C31.2922 51.09 31.9786 50.0912 32.4782 50C33.5643 49.8002 33.851 50.7296 33.8466 51.7067C33.8293 53.7609 33.8423 55.8151 33.8379 57.8649Z" fill="black"/>
<path d="M15.3271 33.5865L14.0585 32.5486L12.4816 33.0045L13.0811 31.4759L12.1558 30.1209L13.7979 30.2165L14.8014 28.918L15.2185 30.5074L16.7607 31.0633L15.3792 31.9492L15.3271 33.5865Z" fill="#F7953C"/>
<path d="M22.1781 33.5865L20.9096 32.5486L19.3327 33.0045L19.9278 31.4759L19.0068 30.1209L20.6446 30.2165L21.6525 28.918L22.0652 30.5074L23.6117 31.0633L22.2302 31.9492L22.1781 33.5865Z" fill="#F7953C"/>
<path d="M29.0248 33.5865L27.7563 32.5486L26.1837 33.0045L26.7788 31.4759L25.8535 30.1209L27.4913 30.2165L28.4992 28.918L28.9162 30.5074L30.4584 31.0633L29.077 31.9492L29.0248 33.5865Z" fill="#F7953C"/>
<path d="M35.8754 33.5865L34.6069 32.5486L33.0299 33.0045L33.6251 31.4759L32.7041 30.1209L34.3419 30.2165L35.3454 28.918L35.7625 30.5074L37.309 31.0633L35.9275 31.9492L35.8754 33.5865Z" fill="#F7953C"/>
<path d="M19.8064 25.3928C19.8064 25.3928 19.8064 25.3928 19.763 25.3928H19.6152H19.4675H19.3112H19.1504C19.1309 25.3926 19.1119 25.3862 19.0962 25.3745C19.0806 25.3628 19.0691 25.3463 19.0635 25.3276C19.0071 25.2147 18.855 24.8542 18.5987 24.2593C18.5726 24.1941 18.5118 24.1594 18.4119 24.1464H18.1816C17.9471 24.1464 17.808 24.1464 17.7472 24.1464C17.6864 24.1464 17.6951 24.1985 17.6951 24.2766C17.6951 24.3548 17.6951 24.5763 17.6951 24.8108C17.6951 25.0453 17.6951 25.2451 17.6951 25.3406C17.6951 25.3754 17.6951 25.3971 17.643 25.3971H17.4909H17.3345H17.1998H17.0695C17.0261 25.3971 17.0043 25.3971 17.0043 25.3363C17.0043 25.1481 17.013 24.8658 17.0304 24.4894C17.0521 24.1116 17.0608 23.8293 17.0608 23.6209C17.0608 23.0824 17.0608 22.5091 17 21.9054V21.862C17 21.8273 17.0304 21.8142 17.1043 21.8142H17.7602H18.4119C18.7364 21.7982 19.0566 21.8932 19.3198 22.0835C19.4484 22.187 19.5499 22.32 19.6157 22.4713C19.6815 22.6226 19.7097 22.7875 19.6978 22.9521C19.7185 23.1421 19.6993 23.3344 19.6413 23.5166C19.5493 23.6931 19.4131 23.8428 19.246 23.9509C19.2112 23.9726 19.1982 23.9944 19.1982 24.0117C19.2865 24.2432 19.388 24.4694 19.5023 24.6892C19.7021 25.1409 19.8064 25.3667 19.8064 25.3928ZM19.107 23.0824C19.1229 22.9652 19.1067 22.8459 19.06 22.7373C19.0133 22.6286 18.938 22.5347 18.842 22.4657C18.6199 22.3718 18.3785 22.3331 18.1382 22.3528C17.8645 22.3528 17.7038 22.3745 17.7038 22.4179C17.7038 22.4613 17.7038 22.7523 17.7038 23.1518V23.6382C17.7151 23.6419 17.7272 23.6419 17.7385 23.6382H17.8862C18.047 23.6382 18.2251 23.6382 18.4075 23.6382C18.8724 23.6773 19.107 23.4819 19.107 23.0824Z" fill="black"/>
<path d="M22.6427 23.1117V23.1551C22.5823 23.4878 22.5489 23.8247 22.5428 24.1627C22.5428 24.1627 22.5428 24.5579 22.6079 25.3048V25.3396C22.6079 25.3874 22.6079 25.4134 22.5428 25.4134C22.4719 25.4088 22.4008 25.4088 22.3299 25.4134H22.1214C22.0866 25.4134 22.0649 25.357 22.0475 25.2354C22.0302 25.1138 22.0128 25.0573 21.9998 25.0573C21.9493 25.0844 21.9026 25.118 21.8607 25.1572C21.7754 25.2297 21.6822 25.2924 21.5827 25.3439C21.4581 25.4095 21.3195 25.4437 21.1787 25.4438C21.0198 25.4459 20.8625 25.4118 20.7187 25.3441C20.575 25.2763 20.4485 25.1768 20.349 25.053C20.139 24.8126 20.0246 24.5035 20.0275 24.1844C20.0135 23.8425 20.1282 23.5078 20.349 23.2463C20.4596 23.1203 20.5969 23.0206 20.751 22.9545C20.9051 22.8884 21.072 22.8575 21.2395 22.8642C21.4931 22.8625 21.7375 22.959 21.9216 23.1334C21.9476 23.1682 21.9954 23.2159 22.0562 23.2811C22.0562 23.2811 22.0823 23.229 22.0997 23.1204C22.1171 23.0118 22.1431 22.9597 22.1735 22.9597C22.2599 22.9657 22.3456 22.9788 22.4298 22.9988C22.5515 23.0813 22.6427 23.0813 22.6427 23.1117ZM21.9911 24.1714C21.9865 23.9727 21.9092 23.7827 21.7739 23.6372C21.7148 23.5601 21.6384 23.4979 21.5508 23.4557C21.4633 23.4134 21.3671 23.3923 21.2699 23.394C21.1727 23.3931 21.0765 23.4141 20.9885 23.4554C20.9006 23.4968 20.823 23.5574 20.7617 23.6329C20.6351 23.7838 20.5657 23.9744 20.5657 24.1714C20.5657 24.3683 20.6351 24.559 20.7617 24.7099C20.8232 24.7847 20.9009 24.8447 20.9889 24.8853C21.077 24.9259 21.173 24.9461 21.2699 24.9444C21.3671 24.9457 21.4632 24.9245 21.5506 24.8823C21.6381 24.84 21.7145 24.7781 21.7739 24.7012C21.9021 24.5547 21.9717 24.366 21.9694 24.1714H21.9911Z" fill="black"/>
<path d="M24.4543 24.9466C24.4575 24.9972 24.4575 25.048 24.4543 25.0986C24.4543 25.1811 24.4543 25.2289 24.4543 25.2549C24.456 25.2737 24.456 25.2926 24.4543 25.3114C24.4417 25.327 24.4252 25.339 24.4065 25.3461C24.1969 25.4237 23.9737 25.4577 23.7505 25.446C23.3509 25.446 23.1554 25.2636 23.1554 24.9075C23.1554 24.7598 23.1554 24.547 23.1554 24.256C23.1554 23.9651 23.1554 23.7479 23.1554 23.6046C23.1566 23.5902 23.1548 23.5757 23.1501 23.5621C23.1454 23.5484 23.1379 23.5359 23.1281 23.5252C23.1183 23.5146 23.1064 23.5061 23.0931 23.5004C23.0799 23.4946 23.0656 23.4916 23.0511 23.4917H22.8686C22.8296 23.4917 22.8122 23.4135 22.8122 23.2832C22.8081 23.2312 22.8081 23.1789 22.8122 23.1269C22.8142 23.1073 22.8232 23.089 22.8376 23.0755C22.8519 23.062 22.8707 23.054 22.8904 23.0531H23.0164C23.0945 23.0531 23.1336 23.014 23.1336 22.9445C23.1336 22.875 23.1336 22.7751 23.1336 22.6362C23.1336 22.4972 23.1336 22.3929 23.1336 22.3235C23.1336 22.254 23.1597 22.1367 23.2032 22.1367L23.6854 22.2149C23.7245 22.2149 23.7418 22.2409 23.7418 22.2713C23.7418 22.3017 23.7418 22.4581 23.7418 22.6101C23.7418 22.7621 23.7418 22.8707 23.7418 22.9445C23.7405 22.9541 23.7414 22.9639 23.7443 22.9732C23.7473 22.9825 23.7523 22.9909 23.7589 22.998C23.7656 23.0051 23.7738 23.0106 23.7828 23.0141C23.7919 23.0176 23.8016 23.0191 23.8113 23.0183H24.3804C24.4108 23.0183 24.4239 23.0183 24.4239 23.0487C24.4239 23.0791 24.4239 23.1008 24.4239 23.1443C24.4205 23.1789 24.4205 23.2138 24.4239 23.2485V23.3658C24.4239 23.4179 24.4239 23.457 24.4239 23.483C24.4239 23.5091 24.3804 23.5178 24.3326 23.5178C24.2849 23.5178 24.1589 23.5178 24.0242 23.5178H23.7158C23.7158 23.5178 23.6897 23.5655 23.6854 23.6654C23.681 23.7653 23.6854 23.952 23.6854 24.1692V24.5514C23.6792 24.6543 23.6924 24.7574 23.7245 24.8554C23.7485 24.8999 23.7854 24.9361 23.8304 24.9593C23.8753 24.9826 23.9262 24.9917 23.9764 24.9857C24.0543 24.9836 24.1316 24.9719 24.2067 24.9509C24.2822 24.9325 24.3593 24.9209 24.4369 24.9162C24.4369 24.9162 24.4543 24.9162 24.4543 24.9466Z" fill="black"/>
<path d="M25.4797 22.3719C25.4797 22.5804 25.3624 22.6846 25.1322 22.6846C24.9019 22.6846 24.7759 22.5804 24.7759 22.3719C24.7751 22.3278 24.7844 22.2841 24.8033 22.2441C24.8221 22.2042 24.8499 22.1692 24.8845 22.1418C24.9532 22.0827 25.0416 22.0517 25.1322 22.0549C25.2209 22.0544 25.3071 22.0851 25.3754 22.1418C25.4088 22.17 25.4354 22.2053 25.4534 22.2451C25.4715 22.2849 25.4804 22.3282 25.4797 22.3719ZM25.4797 23.0624C25.4797 23.1927 25.4797 23.3882 25.4536 23.6531C25.4276 23.918 25.4536 24.1134 25.4536 24.248C25.4536 24.3827 25.4536 24.5564 25.4536 24.8039C25.4536 25.0515 25.4536 25.2382 25.4536 25.3555C25.4536 25.3946 25.4536 25.4119 25.4102 25.4119H24.8845C24.8498 25.4119 24.8324 25.3772 24.8324 25.3077C24.8324 25.1904 24.8324 25.0124 24.8324 24.7779C24.8324 24.5434 24.8324 24.3653 24.8324 24.248C24.8324 24.1308 24.8324 23.918 24.802 23.6531C24.7716 23.3882 24.815 23.1884 24.815 23.0581C24.815 23.0277 24.815 23.0147 24.8672 23.0147H25.0062H25.1539H25.2972H25.4406C25.4449 23.0147 25.4623 23.0277 25.4623 23.0842L25.4797 23.0624Z" fill="black"/>
<path d="M28.2076 25.3638C28.2076 25.4029 28.2076 25.4203 28.1555 25.4203H27.6559C27.6255 25.4203 27.6081 25.3942 27.6081 25.3464C27.6081 25.2987 27.6081 25.138 27.6081 24.9686C27.6081 24.7992 27.6081 24.669 27.6081 24.5864C27.6081 24.5039 27.6081 24.4171 27.6081 24.2824V23.9784C27.6194 23.8354 27.5892 23.6922 27.5212 23.5659C27.475 23.5138 27.4169 23.4736 27.3519 23.4486C27.2869 23.4237 27.2168 23.4147 27.1476 23.4225C27.0185 23.4387 26.8957 23.4881 26.7914 23.5659C26.6307 23.6657 26.5525 23.7569 26.5525 23.8351V25.3595C26.5525 25.4029 26.5525 25.4246 26.5047 25.4246H26.0268C25.9921 25.4246 25.9747 25.4246 25.9747 25.3638C25.9747 25.2335 25.9747 25.0294 25.9747 24.7602C25.9747 24.4909 25.9747 24.2911 25.9747 24.1565C25.9768 23.8202 25.9389 23.4849 25.8617 23.1576C25.8586 23.1463 25.8586 23.1343 25.8617 23.1229C25.8617 23.1229 25.8617 23.0968 25.8921 23.0881L26.1875 23.0404L26.4699 22.9969C26.4699 22.9969 26.4699 22.9969 26.4699 23.036C26.4797 23.1435 26.5 23.2496 26.5307 23.3531C26.6176 23.2836 26.7349 23.2011 26.8783 23.0968C27.0387 22.9877 27.2273 22.9273 27.4213 22.9231C27.5448 22.9082 27.67 22.926 27.7844 22.9748C27.8988 23.0235 27.9983 23.1016 28.0729 23.2011C28.175 23.4054 28.22 23.6334 28.2032 23.8612C28.2032 23.9133 28.2032 23.9915 28.2032 24.1V24.3476C28.2032 24.4605 28.2032 24.6299 28.2032 24.8557C28.2032 25.0815 28.2076 25.2552 28.2076 25.3638Z" fill="black"/>
<path d="M30.9315 23.0448C30.9315 23.2489 30.9315 23.5529 30.9315 23.9612C30.9315 24.3694 30.9315 24.6734 30.9315 24.8775C30.9579 25.1976 30.8651 25.5162 30.6709 25.7721C30.5566 25.8826 30.4198 25.9669 30.2698 26.0194C30.1198 26.0719 29.9602 26.0913 29.802 26.0761C29.4767 26.09 29.1538 26.0149 28.868 25.859C28.8289 25.8329 28.8115 25.8155 28.8115 25.7982C28.8115 25.7808 28.8376 25.6896 28.8897 25.4203C28.8897 25.3899 28.8897 25.3769 28.9245 25.3769H28.9549C29.1873 25.5165 29.4527 25.5915 29.7238 25.5941C29.8763 25.6031 30.0279 25.5652 30.1582 25.4855C30.2184 25.4448 30.2675 25.3898 30.3009 25.3253C30.3342 25.2608 30.3509 25.1889 30.3494 25.1163C30.3494 25.0773 30.3494 24.9991 30.3494 24.8775C30.2643 24.9978 30.1507 25.0953 30.0189 25.1612C29.887 25.2271 29.7409 25.2595 29.5935 25.2553C29.4476 25.259 29.3028 25.2306 29.1691 25.172C29.0355 25.1135 28.9164 25.0263 28.8202 24.9166C28.626 24.6947 28.5221 24.408 28.5292 24.1131C28.5219 23.8146 28.6221 23.5233 28.8115 23.2924C28.9016 23.1705 29.0196 23.0722 29.1558 23.0056C29.2919 22.9391 29.442 22.9064 29.5935 22.9102C29.7222 22.9049 29.8502 22.9314 29.9662 22.9875C30.0821 23.0436 30.1824 23.1274 30.2582 23.2316C30.2886 23.2663 30.3059 23.2837 30.319 23.2837C30.332 23.2837 30.319 23.2837 30.319 23.2402C30.319 23.1968 30.319 23.1838 30.319 23.136C30.319 23.0882 30.319 23.0492 30.319 23.0274C30.319 22.9232 30.319 22.8711 30.3494 22.8711L30.6274 22.9189C30.7182 22.9344 30.8081 22.9547 30.8967 22.9797C30.9228 22.984 30.9315 23.0101 30.9315 23.0448ZM30.3233 24.0914C30.329 23.9174 30.2737 23.7469 30.1669 23.6094C30.1163 23.542 30.0508 23.4872 29.9754 23.4495C29.9 23.4119 29.8168 23.3922 29.7325 23.3922C29.6483 23.3929 29.5654 23.4128 29.4901 23.4504C29.4148 23.4881 29.3491 23.5424 29.2981 23.6094C29.1957 23.7489 29.1423 23.9184 29.1461 24.0914C29.1418 24.2639 29.197 24.4326 29.3024 24.5691C29.3518 24.6381 29.4171 24.6943 29.4927 24.7328C29.5682 24.7713 29.652 24.7912 29.7369 24.7906C29.8215 24.7901 29.9049 24.7698 29.9803 24.7314C30.0558 24.6929 30.1211 24.6374 30.1713 24.5691C30.2768 24.4329 30.3307 24.2636 30.3233 24.0914Z" fill="black"/>
<path d="M32.5912 24.628C32.5949 24.7462 32.5695 24.8634 32.5173 24.9694C32.465 25.0755 32.3874 25.167 32.2914 25.236C32.0979 25.3781 31.8624 25.4515 31.6224 25.4445H31.4487C31.4182 25.4445 31.4052 25.388 31.4052 25.3185C31.4081 25.2621 31.4081 25.2056 31.4052 25.1492C31.4007 25.0943 31.4007 25.0391 31.4052 24.9841C31.4052 24.9841 31.4052 24.9494 31.453 24.9407C31.4847 24.9363 31.5169 24.9363 31.5486 24.9407H31.6224C31.9439 24.9407 32.1046 24.8408 32.1046 24.6454C32.1046 24.5542 32.0351 24.4673 31.8918 24.3892C31.6659 24.2632 31.5312 24.185 31.5008 24.159C31.4318 24.1013 31.3769 24.0287 31.34 23.9467C31.3031 23.8647 31.2853 23.7755 31.2879 23.6856C31.2788 23.5718 31.2973 23.4574 31.3419 23.3523C31.3866 23.2472 31.456 23.1544 31.5442 23.0819C31.7382 22.9539 31.9681 22.8915 32.2002 22.9039C32.2111 22.9022 32.2222 22.9043 32.2317 22.9098C32.2412 22.9153 32.2485 22.924 32.2523 22.9343C32.2804 23.0016 32.3022 23.0714 32.3175 23.1427C32.339 23.2108 32.355 23.2805 32.3653 23.3512C32.3653 23.3512 32.3653 23.3816 32.3175 23.3859L31.9873 23.4294C31.857 23.4641 31.7919 23.5336 31.7919 23.6422C31.7919 23.7507 31.8614 23.7942 31.996 23.8724C32.1325 23.9424 32.262 24.0253 32.3827 24.1199C32.451 24.1853 32.5048 24.2644 32.5407 24.3519C32.5767 24.4394 32.5938 24.5335 32.5912 24.628Z" fill="black"/>
<path d="M38.7036 7.41498C39.5434 7.41498 40.2241 6.73446 40.2241 5.89499C40.2241 5.05552 39.5434 4.375 38.7036 4.375C37.8639 4.375 37.1831 5.05552 37.1831 5.89499C37.1831 6.73446 37.8639 7.41498 38.7036 7.41498Z" fill="#FCFCFC"/>
<path d="M28.5816 4.375H19.45C18.7182 4.375 18.125 4.96804 18.125 5.69958C18.125 6.43113 18.7182 7.02417 19.45 7.02417H28.5816C29.3133 7.02417 29.9066 6.43113 29.9066 5.69958C29.9066 4.96804 29.3133 4.375 28.5816 4.375Z" fill="#FCFCFC"/>
<path d="M18.2768 51.2278C18.2768 50.4915 17.6807 49.8945 16.9453 49.8945C16.2099 49.8945 15.6138 50.4915 15.6138 51.2278V64.1434C15.6138 64.8798 16.2099 65.4767 16.9453 65.4767C17.6807 65.4767 18.2768 64.8798 18.2768 64.1434V51.2278Z" fill="#999999"/>
<path d="M26.0922 43.5169C26.0922 42.7805 25.496 42.1836 24.7607 42.1836C24.0253 42.1836 23.4292 42.7805 23.4292 43.5169V56.4325C23.4292 57.1689 24.0253 57.7658 24.7607 57.7658C25.496 57.7658 26.0922 57.1689 26.0922 56.4325V43.5169Z" fill="#999999"/>
<path d="M33.877 51.2395C33.877 50.5032 33.2808 49.9062 32.5454 49.9062C31.81 49.9062 31.2139 50.5032 31.2139 51.2395V64.1552C31.2139 64.8915 31.81 65.4885 32.5454 65.4885C33.2808 65.4885 33.877 64.8915 33.877 64.1552V51.2395Z" fill="#999999"/>
<defs>
<linearGradient id="paint0_linear_1895_54962" x1="-35.3715" y1="-25.7544" x2="46.4378" y2="81.1202" gradientUnits="userSpaceOnUse">
<stop stop-color="#FC4C00"/>
<stop offset="1" stop-color="#F09912"/>
</linearGradient>
</defs>
</svg>
