<svg width="74" height="67" viewBox="0 0 74 67" fill="none" xmlns="http://www.w3.org/2000/svg">
<path d="M8.36262 9.13539C9.20362 9.13539 9.88539 8.45362 9.88539 7.61262C9.88539 6.77161 9.20362 6.08984 8.36262 6.08984C7.52161 6.08984 6.83984 6.77161 6.83984 7.61262C6.83984 8.45362 7.52161 9.13539 8.36262 9.13539Z" fill="#999999"/>
<path d="M14.4544 9.13539C15.2954 9.13539 15.9772 8.45362 15.9772 7.61262C15.9772 6.77161 15.2954 6.08984 14.4544 6.08984C13.6134 6.08984 12.9316 6.77161 12.9316 7.61262C12.9316 8.45362 13.6134 9.13539 14.4544 9.13539Z" fill="#999999"/>
<path d="M20.5462 9.13539C21.3872 9.13539 22.069 8.45362 22.069 7.61262C22.069 6.77161 21.3872 6.08984 20.5462 6.08984C19.7052 6.08984 19.0234 6.77161 19.0234 7.61262C19.0234 8.45362 19.7052 9.13539 20.5462 9.13539Z" fill="#999999"/>
<path d="M17.4993 30.4557H50.9993C51.841 30.4557 52.5221 29.7746 52.5221 28.9329C52.5221 28.0912 51.841 27.4102 50.9993 27.4102H17.4993C16.6576 27.4102 15.9766 28.0912 15.9766 28.9329C15.9766 29.7746 16.6578 30.4557 17.4993 30.4557Z" fill="#999999"/>
<path d="M35.772 45.6836H17.4993C16.6576 45.6836 15.9766 46.3647 15.9766 47.2064C15.9766 48.0481 16.6576 48.7291 17.4993 48.7291H35.772C36.6137 48.7291 37.2948 48.0481 37.2948 47.2064C37.2948 46.3647 36.6137 45.6836 35.772 45.6836Z" fill="#999999"/>
<path d="M68.0117 18.2727C67.9234 18.2727 67.8379 18.2948 67.75 18.299V6.09095C67.75 2.73177 65.0168 0 61.659 0H6.84095C3.4832 0 0.75 2.73177 0.75 6.09095V60.909C0.75 64.2682 3.4832 67 6.84095 67H61.659C65.0168 67 67.75 64.2684 67.75 60.909V32.6071L72.1337 28.224C72.1337 28.224 72.1337 28.224 72.1337 28.2226C73.2192 27.1371 73.8408 25.6352 73.8408 24.102C73.8408 20.887 71.2267 18.2727 68.0117 18.2727ZM3.7954 6.09095C3.7954 4.41214 5.16057 3.04555 6.84081 3.04555H61.6589C63.3394 3.04555 64.7045 4.41214 64.7045 6.09095V12.1819H3.7954V6.09095ZM64.7045 60.909C64.7045 62.5879 63.3393 63.9545 61.659 63.9545H6.84095C5.16057 63.9545 3.79555 62.5879 3.79555 60.909V15.2273H64.7045V19.313C64.4154 19.5117 64.1389 19.7302 63.8896 19.9799L47.3214 36.5455H17.4999C16.6582 36.5455 15.9772 37.2266 15.9772 38.0683C15.9772 38.91 16.6582 39.5911 17.4999 39.5911H44.8783L43.416 46.9059C43.315 47.4055 43.4726 47.9216 43.8325 48.2813C44.121 48.5698 44.5106 48.7274 44.9091 48.7274C45.0073 48.7274 45.1084 48.717 45.2065 48.6977L52.8172 47.175C53.1146 47.1154 53.3852 46.9713 53.5964 46.7586L64.7045 35.6522V60.909ZM51.7702 44.2795L46.8512 45.2639L47.8356 40.3388L61.6583 26.5161L65.5965 30.4543L51.7702 44.2795ZM69.9804 26.0707L67.7499 28.3013L63.8114 24.3628L66.0426 22.1315C66.5601 21.6155 67.2769 21.3181 68.0115 21.3181C69.5462 21.3181 70.7953 22.5672 70.7953 24.1018C70.7954 24.8336 70.4979 25.5518 69.9804 26.0707Z" fill="url(#paint0_linear_4358_161347)"/>
<path d="M15.8105 38.0369C15.8105 37.1838 16.5021 36.4922 17.3552 36.4922H47.2832L44.8696 39.5815H17.3552C16.5021 39.5815 15.8105 38.89 15.8105 38.0369Z" fill="#999999"/>
<defs>
<linearGradient id="paint0_linear_4358_161347" x1="-51.6919" y1="-21.8258" x2="-0.569443" y2="97.1052" gradientUnits="userSpaceOnUse">
<stop stop-color="#FC4C00"/>
<stop offset="1" stop-color="#F09912"/>
</linearGradient>
</defs>
</svg>
