<svg width="77" height="77" viewBox="0 0 77 77" fill="none" xmlns="http://www.w3.org/2000/svg">
<path d="M49.71 6.92188H27.6267C26.756 6.92188 26.0493 7.62859 26.0493 8.4993C26.0493 9.37001 26.756 10.0766 27.6267 10.0766H49.7099C50.5806 10.0766 51.2873 9.36986 51.2873 8.49915C51.2873 7.62844 50.5808 6.92188 49.71 6.92188Z" fill="url(#paint0_linear_1895_55121)"/>
<path d="M20.7734 0.613281C18.9776 0.613281 17.52 1.31999 17.52 2.1907V14.8096C17.52 15.6803 18.9776 16.3871 20.7734 16.3871C22.5691 16.3871 24.0267 15.6803 24.0267 14.8096V2.1907C24.0264 1.31999 22.5691 0.613281 20.7734 0.613281Z" fill="#999999"/>
<path d="M56.5609 0.613281C54.7652 0.613281 53.3076 1.31999 53.3076 2.1907V14.8096C53.3076 15.6803 54.7652 16.3871 56.5609 16.3871C58.3567 16.3871 59.8143 15.6803 59.8143 14.8096V2.1907C59.814 1.31999 58.3567 0.613281 56.5609 0.613281Z" fill="#999999"/>
<path fill-rule="evenodd" clip-rule="evenodd" d="M62.329 6.92188H65.4837C71.5725 6.92188 76.5254 11.8748 76.5254 17.9634V24.2568L76.5255 24.2784L76.5254 24.2999V65.2846C76.5254 71.3733 71.5725 76.3262 65.4839 76.3262H11.8532C5.76442 76.3262 0.811523 71.3733 0.811523 65.2846V24.2784V17.9634C0.811523 11.8748 5.76442 6.92188 11.8532 6.92188H15.0079C15.8786 6.92188 16.5853 7.62844 16.5853 8.49915C16.5853 9.36986 15.8786 10.0766 15.0079 10.0766H11.8532C7.50274 10.0766 3.96622 13.6131 3.96637 17.9634V22.7009H73.3705V17.9634C73.3705 13.6131 69.8342 10.0766 65.4837 10.0766H62.329C61.4583 10.0766 60.7516 9.37001 60.7516 8.4993C60.7516 7.62859 61.4583 6.92188 62.329 6.92188ZM36.1241 42.6893C36.1241 45.2636 34.8812 47.5603 32.9631 48.9989C34.8811 50.4374 36.1241 52.734 36.124 55.3083C36.124 59.6586 32.5876 63.1951 28.2372 63.1951C23.8869 63.1951 20.3503 59.6587 20.3503 55.3083C20.3503 54.4375 21.0569 53.731 21.9276 53.731C22.7983 53.731 23.505 54.4377 23.505 55.3084C23.505 57.9174 25.6281 60.0405 28.2372 60.0405C30.8462 60.0405 32.9693 57.9174 32.9693 55.3084C32.9693 52.6994 30.8462 50.5763 28.2372 50.5763H25.0825C24.2118 50.5763 23.505 49.8696 23.505 48.9989C23.505 48.1282 24.2118 47.4214 25.0825 47.4214H28.2373C30.8463 47.4214 32.9694 45.2984 32.9694 42.6893C32.9694 40.0803 30.8463 37.9572 28.2373 37.9572C25.6283 37.9572 23.5052 40.0803 23.5052 42.6893C23.5052 43.56 22.7985 44.2667 21.9278 44.2667C21.0571 44.2667 20.3503 43.56 20.3503 42.6893C20.3503 38.3389 23.8869 34.8025 28.2373 34.8025C32.5876 34.8025 36.1241 38.3389 36.1241 42.6893ZM50.9263 34.9231C50.3395 34.6802 49.6612 34.8095 49.2069 35.2638L42.8974 41.5734C42.2822 42.1885 42.2822 43.1886 42.8974 43.8038C43.5126 44.419 44.5127 44.419 45.1279 43.8038L48.7432 40.1885V60.0446H44.0102C43.1395 60.0446 42.4328 60.7513 42.4328 61.622C42.4328 62.4927 43.1395 63.1994 44.0102 63.1994H56.6291C57.4998 63.1994 58.2065 62.4927 58.2065 61.622C58.2065 60.7513 57.4998 60.0446 56.6291 60.0446H51.898V36.3806C51.8979 35.7434 51.5131 35.1661 50.9263 34.9231Z" fill="url(#paint1_linear_1895_55121)"/>
<defs>
<linearGradient id="paint0_linear_1895_55121" x1="7.9413" y1="5.89421" x2="8.32885" y2="12.506" gradientUnits="userSpaceOnUse">
<stop stop-color="#FC4C00"/>
<stop offset="1" stop-color="#F09912"/>
</linearGradient>
<linearGradient id="paint1_linear_1895_55121" x1="38.6685" y1="6.92187" x2="38.6685" y2="76.3262" gradientUnits="userSpaceOnUse">
<stop stop-color="#E86A04"/>
<stop offset="1" stop-color="#F09E13"/>
</linearGradient>
</defs>
</svg>
