<svg width="84" height="81" viewBox="0 0 84 81" fill="none" xmlns="http://www.w3.org/2000/svg">
<path d="M68.5435 80.2612C76.6447 80.2612 83.212 73.696 83.212 65.5974C83.212 57.4988 76.6447 50.9336 68.5435 50.9336C60.4423 50.9336 53.875 57.4988 53.875 65.5974C53.875 73.696 60.4423 80.2612 68.5435 80.2612Z" fill="#F5A947"/>
<path d="M77.3335 53.8789C79.1744 56.3295 80.2785 59.365 80.2785 62.6657C80.2785 70.7642 73.7111 77.3295 65.6099 77.3295C62.3082 77.3295 59.2718 76.2257 56.8203 74.3853C59.4964 77.9475 63.7442 80.2623 68.5437 80.2623C76.6448 80.2623 83.2122 73.697 83.2122 65.5984C83.2122 60.8006 80.8967 56.5542 77.3335 53.8789Z" fill="#F09D3A"/>
<path d="M75.9435 75.8006L0.644543 75.8006L0.644536 35.6374C0.644535 28.2099 1.29627 21.4929 2.34664 16.6394C2.87228 14.2105 3.49493 12.2618 4.17821 10.9264C4.52003 10.2584 4.87077 9.75634 5.22189 9.42433C5.57186 9.09342 5.90648 8.94531 6.22522 8.94531L70.3628 8.9453C70.6815 8.9453 71.0162 9.09341 71.3661 9.42432C71.7173 9.75632 72.068 10.2584 72.4098 10.9264C73.0931 12.2618 73.7158 14.2105 74.2414 16.6393C75.2918 21.4929 75.9435 28.2099 75.9435 35.6374L75.9435 75.8006Z" stroke="#BBB4B4" stroke-width="0.5"/>
<path d="M75.123 19.923H1.45508L3.20085 11.5036C4.60497 7.29386 5.61797 5.89062 8.59964 5.89062H67.9863C70.968 5.89062 71.9818 7.29386 73.3851 11.5036L75.123 19.923Z" fill="url(#paint0_linear_1895_55006)"/>
<path d="M15.2031 13.6081C13.7302 13.6081 12.5361 12.4144 12.5361 10.9419V2.94349C12.5361 1.47102 13.7302 0.277344 15.2031 0.277344C16.6761 0.277344 17.8701 1.47102 17.8701 2.94349V10.9419C17.8701 12.4144 16.6761 13.6081 15.2031 13.6081Z" fill="#F5A947"/>
<path d="M29.8721 13.6081C28.3991 13.6081 27.2051 12.4144 27.2051 10.9419V2.94349C27.2051 1.47102 28.3991 0.277344 29.8721 0.277344C31.3451 0.277344 32.5391 1.47102 32.5391 2.94349V10.9419C32.5391 12.4144 31.3451 13.6081 29.8721 13.6081Z" fill="#F5A947"/>
<path d="M45.874 13.6081C44.4011 13.6081 43.207 12.4144 43.207 10.9419V2.94349C43.207 1.47102 44.4011 0.277344 45.874 0.277344C47.3469 0.277344 48.541 1.47102 48.541 2.94349V10.9419C48.541 12.4144 47.3469 13.6081 45.874 13.6081Z" fill="#F5A947"/>
<path d="M60.543 13.6081C59.07 13.6081 57.876 12.4144 57.876 10.9419V2.94349C57.876 1.47102 59.07 0.277344 60.543 0.277344C62.0159 0.277344 63.21 1.47102 63.21 2.94349V10.9419C63.21 12.4144 62.0159 13.6081 60.543 13.6081Z" fill="#F5A947"/>
<path d="M11.2031 26.9375H19.2041V34.936H11.2031V26.9375Z" fill="#999999"/>
<path d="M25.8721 26.9375H33.873V34.936H25.8721V26.9375Z" fill="#999999"/>
<path d="M40.54 26.9375H48.541V34.936H40.54V26.9375Z" fill="#999999"/>
<path d="M55.209 26.9375H63.21V34.936H55.209V26.9375Z" fill="#999999"/>
<path d="M11.2031 41.6016H19.2042V49.6H11.2031V41.6016Z" fill="#999999"/>
<path d="M25.8721 41.6016H33.873V49.6H25.8721V41.6016Z" fill="#999999"/>
<path d="M40.54 41.6016H48.541V49.6H40.54V41.6016Z" fill="#999999"/>
<path d="M55.209 41.6016H63.21V49.6H55.209V41.6016Z" fill="#999999"/>
<path d="M11.2031 56.2656H19.2042V64.2641H11.2031V56.2656Z" fill="#999999"/>
<path d="M25.8721 56.2656H33.873V64.2641H25.8721V56.2656Z" fill="#999999"/>
<path d="M40.54 56.2656H48.541V64.2641H40.54V56.2656Z" fill="#999999"/>
<path d="M62.7089 71.9719L61.042 69.889L67.2095 64.9577V54.9336H69.8765V66.2387L62.7089 71.9719Z" fill="#223B5A"/>
<path d="M68.5439 68.2659C70.0169 68.2659 71.2109 67.0722 71.2109 65.5997C71.2109 64.1273 70.0169 62.9336 68.5439 62.9336C67.071 62.9336 65.877 64.1273 65.877 65.5997C65.877 67.0722 67.071 68.2659 68.5439 68.2659Z" fill="#223B5A"/>
<defs>
<linearGradient id="paint0_linear_1895_55006" x1="10.2197" y1="0.277691" x2="74.7862" y2="18.5306" gradientUnits="userSpaceOnUse">
<stop stop-color="#E76502"/>
<stop offset="1" stop-color="#F1A515"/>
</linearGradient>
</defs>
</svg>
