<svg width="15" height="18" viewBox="0 0 15 18" fill="none" xmlns="http://www.w3.org/2000/svg">
<path d="M14.9363 16.1562V1.38406C14.9367 1.24527 14.9098 1.10776 14.8571 0.979382C14.8044 0.851006 14.7269 0.734279 14.6292 0.635863C14.5314 0.537448 14.4152 0.459273 14.2872 0.405801C14.1593 0.352329 14.0221 0.324607 13.8834 0.324219C13.8568 0.324219 13.8302 0.325205 13.8035 0.327179H11.5893V1.64162C11.5893 1.84786 11.4601 2.13157 11.2541 2.13157H3.65688C3.45083 2.13157 3.34781 1.84786 3.34781 1.64162V0.327179H1.13402C0.995607 0.316956 0.856541 0.334134 0.724765 0.37773C0.592989 0.421327 0.471088 0.490488 0.366027 0.58126C0.260966 0.672033 0.174805 0.782639 0.112467 0.906756C0.0501297 1.03087 0.0128376 1.16607 0.00272232 1.30462C0.00107918 1.33093 0.000257656 1.35741 0.000257656 1.38406V16.1562C-0.00621756 16.4637 0.10958 16.7612 0.322188 16.9832C0.534797 17.2053 0.826809 17.3338 1.13402 17.3404H13.8026C14.1097 17.3336 14.4017 17.2051 14.6142 16.9831C14.8268 16.7611 14.9427 16.4636 14.9363 16.1562ZM5.38217 12.7517L3.37344 14.6335C3.34171 14.6716 3.30248 14.7026 3.2582 14.7248C3.21393 14.7469 3.16556 14.7597 3.11613 14.7623C3.00844 14.7582 2.90665 14.712 2.83269 14.6335L1.77484 13.5515C1.7151 13.4743 1.68604 13.3778 1.69326 13.2804C1.70049 13.1831 1.74348 13.0919 1.81395 13.0244C1.88441 12.957 1.97735 12.918 2.07482 12.9151C2.17229 12.9122 2.26738 12.9456 2.34172 13.0087L3.11613 13.8372L4.86754 12.1877C4.94428 12.1364 5.03683 12.1144 5.12842 12.1255C5.22 12.1367 5.30457 12.1803 5.36679 12.2485C5.42901 12.3167 5.46477 12.4049 5.46759 12.4972C5.47041 12.5895 5.44011 12.6798 5.38217 12.7517ZM5.38217 8.62728L3.37344 10.5091C3.34171 10.5472 3.30248 10.5782 3.2582 10.6004C3.21393 10.6225 3.16556 10.6353 3.11613 10.6379C3.00849 10.6336 2.90678 10.5874 2.83269 10.5091L1.77484 9.42709C1.7151 9.34995 1.68604 9.25338 1.69326 9.15605C1.70049 9.05871 1.74348 8.9675 1.81395 8.90004C1.88441 8.83257 1.97735 8.79363 2.07482 8.79073C2.17229 8.78783 2.26738 8.82118 2.34172 8.88434L3.11416 9.70932L4.86557 8.05986C4.9425 8.0065 5.03618 7.98294 5.12917 7.99357C5.22216 8.00419 5.30813 8.04827 5.37107 8.11761C5.43401 8.18694 5.46963 8.27681 5.47131 8.37048C5.47299 8.46415 5.44061 8.55523 5.3802 8.62679L5.38217 8.62728ZM5.38217 4.50289L3.37344 6.38672C3.34171 6.42474 3.30248 6.45581 3.2582 6.47796C3.21393 6.50012 3.16556 6.5129 3.11613 6.5155C3.00853 6.511 2.9069 6.46482 2.83269 6.38672L1.77484 5.30122C1.7151 5.22407 1.68604 5.12751 1.69326 5.03017C1.70049 4.93284 1.74348 4.84163 1.81395 4.77416C1.88441 4.7067 1.97735 4.66776 2.07482 4.66486C2.17229 4.66196 2.26738 4.69531 2.34172 4.75847L3.11416 5.58345L4.86557 3.93349C4.94261 3.88078 5.0361 3.85775 5.12879 3.86866C5.22147 3.87956 5.30708 3.92367 5.36981 3.99283C5.43253 4.06199 5.46814 4.15153 5.47005 4.24492C5.47196 4.33831 5.44004 4.42924 5.3802 4.50091L5.38217 4.50289ZM12.8748 14.2467H6.95317C6.85312 14.2431 6.75837 14.2008 6.68886 14.1287C6.61935 14.0566 6.5805 13.9603 6.5805 13.8601C6.5805 13.7599 6.61935 13.6636 6.68886 13.5915C6.75837 13.5194 6.85312 13.4771 6.95317 13.4735H12.8768C12.9769 13.4771 13.0716 13.5194 13.1411 13.5915C13.2106 13.6636 13.2495 13.7599 13.2495 13.8601C13.2495 13.9603 13.2106 14.0566 13.1411 14.1287C13.0716 14.2008 12.9769 14.2431 12.8768 14.2467H12.8748ZM12.8748 10.1223H6.95317C6.85312 10.1187 6.75837 10.0764 6.68886 10.0043C6.61935 9.93221 6.5805 9.83592 6.5805 9.73572C6.5805 9.63552 6.61935 9.53922 6.68886 9.46712C6.75837 9.39501 6.85312 9.35271 6.95317 9.34913H12.8768C12.9769 9.35271 13.0716 9.39501 13.1411 9.46712C13.2106 9.53922 13.2495 9.63552 13.2495 9.73572C13.2495 9.83592 13.2106 9.93221 13.1411 10.0043C13.0716 10.0764 12.9769 10.1187 12.8768 10.1223H12.8748ZM12.8748 5.99791H6.95317C6.85067 5.99791 6.75237 5.95716 6.6799 5.88461C6.60742 5.81207 6.5667 5.71367 6.5667 5.61108C6.5667 5.50849 6.60742 5.41009 6.6799 5.33755C6.75237 5.265 6.85067 5.22425 6.95317 5.22425H12.8768C12.9793 5.22425 13.0776 5.265 13.1501 5.33755C13.2226 5.41009 13.2633 5.50849 13.2633 5.61108C13.2633 5.71367 13.2226 5.81207 13.1501 5.88461C13.0776 5.95716 12.9793 5.99791 12.8768 5.99791H12.8748Z" fill="white"/>
<path d="M10.9707 0.324219H3.96798C3.75591 0.324219 3.58398 0.496307 3.58398 0.708589V1.53555C3.58398 1.74783 3.75591 1.91992 3.96798 1.91992H10.9707C11.1828 1.91992 11.3547 1.74783 11.3547 1.53555V0.708589C11.3547 0.496307 11.1828 0.324219 10.9707 0.324219Z" fill="white"/>
</svg>
