<svg width="65" height="65" viewBox="0 0 65 65" fill="none" xmlns="http://www.w3.org/2000/svg">
<path d="M32.5 65C23.8189 65 15.6575 61.6194 9.51895 55.4811C3.38064 49.3426 0 41.1811 0 32.5C0 23.8189 3.38064 15.6574 9.51895 9.51895C15.6575 3.38064 23.8189 0 32.5 0C41.1811 0 49.3426 3.38064 55.4811 9.51895C61.6195 15.6573 65 23.8189 65 32.5C65 41.1811 61.6194 49.3426 55.4811 55.4811C49.3427 61.6195 41.1811 65 32.5 65ZM32.5 1.9043C24.3275 1.9043 16.6443 5.08676 10.8655 10.8655C5.08676 16.6443 1.9043 24.3275 1.9043 32.5C1.9043 40.6725 5.08676 48.3557 10.8655 54.1345C16.6443 59.9132 24.3275 63.0957 32.5 63.0957C40.6725 63.0957 48.3558 59.9132 54.1345 54.1345C59.9131 48.3557 63.0957 40.6725 63.0957 32.5C63.0957 24.3275 59.9132 16.6442 54.1345 10.8655C48.3557 5.08688 40.6725 1.9043 32.5 1.9043Z" fill="#9EE8C0"/>
<path d="M12.0649 36.2764C12.0649 36.2764 14.0165 33.3478 18.4509 31.8373C22.654 30.4055 28.1127 31.3679 29.4673 35.8392C30.7084 39.9361 27.3048 44.1195 22.9964 43.6029C17.1752 42.9051 17.1575 36.9772 12.0649 36.2764Z" fill="#9EE8C0"/>
<path d="M51.2273 16.4451C47.3741 14.9874 42.2393 14.1911 37.6096 15.5573C30.111 17.7699 26.9227 25.6188 29.6538 30.0538C32.4469 34.5891 38.9379 35.5067 42.7183 31.0749C46.582 26.5456 44.3194 21.3807 51.2273 16.4451Z" fill="#9EE8C0"/>
<path d="M40.2525 15.0074C42.3713 15.2549 44.3934 15.7808 46.1491 16.445C39.2412 21.3805 41.5037 26.5455 37.64 31.0748C36.6033 32.2901 35.3626 33.1022 34.0503 33.5487C36.959 34.5194 40.3641 33.8344 42.7181 31.0748C46.5818 26.5455 44.3193 21.3805 51.2272 16.445C48.0956 15.2604 44.1178 14.5126 40.2525 15.0074Z" fill="#8ADEB0"/>
<path d="M31.8882 46.859V52.647C31.8882 53.1684 32.2901 53.623 32.8113 53.6385C33.3506 53.6545 33.7925 53.2224 33.7925 52.6868V34.6282C33.7925 26.5551 37.8037 24.3791 37.9888 24.2833C38.4556 24.0488 38.6467 23.4811 38.4154 23.0116C38.1829 22.54 37.6126 22.3456 37.1404 22.5784C36.9261 22.6841 31.8882 25.274 31.8882 34.6282V42.3615C29.6104 38.8308 25.7644 35.9826 22.037 35.3777C21.5173 35.2941 21.0289 35.646 20.9446 36.1651C20.8603 36.6841 21.2128 37.1731 21.7319 37.2574C25.8715 37.9292 30.3527 42.0256 31.6622 46.2834C31.7177 46.4635 31.7827 46.6406 31.8647 46.8104L31.8882 46.859Z" fill="#7CCFA1"/>
</svg>
