<svg width="64" height="52" viewBox="0 0 64 52" fill="none" xmlns="http://www.w3.org/2000/svg">
<path d="M43.641 6.24902L38.1209 10.2576L36.0288 25.5308L38.6232 40.7202L43.6411 44.8126C45.6058 44.5138 47.5075 44.0318 49.3026 43.3764V7.68521C47.5074 7.02989 45.6055 6.54776 43.641 6.24902Z" fill="#EFEDEE"/>
<path d="M44.1758 42.26C43.1041 42.4222 42.0142 42.5309 40.9131 42.5874L43.6421 44.813C45.6067 44.5143 47.5085 44.0323 49.3036 43.3769V41.0405C47.6607 41.5816 45.9426 41.9913 44.1758 42.26Z" fill="#D2D2D2"/>
<path d="M62.6093 30.3196L62.1084 29.4402L63.0357 28.4203C63.1896 27.4881 63.2704 26.5249 63.2704 25.5316C63.2704 16.9791 57.3466 10.6147 49.3037 7.68604C46.3551 12.7085 44.7544 18.9375 44.7544 25.5316C44.7544 32.1258 46.3549 38.356 49.3037 43.3772C55.7627 41.0252 60.8543 36.4569 62.6093 30.3196Z" fill="#FA9F6A"/>
<path d="M7.27892 34.1196C3.2745 36.6341 0.378418 34.6745 0.378418 25.5308C0.378418 16.387 3.2745 14.4275 7.27892 16.9418V34.1196Z" fill="#3A484A"/>
<path d="M12.0977 21.4448V29.6169C10.3993 31.6405 8.76227 33.1871 7.27854 34.1198C6.09466 32.7716 5.39941 30.0149 5.39941 25.5309C5.39941 21.0469 6.09491 18.2903 7.27854 16.9419C8.76239 17.8747 10.3993 19.4213 12.0977 21.4448Z" fill="#E0712F"/>
<path d="M25.1356 9.07385C19.095 1.47282 27.2759 -1.85748 35.61 1.03344L25.1356 9.07385Z" fill="#3A484A"/>
<path d="M25.1361 41.9883C19.0955 49.5893 27.2764 52.9196 35.6105 50.0287L25.1361 41.9883Z" fill="#3A484A"/>
<path d="M43.6422 6.24915L25.1362 9.07361C25.1362 9.07361 27.4925 2.85595 35.6106 1.0332C38.4565 2.02129 41.3211 3.73348 43.6422 6.24915Z" fill="#E0712F"/>
<path d="M43.6422 44.8127L25.1362 41.9883C25.1362 41.9883 27.4925 48.2059 35.6106 50.0287C38.4565 49.0406 41.3211 47.3284 43.6422 44.8127Z" fill="#FA9F6A"/>
<path d="M25.1378 9.07387H25.1365C25.1362 9.07461 25.1359 9.07534 25.1357 9.0762L21.1338 13.2708L18.2046 26.7692L21.1337 37.7076L25.1365 41.9882C27.6384 43.216 30.2457 44.0696 32.8756 44.5792V6.48291C30.247 6.99243 27.6383 7.84613 25.1378 9.07387Z" fill="#EFEDEE"/>
<path d="M32.7305 42.0117H32.7292C29.9334 41.47 27.1617 40.5623 24.502 39.2572C23.3144 38.6755 22.1496 38.0148 21.0161 37.2725L21.1327 37.7078L25.1355 41.9885C25.761 42.2954 26.3931 42.5789 27.0304 42.8396C28.9424 43.6214 30.9021 44.1973 32.8746 44.5794V42.0381C32.8265 42.029 32.7785 42.021 32.7305 42.0117Z" fill="#D2D2D2"/>
<path d="M39.1045 25.531C39.1045 32.5218 40.6937 39.2027 43.6411 44.8128C40.1728 45.3375 36.5059 45.2861 32.8755 44.5793H32.8743C29.4511 39.3684 27.5781 32.6624 27.5781 25.531C27.5781 18.3996 29.4511 11.6949 32.8743 6.48273H32.8755C36.5059 5.77594 40.1726 5.72447 43.6411 6.24922C40.6951 11.8593 39.1045 18.5402 39.1045 25.531Z" fill="#FA9F6A"/>
<path d="M21.9297 25.5309C21.9297 31.382 23.0432 37.017 25.1358 41.9881C19.6274 39.2905 14.6413 34.7889 11.1239 28.1733C10.2478 26.5239 10.2478 24.5379 11.1239 22.8885C14.6413 16.273 19.6262 11.7713 25.1358 9.07373C23.0445 14.0447 21.9297 19.6786 21.9297 25.5309Z" fill="#FA9F6A"/>
<path d="M50.0786 43.0812C52.6625 42.0505 55.1048 40.6175 57.1838 38.7618C57.1931 38.7534 57.203 38.7452 57.2123 38.7367C58.1636 37.8845 59.0374 36.9432 59.8039 35.9211C59.8116 35.9109 59.8191 35.9005 59.8267 35.8903C60.8003 34.5871 61.5937 33.1642 62.1722 31.6318C59.5293 35.7625 55.2582 38.8892 50.1945 40.7331C49.5521 40.9675 48.8957 41.1793 48.2295 41.3717C48.5648 42.0588 48.9228 42.7279 49.3037 43.3766C49.5635 43.2821 49.8217 43.1835 50.0786 43.0812Z" fill="#E0712F"/>
<path d="M32.7293 42.0112C32.2208 41.9127 31.713 41.8017 31.2065 41.6787C31.7132 42.688 32.2691 43.6573 32.8759 44.579C35.9841 45.1841 39.1834 45.322 42.332 44.982C42.7712 44.9346 43.2079 44.8779 43.6414 44.8125C43.2406 44.0497 42.8658 43.2662 42.5158 42.4657C39.3286 42.7837 36.0159 42.6507 32.7293 42.0112Z" fill="#E0712F"/>
<path d="M25.1354 41.9884C24.7291 41.0233 24.3609 40.0326 24.0294 39.0207C18.8122 36.3591 14.0629 32.1511 10.5029 26.1616C10.5099 26.2237 10.5191 26.2856 10.5281 26.3474C10.621 26.9849 10.8212 27.6044 11.1235 28.1737C12.073 29.9596 13.1714 31.6679 14.4188 33.2607C17.487 37.1787 21.1762 40.0496 25.1354 41.9884Z" fill="#E0712F"/>
<path d="M62.757 28.4076C62.7425 28.4092 61.2856 28.5552 59.7533 28.1334C59.248 27.9942 58.7256 28.2913 58.5865 28.7966C58.4474 29.3019 58.7444 29.8244 59.2497 29.9634C60.3492 30.2661 61.4087 30.3306 62.1115 30.3306C62.3084 30.3306 62.4759 30.3255 62.6099 30.3191C62.7864 29.7018 62.9291 29.0684 63.0362 28.4197C62.9463 28.4024 62.8526 28.3976 62.757 28.4076Z" fill="#3A484A"/>
<path d="M53.8779 27.7184C53.7472 27.7184 53.6144 27.6913 53.4878 27.634C53.0101 27.4182 52.7978 26.8559 53.0136 26.3784C53.427 25.4637 54.2323 24.7671 55.2232 24.4671C56.2142 24.1668 57.2707 24.2999 58.122 24.8317C58.5665 25.1095 58.7016 25.695 58.4239 26.1394C58.1462 26.5839 57.5607 26.7192 57.1162 26.4414C56.7296 26.1998 56.2401 26.1422 55.7734 26.2837C55.3066 26.425 54.9312 26.7443 54.7434 27.1598C54.5848 27.5107 54.2394 27.7184 53.8779 27.7184Z" fill="#3A484A"/>
</svg>
