<svg width="59" height="85" viewBox="0 0 59 85" fill="none" xmlns="http://www.w3.org/2000/svg">
<path d="M12.0525 7.15771H20.9999V66.2103H12.0525V7.15771Z" fill="#E7A52E"/>
<path d="M20.1051 6.26318V85C19.1954 84.7481 18.2998 84.4459 17.4209 84.0949V6.26318H20.1051Z" fill="#E7A52E"/>
<path d="M18.6597 3.06687C16.5603 5.16637 15.8975 7.90733 17.1793 9.18903C18.4611 10.4707 21.2019 9.8079 23.3013 7.70857C25.4007 5.60907 27.2239 1.70777 25.9422 0.42607C24.6605 -0.855626 20.759 0.967363 18.6597 3.06687Z" fill="#F1D333"/>
<path d="M22.7893 8.0904C20.7923 9.87825 18.3441 10.3864 17.1654 9.19947C15.9109 7.93806 16.5596 5.24138 18.6141 3.17557C19.4916 2.29328 20.69 1.46061 21.8738 0.894531C21.5264 1.16766 21.2021 1.45234 20.9123 1.74374C18.8576 3.80972 18.2089 6.50623 19.4634 7.76764C20.2112 8.51914 21.4624 8.59203 22.7893 8.0904Z" fill="#E7A52E"/>
<path d="M19.8235 9.21354C16.579 12.4579 15.5546 16.694 17.5354 18.6749C19.5163 20.6557 23.7522 19.6312 26.9968 16.3868C30.2414 13.1424 33.059 7.11314 31.0782 5.13215C29.0974 3.15115 23.0681 5.96896 19.8235 9.21354Z" fill="#F1D333"/>
<path d="M27.263 16.1203C27.1285 16.2615 26.994 16.398 26.858 16.53C23.6562 19.634 19.4764 20.6132 17.5218 18.7183C15.5672 16.8234 16.5789 12.7712 19.7805 9.66719C20.7138 8.76085 21.8825 7.89022 23.1166 7.15771C19.971 10.2524 18.9896 14.258 20.9299 16.1389C22.3084 17.4751 24.7944 17.3819 27.263 16.1203Z" fill="#E7A52E"/>
<path d="M20.5994 20.1711C16.5914 24.179 15.326 29.4117 17.773 31.8586C20.2199 34.3055 25.4527 33.0402 29.4605 29.0322C33.4683 25.0243 36.9492 17.5764 34.5023 15.1293C32.0554 12.6823 24.6073 16.1632 20.5994 20.1711Z" fill="#F1D333"/>
<path d="M31.7367 26.9648C31.1374 27.7251 30.5046 28.432 29.8567 29.0567C25.7254 33.0403 20.3334 34.2978 17.8106 31.8669C15.2896 29.4344 16.5936 24.2356 20.7234 20.2519C21.2406 19.7532 21.8148 19.2624 22.4275 18.7896C19.7273 22.3792 19.1414 26.3855 21.2624 28.4305C23.4737 30.5642 27.8965 29.8589 31.7367 26.9648Z" fill="#E7A52E"/>
<path d="M20.5994 33.5919C16.5914 37.5999 15.326 42.8326 17.773 45.2795C20.2201 47.7264 25.4527 46.4611 29.4605 42.4531C33.4684 38.4452 36.9491 30.9973 34.5022 28.5502C32.0552 26.1033 24.6073 29.584 20.5994 33.5919Z" fill="#F1D333"/>
<path d="M31.7367 40.3857C31.1374 41.146 30.5046 41.8529 29.8567 42.4776C25.7254 46.4612 20.3334 47.7187 17.8106 45.2878C15.2896 42.8553 16.5936 37.6565 20.7234 33.6728C21.2406 33.1741 21.8148 32.6833 22.4275 32.2104C19.7273 35.8001 19.1414 39.8064 21.2624 41.8514C23.4737 43.9851 27.8965 43.2798 31.7367 40.3857Z" fill="#E7A52E"/>
<path d="M20.5994 47.629C16.5914 51.4461 15.326 56.4296 17.773 58.76C20.2199 61.0904 25.4527 59.8854 29.4605 56.0682C33.4683 52.2511 36.9492 45.1578 34.5023 42.8273C32.0552 40.497 24.6073 43.812 20.5994 47.629Z" fill="#F1D333"/>
<path d="M31.7367 53.8066C31.1374 54.5669 30.5046 55.2738 29.8567 55.8985C25.7254 59.882 20.3334 61.1395 17.8106 58.7087C15.2896 56.2762 16.5936 51.0774 20.7234 47.0937C21.2406 46.595 21.8148 46.1042 22.4275 45.6313C19.7273 49.221 19.1414 53.2273 21.2624 55.2723C23.4737 57.406 27.8965 56.7007 31.7367 53.8066Z" fill="#E7A52E"/>
<path d="M29.2655 67.6514C28.9279 68.055 28.5806 68.4361 28.2284 68.7883C24.7586 72.2581 20.2756 73.4561 17.9555 71.6134C17.851 71.5313 17.7513 71.4413 17.6549 71.3449C17.5585 71.2485 17.4684 71.1487 17.3864 71.0443C15.5437 68.724 16.7416 64.2412 20.2115 60.7713C20.4702 60.5124 20.7438 60.2568 21.0298 60.0059C24.773 56.7242 30.7337 54.153 32.7901 56.2096C34.7888 58.208 32.4172 63.8969 29.2655 67.6514Z" fill="#F1D333"/>
<path d="M29.9472 67.6287C29.5915 68.0342 29.2256 68.4171 28.8546 68.7709C25.1991 72.2571 20.4762 73.4606 18.032 71.6093C17.9219 71.5269 17.8168 71.4364 17.7153 71.3395C17.6137 71.2427 17.5188 71.1424 17.4324 71.0375C15.4911 68.7063 16.7532 64.2024 20.4087 60.7163C20.6813 60.4561 20.9694 60.1994 21.2708 59.9473C19.5361 63.0426 19.3956 66.1717 21.2082 67.9003C23.0952 69.7012 26.5729 69.4816 29.9472 67.6287Z" fill="#E7A52E"/>
<path d="M17.0768 3.06696C19.1762 5.16644 19.839 7.90736 18.5572 9.18904C17.2756 10.4707 14.5347 9.8079 12.4352 7.7086C10.3358 5.60913 8.51266 1.70789 9.79432 0.426208C11.0762 -0.85582 14.9774 0.967493 17.0768 3.06696Z" fill="#F1D333"/>
<path d="M18.3157 9.39368C16.9546 10.3883 14.4104 9.68559 12.4343 7.70909C10.3359 5.60931 8.51299 1.70831 9.79402 0.426135C10.238 -0.0179516 10.9968 -0.0893978 11.8858 0.094296C10.7212 1.43689 12.5196 5.2477 14.585 7.31264C15.751 8.47906 17.1146 9.20141 18.3157 9.39368Z" fill="#E7A52E"/>
<path d="M15.9131 9.21354C19.1575 12.4579 20.1819 16.694 18.2011 18.6749C16.2203 20.6557 11.9843 19.6312 8.73974 16.3868C5.49514 13.1424 2.67749 7.11314 4.65833 5.13215C6.63916 3.15115 12.6686 5.96896 15.9131 9.21354Z" fill="#F1D333"/>
<path d="M17.4209 18.9912C15.3793 20.5283 11.5631 19.4422 8.59905 16.3877C5.45128 13.1425 2.71697 7.11366 4.63844 5.13219C5.30444 4.44586 6.44257 4.33542 7.77605 4.61947C6.02927 6.69433 8.72671 12.5839 11.8247 15.775C13.5739 17.5776 15.6193 18.6939 17.4209 18.9912Z" fill="#E7A52E"/>
<path d="M15.1371 20.1711C19.1451 24.179 20.4105 29.4117 17.9635 31.8586C15.5166 34.3055 10.2838 33.0402 6.27599 29.0322C2.26822 25.0243 -1.21266 17.5764 1.23424 15.1293C3.68114 12.6823 11.1292 16.1632 15.1371 20.1711Z" fill="#F1D333"/>
<path d="M17.4209 32.2494C14.835 34.1482 10.001 32.8065 6.24649 29.0333C2.25929 25.0247 -1.20417 17.5773 1.22981 15.1294C2.07338 14.2816 3.51506 14.1452 5.20406 14.496C2.99149 17.0592 6.40818 24.3343 10.3323 28.2765C12.5482 30.5032 15.1388 31.8823 17.4209 32.2494Z" fill="#E7A52E"/>
<path d="M15.1371 33.5919C19.1451 37.5999 20.4105 42.8326 17.9635 45.2795C15.5166 47.7264 10.2838 46.4611 6.276 42.4531C2.26807 38.4452 -1.21264 30.9973 1.23426 28.5502C3.68115 26.1033 11.1292 29.584 15.1371 33.5919Z" fill="#F1D333"/>
<path d="M17.4209 45.6703C14.835 47.5691 10.001 46.2274 6.24649 42.4542C2.25929 38.4456 -1.20417 30.9982 1.22981 28.5503C2.07338 27.7025 3.51506 27.5661 5.20406 27.9169C2.99149 30.4801 6.40818 37.7552 10.3323 41.6974C12.5482 43.9241 15.1388 45.3032 17.4209 45.6703Z" fill="#E7A52E"/>
<path d="M15.1371 47.629C19.1451 51.4461 20.4105 56.4296 17.9635 58.76C15.5166 61.0904 10.2838 59.8854 6.27599 56.0682C2.26822 52.2511 -1.21266 45.1578 1.23424 42.8273C3.68114 40.497 11.1292 43.812 15.1371 47.629Z" fill="#F1D333"/>
<path d="M17.4209 59.1322C14.835 60.9406 10.001 59.6628 6.24649 56.0693C2.25929 52.2515 -1.20417 45.1588 1.22981 42.8275C2.07338 42.0201 3.51506 41.8901 5.20406 42.2243C2.99149 44.6654 6.40818 51.594 10.3323 55.3485C12.5482 57.4692 15.1388 58.7826 17.4209 59.1322Z" fill="#E7A52E"/>
<path d="M15.525 60.7712C19.1513 64.3974 20.2962 69.1316 18.0822 71.3455C15.8683 73.5595 11.1339 72.4146 7.50775 68.7883C3.88144 65.162 0.732338 58.4235 2.94629 56.2096C5.16023 53.9956 11.8988 57.1449 15.525 60.7712Z" fill="#F1D333"/>
<path d="M17.4635 71.4121C15.1038 73.1361 10.6926 71.918 7.26669 68.4919C3.62829 64.8522 0.46776 58.0902 2.68883 55.8676C3.45864 55.0978 4.77418 54.9738 6.31531 55.2925C4.29631 57.6197 7.414 64.2253 10.9948 67.8047C13.017 69.8266 15.381 71.0787 17.4635 71.4121Z" fill="#E7A52E"/>
<path d="M36.6051 18.8945H45.2413V74.6334H36.6051V18.8945Z" fill="#E7A52E"/>
<path d="M44.5064 18.0825V83.3087C43.4213 83.7135 42.3144 84.0763 41.189 84.3938V18.0825H44.5064Z" fill="#E7A52E"/>
<path d="M42.6237 15.3145C40.7152 17.2231 40.1126 19.7149 41.2778 20.8801C42.4429 22.0452 44.9348 21.4426 46.8433 19.5341C48.7518 17.6256 50.4093 14.0788 49.2442 12.9137C48.079 11.7485 44.5324 13.406 42.6237 15.3145Z" fill="#F1D333"/>
<path d="M46.9472 19.7222C44.9502 21.5101 42.5021 22.0182 41.3233 20.8314C40.0688 19.57 40.7175 16.8734 42.7722 14.8075C43.6497 13.9252 44.8482 13.0925 46.0319 12.5264C45.6845 12.7996 45.3603 13.0841 45.0704 13.3756C43.0157 15.4415 42.367 18.1381 43.6215 19.3995C44.3691 20.151 45.6204 20.2239 46.9472 19.7222Z" fill="#E7A52E"/>
<path d="M43.7876 21.1823C40.7338 24.0452 39.7697 27.7828 41.634 29.5305C43.4983 31.2782 47.4853 30.3744 50.5389 27.5116C53.5924 24.6487 56.2445 19.3288 54.3802 17.5809C52.5159 15.8332 46.8413 18.3195 43.7876 21.1823Z" fill="#F1D333"/>
<path d="M51.4209 27.1119C51.2864 27.243 51.1519 27.3698 51.0158 27.4923C47.8141 30.3747 43.6343 31.2839 41.6798 29.5244C39.7251 27.7647 40.7369 24.0019 43.9387 21.1198C44.872 20.2781 46.0406 19.4697 47.2749 18.7896C44.1292 21.6631 43.148 25.3828 45.0882 27.1294C46.4663 28.3701 48.9525 28.2836 51.4209 27.1119Z" fill="#E7A52E"/>
<path d="M44.5634 31.5236C40.7462 35.3407 39.5411 40.3241 41.8715 42.6545C44.202 44.985 49.1856 43.7799 53.0026 39.9628C56.8197 36.1456 60.1346 29.0525 57.8042 26.7219C55.4737 24.3915 48.3805 27.7065 44.5634 31.5236Z" fill="#F1D333"/>
<path d="M54.9999 38.0852C54.4358 38.7979 53.8402 39.4608 53.2305 40.0463C49.3421 43.781 44.2673 44.9598 41.893 42.6809C39.5203 40.4005 40.7476 35.5265 44.6345 31.7918C45.1214 31.3242 45.6618 30.8641 46.2384 30.4209C43.6971 33.7864 43.1457 37.5421 45.1419 39.4593C47.2231 41.4597 51.3855 40.7985 54.9999 38.0852Z" fill="#E7A52E"/>
<path d="M44.5634 44.05C40.7462 47.8671 39.5411 52.8505 41.8715 55.1809C44.202 57.5113 49.1856 56.3062 53.0026 52.4891C56.8197 48.672 60.1346 41.5787 57.8042 39.2483C55.4737 36.9179 48.3805 40.2329 44.5634 44.05Z" fill="#F1D333"/>
<path d="M54.9999 50.6116C54.4358 51.3243 53.8402 51.9872 53.2305 52.5727C49.3421 56.3074 44.2673 57.4862 41.893 55.2073C39.5203 52.9269 40.7476 48.0527 44.6345 44.3182C45.1214 43.8506 45.6618 43.3905 46.2384 42.9473C43.6971 46.3127 43.1457 50.0685 45.1419 51.9857C47.2231 53.9859 51.3855 53.3247 54.9999 50.6116Z" fill="#E7A52E"/>
<path d="M44.5634 56.5763C40.7462 60.3935 39.5411 65.3769 41.8715 67.7073C44.202 70.0377 49.1856 68.8326 53.0026 65.0155C56.8197 61.1984 60.1346 54.105 57.8042 51.7746C55.4737 49.4442 48.3805 52.7592 44.5634 56.5763Z" fill="#F1D333"/>
<path d="M54.9999 63.1379C54.4358 63.8506 53.8402 64.5135 53.2305 65.0991C49.3421 68.8338 44.2673 70.0125 41.893 67.7337C39.5203 65.4533 40.7476 60.5791 44.6345 56.8445C45.1214 56.3769 45.6618 55.9168 46.2384 55.4736C43.6971 58.8391 43.1457 62.5948 45.1419 64.512C47.2231 66.5124 51.3855 65.851 54.9999 63.1379Z" fill="#E7A52E"/>
<path d="M52.7531 75.9578C52.4332 76.3401 52.1041 76.7012 51.7706 77.0348C48.4833 80.322 44.2364 81.4568 42.0384 79.7112C41.9393 79.6335 41.845 79.5483 41.7535 79.4568C41.6622 79.3655 41.5767 79.271 41.499 79.1719C39.7534 76.9739 40.8882 72.727 44.1755 69.4397C44.4207 69.1945 44.6797 68.9522 44.9508 68.7146C48.4971 65.6056 54.1439 63.1698 56.0922 65.1181C57.9855 67.0117 55.7387 72.401 52.7531 75.9578Z" fill="#F1D333"/>
<path d="M53.2104 75.6816C52.8784 76.0869 52.5368 76.4698 52.1907 76.8237C48.7788 80.3098 44.371 81.5133 42.0897 79.6621C41.9869 79.5797 41.889 79.4893 41.794 79.3922C41.6992 79.2954 41.6105 79.1952 41.5299 79.0901C39.7181 76.7591 40.896 72.2552 44.3078 68.769C44.5623 68.509 44.8311 68.252 45.1125 68C43.4936 71.0952 43.3623 74.2243 45.054 75.9528C46.8152 77.7541 50.0609 77.5344 53.2104 75.6816Z" fill="#E7A52E"/>
<path d="M41.4286 15.3145C43.3372 17.2231 43.9397 19.7149 42.7746 20.8801C41.6094 22.0452 39.1176 21.4426 37.2091 19.5341C35.3005 17.6256 33.643 14.0788 34.8082 12.9137C35.9733 11.7485 39.5201 13.406 41.4286 15.3145Z" fill="#F1D333"/>
<path d="M42.4735 21.0661C41.2486 21.9703 38.9588 21.3313 37.1804 19.5346C35.2917 17.6257 33.6511 14.0794 34.8041 12.9138C35.2037 12.5101 35.8866 12.4451 36.6866 12.6121C35.6385 13.8325 37.2569 17.2969 39.1157 19.1742C40.1653 20.2346 41.3925 20.8914 42.4735 21.0661Z" fill="#E7A52E"/>
<path d="M40.2648 21.1824C43.3186 24.0452 44.2826 27.7828 42.4184 29.5305C40.5541 31.2782 36.5671 30.3744 33.5135 27.5116C30.4599 24.6487 27.8079 19.3289 29.6722 17.581C31.5365 15.8331 37.2111 18.3195 40.2648 21.1824Z" fill="#F1D333"/>
<path d="M41.5788 29.8096C39.6735 31.1659 36.1114 30.2076 33.345 27.5124C30.407 24.649 27.8551 19.3296 29.6485 17.5811C30.2701 16.9755 31.3325 16.878 32.577 17.1287C30.9465 18.9595 33.4641 24.156 36.3555 26.9718C37.9882 28.5624 39.8971 29.5475 41.5788 29.8096Z" fill="#E7A52E"/>
<path d="M39.489 31.5236C43.3061 35.3407 44.5112 40.3241 42.1808 42.6545C39.8504 44.985 34.8667 43.7799 31.0498 39.9628C27.2326 36.1456 23.9178 29.0525 26.2482 26.7219C28.5784 24.3915 35.6718 27.7065 39.489 31.5236Z" fill="#F1D333"/>
<path d="M41.5788 43.0267C39.1289 44.8351 34.5495 43.5573 30.9925 39.9639C27.2152 36.146 23.934 29.0533 26.2398 26.7221C27.039 25.9146 28.4049 25.7846 30.0048 26.1189C27.9088 28.5599 31.1455 35.4886 34.8632 39.2431C36.9625 41.3638 39.4169 42.6771 41.5788 43.0267Z" fill="#E7A52E"/>
<path d="M39.489 44.05C43.3061 47.8671 44.5112 52.8505 42.1808 55.1809C39.8504 57.5113 34.8667 56.3062 31.0498 52.4891C27.2326 48.672 23.9178 41.5787 26.2482 39.2483C28.5784 36.9179 35.6718 40.2329 39.489 44.05Z" fill="#F1D333"/>
<path d="M41.5788 55.5531C39.1289 57.3615 34.5495 56.0837 30.9925 52.4902C27.2152 48.6723 23.934 41.5797 26.2398 39.2484C27.039 38.441 28.4049 38.311 30.0048 38.6452C27.9088 41.0863 31.1455 48.015 34.8632 51.7695C36.9625 53.89 39.4169 55.2035 41.5788 55.5531Z" fill="#E7A52E"/>
<path d="M39.489 56.5763C43.3061 60.3934 44.5112 65.3769 42.1808 67.7073C39.8504 70.0377 34.8667 68.8326 31.0498 65.0155C27.2326 61.1984 23.9178 54.105 26.2482 51.7746C28.5784 49.4443 35.6718 52.7592 39.489 56.5763Z" fill="#F1D333"/>
<path d="M41.5788 68.0794C39.1289 69.8879 34.5495 68.6101 30.9925 65.0166C27.2152 61.1987 23.934 54.106 26.2398 51.7748C27.039 50.9673 28.4049 50.8374 30.0048 51.1716C27.9088 53.6126 31.1455 60.5414 34.8632 64.2959C36.9625 66.4165 39.4169 67.7299 41.5788 68.0794Z" fill="#E7A52E"/>
<path d="M39.877 69.4396C43.3124 72.875 44.397 77.3602 42.2997 79.4575C40.2024 81.5548 35.717 80.4702 32.2818 77.0348C28.8463 73.5994 25.8629 67.2153 27.9602 65.118C30.0575 63.0208 36.4415 66.0042 39.877 69.4396Z" fill="#F1D333"/>
<path d="M41.5789 79.7924C39.4013 81.42 35.3305 80.27 32.1689 77.0358C28.8113 73.5998 25.8946 67.2163 27.9442 65.1183C28.6548 64.3915 29.8687 64.2746 31.291 64.5753C29.4277 66.7722 32.305 73.008 35.6095 76.387C37.4755 78.2957 39.6572 79.4778 41.5789 79.7924Z" fill="#E7A52E"/>
</svg>
