<svg width="41" height="67" viewBox="0 0 41 67" fill="none" xmlns="http://www.w3.org/2000/svg">
<path d="M40.4611 46.2187C40.4611 54.9954 34.9092 62.4729 27.1375 65.3054C25.3944 65.9413 23.5397 66.3431 21.61 66.4738C21.4916 66.482 21.3717 66.4901 21.2519 66.4956C20.9142 66.5119 20.5737 66.5201 20.2306 66.5201C19.8874 66.5201 19.5469 66.5119 19.2092 66.4956C8.50975 65.9604 0 57.0857 0 46.2187C0 45.866 0.00953306 45.516 0.0272362 45.1674C0.0857926 44.0031 0.242396 42.8647 0.49024 41.7603C1.08125 39.1075 2.1911 36.6522 3.7054 34.5033C4.10031 33.9437 4.44756 33.3608 4.74443 32.7616C5.07398 32.0984 5.34089 31.4148 5.54652 30.719C6.32273 28.0935 6.21379 25.2828 5.13662 22.6845C5.04538 22.4639 4.95959 22.2433 4.87789 22.0172V22.0159C4.58374 21.2097 4.35224 20.3735 4.18746 19.5115C3.99273 18.5038 3.89196 17.4621 3.89196 16.3958C3.89196 7.68587 10.66 0.561052 19.2092 0.0326827C19.5469 0.0108942 19.8874 0 20.2306 0C20.5737 0 20.9142 0.0108942 21.2519 0.0326827C21.3173 0.036768 21.3826 0.0408533 21.448 0.0476622C23.221 0.177031 24.9151 0.592373 26.4852 1.24603C32.4049 3.70948 36.5678 9.56512 36.5678 16.3958C36.5678 17.4607 36.467 18.5025 36.2723 19.5102C36.1089 20.3722 35.876 21.2097 35.5819 22.0172C35.5002 22.2419 35.4144 22.4652 35.3231 22.6845C34.246 25.2828 34.137 28.0948 34.9132 30.719C35.1189 31.4162 35.3871 32.0984 35.7153 32.7616C36.0122 33.3608 36.3595 33.9437 36.7544 34.5033C38.2687 36.6509 39.3785 39.1062 39.9709 41.7575C40.2174 42.8619 40.3753 44.0017 40.4339 45.1661C40.4516 45.5147 40.4611 45.866 40.4611 46.2187Z" fill="#FFCA5E"/>
<path d="M20.078 66.5188C8.97547 66.4371 0 57.3799 0 46.2188C0 41.8557 1.37267 37.8139 3.70676 34.5048C6.18655 30.9887 6.7585 26.5956 5.13799 22.6846C4.3359 20.7481 3.89196 18.6238 3.89196 16.3959C3.89196 7.34144 11.2074 0.00146484 20.2306 0.00146484C14.9469 0.00146484 10.6641 7.34144 10.6641 16.3959C10.6641 18.6238 10.9242 20.7481 11.394 22.6846C12.3418 26.5956 12.0082 30.9887 10.5551 34.5048C9.18927 37.8139 8.38582 41.8557 8.38582 46.2188C8.38582 57.3445 13.6055 66.3786 20.078 66.5188Z" fill="#E8A328"/>
<path d="M36.2723 19.51C36.1089 20.372 35.8761 21.2095 35.5819 22.017L35.4907 21.8631C33.4698 18.4723 27.1934 16.1042 20.2306 16.1042C13.2678 16.1042 6.99276 18.471 4.97052 21.8618L4.87792 22.0157C4.58378 21.2095 4.35228 20.3734 4.1875 19.5114C7.16843 16.2022 13.3318 14.0615 20.2306 14.0615C27.128 14.0615 33.2928 16.2009 36.2723 19.51Z" fill="#E8A328"/>
<path d="M40.434 45.1659C39.0409 46.962 36.8661 48.5553 34.084 49.7891C30.1975 51.5104 25.2788 52.4595 20.2307 52.4595C15.1826 52.4595 10.2625 51.5104 6.37595 49.7891C3.59384 48.5567 1.42044 46.9634 0.0273438 45.1672C0.0859002 44.0029 0.242504 42.8644 0.490347 41.76L0.604737 42.0787C1.40682 44.3161 3.75044 46.3915 7.20391 47.9221C10.8344 49.5303 15.4604 50.4169 20.2307 50.4169C24.9996 50.4169 29.6256 49.5303 33.2561 47.9221C36.7095 46.3915 39.0532 44.3161 39.8552 42.0787L39.971 41.7573C40.2175 42.8617 40.3754 44.0015 40.434 45.1659Z" fill="#E8A328"/>
<path d="M33.0969 46.6642C33.0969 52.445 31.8182 57.8975 29.4963 62.0142C28.7801 63.2833 27.9889 64.3837 27.1377 65.3056C25.3947 65.9415 23.5399 66.3433 21.6103 66.474C23.8804 65.9279 26.0102 64.035 27.7165 61.0105C29.8695 57.1948 31.0542 52.0991 31.0542 46.6642C31.0542 42.4209 30.3298 38.3615 28.9571 34.9257C27.421 31.0787 27.0901 26.2784 28.0733 22.0882C28.539 20.1014 28.776 17.992 28.776 15.8172C28.776 11.4609 27.8268 7.37966 26.1055 4.32792C24.7928 2.002 23.1723 0.523112 21.4482 0.0478516C23.2213 0.17722 24.9153 0.592562 26.4855 1.24622C26.9825 1.86174 27.451 2.55488 27.884 3.32429C29.7769 6.67698 30.8186 11.115 30.8186 15.8172C30.8186 18.1486 30.564 20.4146 30.0615 22.5539C29.1709 26.3533 29.4677 30.6946 30.854 34.1685C32.322 37.8426 33.0969 42.1635 33.0969 46.6642Z" fill="#E8A328"/>
<path d="M35.7155 32.7614H4.74463C5.07418 32.0982 5.34109 31.4146 5.54672 30.7188H34.9134C35.1191 31.416 35.3873 32.0982 35.7155 32.7614Z" fill="#E8A328"/>
<path d="M21.2521 0.0326827V66.4956C20.9144 66.5119 20.574 66.5201 20.2308 66.5201C19.8876 66.5201 19.5472 66.5119 19.2095 66.4956V0.0326827C19.5472 0.0108942 19.8876 0 20.2308 0C20.574 0 20.9144 0.0108942 21.2521 0.0326827Z" fill="#E8A328"/>
</svg>
