<svg width="56" height="68" viewBox="0 0 56 68" fill="none" xmlns="http://www.w3.org/2000/svg">
<path d="M55.2898 33.8134C53.0596 19.4944 47.0711 10.59 41.2984 5.15973C33.9869 -1.71791 22.5783 -1.71875 15.266 5.15806C9.49246 10.5877 3.50292 19.4914 1.2709 33.8101C1.2709 33.8101 -2.93108 53.8856 15.0235 64.3831C23.2193 69.1751 33.337 69.1757 41.5335 64.3848C59.4893 53.8895 55.2898 33.8134 55.2898 33.8134Z" fill="#E59770"/>
<path d="M41.5334 64.3852C36.7221 67.1977 31.2467 68.3595 25.8892 67.868C29.715 67.5432 33.4864 66.3775 36.9198 64.3702C54.8756 53.8735 50.6775 33.7986 50.6775 33.7986C48.4463 19.4785 42.4574 10.5742 36.6853 5.14425C33.6467 2.28686 29.9001 0.615724 26.0355 0.132505C31.4347 -0.507054 37.0565 1.16859 41.2989 5.15945C47.0709 10.5894 53.0598 19.4937 55.2893 33.8138C55.2893 33.8137 59.4893 53.8885 41.5334 64.3852Z" fill="#DB7E56"/>
</svg>
