<svg width="74" height="50" viewBox="0 0 74 50" fill="none" xmlns="http://www.w3.org/2000/svg">
<path d="M2.16557 22.306C2.07014 22.5947 2.01608 22.888 2.00098 23.1843C2.01498 18.2381 2.02899 13.2922 2.043 8.34596C2.0581 8.04959 2.11217 7.75608 2.2076 7.46759C3.58458 3.31345 12.9919 0.931371 28.0104 0.931152C43.7648 0.931152 55.6191 2.92428 63.2392 6.85954C63.6435 7.06813 64.0307 7.27979 64.3997 7.49298C65.3328 8.03165 66.1556 8.58235 66.8808 9.13678C66.8668 14.083 66.8527 19.0289 66.8387 23.9751C66.1134 23.4209 65.2908 22.87 64.3577 22.3313C63.9887 22.1182 63.6015 21.9067 63.1972 21.6979C55.5771 17.7626 43.7229 15.7695 27.9683 15.7695C12.9498 15.7695 3.54255 18.1516 2.16557 22.306Z" fill="#E56353"/>
<path d="M38.2458 17.8358C38.227 17.891 38.2183 17.9459 38.2183 18.0006L38.2603 3.16225C38.2605 3.10775 38.2693 3.05281 38.2879 2.99743C38.4455 2.53757 39.2849 2.15671 40.0893 2.21187L40.0472 17.0502C39.2428 16.9951 38.4034 17.3759 38.2458 17.8358Z" fill="#D5D6DB"/>
<path d="M17.9858 17.5482C15.8887 17.6089 13.8075 17.8702 11.8564 18.3204C11.8711 13.3742 11.8851 8.42833 11.8991 3.48207C13.8502 3.03205 15.9311 2.7707 18.028 2.71007C19.1896 2.67658 20.3521 2.77727 21.5069 2.73568C22.2016 2.7092 23.0504 2.68403 23.5565 2.97623C23.6931 3.05503 23.8047 3.15703 23.8813 3.28836C23.9365 3.38423 23.9616 3.48294 23.9614 3.58188L23.9194 18.4202C23.9196 18.3213 23.8945 18.2226 23.8393 18.1267C23.7625 17.9954 23.6511 17.8934 23.5145 17.8146C23.0084 17.5224 22.1596 17.5478 21.4649 17.5741C20.3098 17.6154 19.1476 17.5147 17.9858 17.5482Z" fill="#D5D6DB"/>
<path d="M36.2107 17.4239C35.4418 16.98 34.2911 16.7439 33.2153 16.8557L33.2574 2.01733C34.3332 1.90549 35.4838 2.14144 36.2527 2.58555C36.6229 2.79917 36.9046 3.06118 37.0468 3.35535C37.1263 3.51864 37.1631 3.68477 37.1626 3.85024L37.1206 18.6886C37.121 18.5231 37.0843 18.357 37.0048 18.1937C36.8625 17.8993 36.5808 17.6375 36.2107 17.4239Z" fill="#D5D6DB"/>
<path d="M30.2614 18.8249C30.2565 18.8694 30.2539 18.914 30.2539 18.9587L30.2959 4.12031C30.2962 4.07566 30.2986 4.03123 30.3034 3.98658C30.4071 3.05108 31.6628 2.18278 33.2565 2.01709L33.2145 16.8555C31.621 17.0211 30.3651 17.8897 30.2614 18.8249Z" fill="#D5D6DB"/>
<path d="M39.4555 5.04432L39.4135 19.8827C39.4143 19.5879 39.1637 19.2803 38.8956 19.0144C38.5778 18.6979 38.2164 18.3562 38.2173 18.001L38.2593 3.1626C38.2582 3.51784 38.6198 3.85952 38.9376 4.17602C39.206 4.44196 39.4564 4.74948 39.4555 5.04432Z" fill="#E56353"/>
<path d="M39.4129 19.8823C39.4127 19.9436 39.4018 20.0042 39.3779 20.0638C39.3919 15.1175 39.4059 10.1717 39.42 5.2254C39.4438 5.16586 39.4548 5.10523 39.455 5.04395C39.4425 9.49554 39.4254 15.4309 39.4129 19.8823Z" fill="#D5D6DB"/>
<path d="M38.3644 20.9738C38.3395 21.0237 38.3279 21.0737 38.3276 21.1229L38.3697 6.28453C38.3699 6.23528 38.3815 6.18538 38.4064 6.13547C38.5581 5.83342 39.1023 5.65591 39.3323 5.3718C39.3713 5.32386 39.3999 5.27505 39.4199 5.22559C39.4058 10.1719 39.3918 15.1177 39.3778 20.064C39.3579 20.1134 39.3292 20.1625 39.2903 20.2102C39.0602 20.4943 38.5161 20.672 38.3644 20.9738Z" fill="#D5D6DB"/>
<path d="M37.161 3.84961L37.119 18.688C37.1144 20.2873 33.6204 21.8416 31.3824 20.5493C31.3005 20.5021 31.2199 20.4508 31.1416 20.3957C30.5683 19.996 30.2516 19.4773 30.2529 18.9585L30.295 4.12015C30.2934 4.63889 30.6104 5.15742 31.1836 5.5571C31.262 5.61226 31.3423 5.66348 31.4242 5.71075C33.6624 7.00325 37.1564 5.44897 37.161 3.84961Z" fill="#E56353"/>
<path d="M36.2515 2.58468C36.6216 2.79831 36.9033 3.06031 37.0456 3.35449C37.8931 5.09656 33.8942 7.13631 31.425 5.71052C31.3431 5.66324 31.2626 5.61202 31.1844 5.55687C30.5619 5.12261 30.2417 4.54848 30.3034 3.98596C30.4072 3.05046 31.6629 2.18216 33.2566 2.01625C34.3321 1.90462 35.4826 2.14079 36.2515 2.58468Z" fill="#E56353"/>
<path d="M59.6922 21.7558C58.2735 20.9368 50.8088 17.7842 40.0464 17.0508L40.0884 2.2124C50.8508 2.94587 58.3157 6.09841 59.7343 6.91746C59.8575 6.9886 59.9352 7.04223 59.9656 7.07506C60.0243 7.13853 60.0514 7.20026 60.0512 7.26023L60.0092 22.0986C60.0094 22.0386 59.982 21.9769 59.9236 21.9134C59.8934 21.8808 59.8157 21.8272 59.6922 21.7558Z" fill="#D5D6DB"/>
<path d="M29.0825 21.0058C29.0948 16.6385 29.1073 12.2716 29.1195 7.90404C29.1195 7.90339 29.1195 7.90251 29.1197 7.90186C29.1073 12.2701 29.0948 16.6376 29.0825 21.0058Z" fill="#D5D6DB"/>
<path d="M4.22963 22.3066C3.82842 22.8824 3.62333 23.5108 3.62158 24.1368L3.66361 9.29847C3.66536 8.67247 3.87045 8.04407 4.27166 7.46819C5.44792 5.77099 8.04035 4.51002 10.8981 3.73233C11.227 3.64325 11.5606 3.55986 11.8979 3.48193C11.8839 8.4282 11.8699 13.374 11.8552 18.3203C11.5181 18.398 11.1848 18.4814 10.856 18.5705C7.99832 19.3482 5.4059 20.6094 4.22963 22.3066Z" fill="#D5D6DB"/>
<path d="M23.9599 3.58105L23.9179 18.4194C23.917 18.7464 23.6377 19.0767 23.2415 19.316C22.7254 19.6318 22.028 19.8231 21.3545 20.0087C20.572 20.2258 19.7863 20.441 19.0005 20.6559C17.9663 20.9401 16.9321 21.2244 15.8946 21.5105C13.8399 22.075 11.7544 22.6493 10.0662 23.5314C8.43029 24.3861 7.19317 25.5816 7.18945 26.856L7.23148 12.0176C7.2352 10.7433 8.47231 9.54775 10.1082 8.69302C11.7965 7.81093 13.882 7.23658 15.9366 6.67209C16.9741 6.38601 18.0083 6.10169 19.0425 5.81758C19.8283 5.60242 20.6141 5.38726 21.3966 5.17035C22.0701 4.98474 22.7676 4.79344 23.2835 4.47759C23.6797 4.23814 23.959 3.90806 23.9599 3.58105Z" fill="#E56353"/>
<path d="M18.8718 21.9861C16.7439 22.8425 14.6124 23.697 12.481 24.5516C12.495 19.6053 12.509 14.6595 12.523 9.71318C14.6544 8.85867 16.7859 8.00416 18.9139 7.14768C18.9141 7.14768 18.9141 7.14746 18.9143 7.14746C18.9003 12.0937 18.8863 17.0396 18.8723 21.9858C18.8721 21.9858 18.8718 21.9861 18.8718 21.9861Z" fill="#D5D6DB"/>
<path d="M12.4815 24.5522C11.509 24.9436 10.4468 25.4065 10.4448 26.1463L10.4868 11.308C10.489 10.5682 11.551 10.1054 12.5238 9.71387C12.5095 14.6604 12.4953 19.606 12.4815 24.5522Z" fill="#D5D6DB"/>
<path d="M7.19298 26.979C7.19057 26.9378 7.18926 26.8969 7.18948 26.8559L7.2315 12.0176C7.23128 12.0585 7.2326 12.0994 7.235 12.1406C7.22121 17.0869 7.20699 22.0327 7.19298 26.979Z" fill="#D5D6DB"/>
<path d="M7.19834 27.0983C7.19856 27.0578 7.19594 27.0175 7.19287 26.979C7.20688 22.0327 7.22089 17.0869 7.2349 12.1406C7.23796 12.1791 7.24037 12.2194 7.24037 12.2599C7.22789 16.7115 7.21104 22.6467 7.19834 27.0983Z" fill="#D5D6DB"/>
<path d="M7.24013 12.2605L7.19811 27.0988C7.19767 27.2577 7.15608 27.421 6.93676 27.5044C6.64106 27.6169 6.2451 27.4906 5.97172 27.3564C5.85856 27.3 5.74999 27.2415 5.64515 27.1811C4.27955 26.3927 3.61831 25.269 3.62159 24.1367L3.66362 9.29834C3.66034 10.4306 4.32158 11.5543 5.68717 12.3428C5.79202 12.4034 5.9008 12.4616 6.01374 12.5181C6.28713 12.6523 6.68308 12.7785 6.97879 12.666C7.19811 12.5829 7.23969 12.4194 7.24013 12.2605Z" fill="#E56353"/>
<path d="M25.2402 20.8711C22.6589 20.4785 20.7214 21.2441 18.8721 21.9861C18.8861 17.0399 18.9001 12.094 18.9141 7.14775C20.7632 6.40574 22.701 5.6401 25.2822 6.03277C25.2684 10.9779 25.2544 15.9225 25.2404 20.8676C25.2514 17.0344 25.2623 13.2016 25.273 9.3683C25.2761 8.25638 25.2824 7.14469 25.2824 6.03277C26.305 6.18905 27.2327 6.49155 27.9602 6.91158H27.9604C27.9552 7.48986 27.9572 8.06836 27.9554 8.64665C27.9434 13.0133 27.9307 17.3796 27.9184 21.7462C27.9324 16.8011 27.9464 11.8565 27.9604 6.91158C28.4461 7.19197 28.8427 7.52488 29.1188 7.90158C29.1188 7.90158 29.1188 7.90158 29.119 7.90179V7.90311V7.90355C29.1161 8.93776 29.1131 9.97175 29.1102 11.006C29.1072 12.1198 29.1039 13.2337 29.1008 14.3476C29.0929 17.1447 29.085 19.9418 29.0772 22.7388C29.0912 17.793 29.1052 12.8476 29.1192 7.90179C29.4736 8.38421 29.618 8.88829 29.6167 9.40091L29.5747 24.2393C29.5762 23.7267 29.4315 23.2226 29.0772 22.7399C28.8009 22.3633 28.4043 22.0303 27.9186 21.7499C27.1906 21.3297 26.2628 21.0272 25.2402 20.8711Z" fill="#D5D6DB"/>
<path d="M29.6164 9.40137L29.5743 24.2397C29.5739 24.4024 29.5588 24.5659 29.531 24.73C29.4752 25.0649 29.4472 25.4007 29.4463 25.7362L29.4883 10.8979C29.4892 10.5623 29.5172 10.2263 29.573 9.89166C29.6008 9.72772 29.6159 9.564 29.6164 9.40137Z" fill="#E56353"/>
<path d="M30.0212 28.448C29.6401 27.5607 29.4427 26.649 29.4453 25.7363L29.4874 10.8979C29.4847 11.8107 29.6822 12.7223 30.0632 13.6097V13.6099C30.0494 18.5561 30.0352 23.502 30.0212 28.448C30.0212 28.4482 30.0212 28.4482 30.0212 28.448Z" fill="#D5D6DB"/>
<path d="M30.3032 29.3732C30.2503 29.0595 30.1533 28.7515 30.022 28.4477C30.036 23.5015 30.05 18.5556 30.064 13.6094C30.1951 13.9132 30.2923 14.2211 30.3453 14.5348C30.3687 14.6795 30.3805 14.8259 30.3801 14.9723L30.338 29.8107C30.3385 29.6643 30.3267 29.5181 30.3032 29.3732Z" fill="#D5D6DB"/>
<path d="M30.3802 14.9721L30.3381 29.8104C30.3357 30.679 29.9015 31.5571 28.8846 32.1853C27.1834 33.2333 24.2539 33.316 21.9476 32.7715C19.8273 32.2718 18.1091 31.3472 16.4786 30.4058C16.3381 30.3248 16.1984 30.2436 16.059 30.1624C14.5925 29.3158 13.1295 28.4672 11.6665 27.6186C11.2701 27.3896 10.9278 27.1252 10.708 26.8251C10.5233 26.5747 10.4432 26.3497 10.4439 26.1455L10.4859 11.3071C10.4852 11.5111 10.5653 11.7361 10.7501 11.9865C10.9698 12.2864 11.3119 12.551 11.7085 12.78C13.1715 13.6286 14.6345 14.4772 16.101 15.3238C16.2403 15.4048 16.3801 15.486 16.5206 15.5672C18.1511 16.5086 19.8695 17.4332 21.9896 17.9329C24.2959 18.4774 27.2254 18.3947 28.9266 17.3467C29.9435 16.7187 30.3775 15.8406 30.3802 14.9721Z" fill="#E56353"/>
<path d="M1.99562 23.3476L2.03764 8.50928C2.03195 10.5376 3.82568 12.6888 6.74008 14.3716C8.43728 15.3515 10.5147 16.1725 13.0938 16.7946L13.0517 31.6329C10.4727 31.0109 8.39526 30.1896 6.69805 29.2099C3.78366 27.5272 1.98993 25.3762 1.99562 23.3476Z" fill="#D5D6DB"/>
<path d="M1.99998 23.1846C1.99714 23.2388 1.99582 23.2931 1.99561 23.3476L2.03763 8.50926C2.03785 8.45476 2.03916 8.40047 2.04201 8.34619C2.028 13.2927 2.01399 18.2383 1.99998 23.1846Z" fill="#E56353"/>
<path d="M60.0507 7.25929L60.0087 22.0977C60.0065 22.8894 55.1968 23.3691 54.2724 23.4462C52.6582 23.5804 50.9647 23.5232 49.4903 23.1166C48.6474 22.8856 47.9028 22.5462 47.0802 22.2877C45.4761 21.7825 43.5773 21.5988 41.7794 21.7726C41.0472 21.8418 40.3052 21.972 39.5757 21.8851C39.2605 21.8466 38.9519 21.7475 38.7205 21.6139C38.4833 21.4769 38.327 21.3038 38.3276 21.1226L38.3697 6.28418C38.3692 6.46541 38.5255 6.63855 38.7626 6.77557C38.9939 6.90909 39.3023 7.00824 39.6177 7.04676C40.3473 7.13366 41.0893 7.00342 41.8214 6.93426C43.6193 6.76068 45.5181 6.94411 47.1223 7.44928C47.9448 7.70778 48.6895 8.04726 49.5324 8.27818C51.0065 8.68465 52.7002 8.74199 54.3145 8.60782C55.2388 8.53077 60.0483 8.05099 60.0507 7.25929Z" fill="#E56353"/>
<path d="M59.7345 6.91693C59.8577 6.98807 59.9354 7.04169 59.9658 7.07453C60.7989 7.97631 55.3096 8.52505 54.3152 8.60801C52.701 8.74218 51.0075 8.68505 49.5331 8.27837C48.6902 8.04745 47.9456 7.70797 47.123 7.44947C45.5188 6.94429 43.62 6.76065 41.8222 6.93444C41.09 7.00361 40.348 7.13384 39.6185 7.04695C39.3033 7.00842 38.9947 6.90927 38.7633 6.77575C38.4617 6.60152 38.2907 6.36864 38.4072 6.13531C38.5589 5.83325 39.103 5.65574 39.333 5.37163C39.6443 4.98881 39.3079 4.54273 38.938 4.17567C38.5713 3.81058 38.1465 3.41199 38.2875 2.99743C38.445 2.53756 39.2845 2.15671 40.0888 2.21187C50.8508 2.94534 58.3157 6.09788 59.7345 6.91693Z" fill="#E56353"/>
<path d="M33.7265 25.7202C33.4121 26.2144 33.2635 26.7336 33.2622 27.2546L33.3042 12.4162C33.3058 11.8955 33.4542 11.3763 33.7685 10.8818C33.756 15.3334 34.9765 21.4476 33.7265 25.7202Z" fill="#D5D6DB"/>
<path d="M70.4402 27.7276C69.6461 26.5293 68.4965 25.2436 66.8374 23.9756C66.8514 19.0293 66.8654 14.0835 66.8794 9.13721C68.5388 10.4052 69.6881 11.6909 70.4822 12.8893C70.4684 17.8355 70.4542 22.7814 70.4402 27.7276Z" fill="#E56353"/>
<path d="M44.5824 22.8448C40.4276 21.945 35.253 23.3165 33.7266 25.7203L33.7686 10.8819C35.2951 8.47815 40.4696 7.10643 44.6244 8.00647C46.7257 8.46043 48.5063 9.39789 50.7051 9.65245C54.0667 10.0392 57.603 8.74059 60.8669 9.35039C61.802 9.52397 62.6285 9.84528 63.3276 10.2489C63.8371 10.5431 64.279 10.881 64.6459 11.2371C65.1926 11.7671 65.5969 12.3381 65.9454 12.9221C65.9314 17.8684 65.9174 22.8142 65.9033 27.7605C65.5549 27.1765 65.1508 26.6056 64.6039 26.0755C64.237 25.7194 63.7953 25.3814 63.2855 25.0873C62.5864 24.6837 61.7599 24.3623 60.8249 24.1888C57.5609 23.579 54.0249 24.8776 50.6631 24.4908C48.4642 24.236 46.6839 23.2986 44.5824 22.8448Z" fill="#D5D6DB"/>
<path d="M23.5546 2.97576C23.6911 3.05455 23.8028 3.15655 23.8794 3.28788C24.1169 3.70025 23.799 4.16603 23.2829 4.47794C22.7668 4.79378 22.0694 4.98508 21.396 5.17069C20.6135 5.38782 19.8277 5.60298 19.0419 5.81792C18.0077 6.10203 16.9735 6.38636 15.936 6.67244C13.8813 7.23693 11.7958 7.81127 10.1076 8.69336C8.41917 9.57545 7.15535 10.8209 7.23436 12.1412C7.24903 12.3307 7.25384 12.5614 6.97827 12.666C6.68257 12.7786 6.28661 12.6523 6.01323 12.5181C5.90007 12.4616 5.7915 12.4032 5.68666 12.3428C3.56614 11.1186 3.14392 9.08516 4.27116 7.46785C5.44742 5.77065 8.03985 4.50967 10.8976 3.73199C13.1293 3.1281 15.5667 2.78073 18.0263 2.7096C19.1879 2.67611 20.3504 2.77658 21.505 2.73521C22.1997 2.70894 23.0485 2.68377 23.5546 2.97576Z" fill="#E56353"/>
<path d="M65.9034 27.7605C65.8351 27.5116 65.9052 27.1582 65.9058 26.9001C65.9085 25.9593 65.9111 25.0186 65.9139 24.0778C65.9174 22.8506 65.9209 21.6233 65.9244 20.396C65.9314 17.9047 65.9387 15.4137 65.9457 12.9224C66.1538 13.2713 66.3421 13.6248 66.5288 13.9767C66.5839 14.0798 66.6391 14.1831 66.6936 14.2871C66.6796 19.2334 66.6656 24.1792 66.6515 29.1255C66.597 29.0217 66.5419 28.9182 66.4867 28.8151C66.2998 28.4627 66.1116 28.1092 65.9034 27.7605Z" fill="#D5D6DB"/>
<path d="M66.6514 29.125C66.6301 29.0381 66.652 28.9164 66.6522 28.8271C66.6544 28.0612 66.6566 27.2954 66.6588 26.5293C66.6612 25.664 66.6636 24.7988 66.6662 23.9336C66.6752 20.7178 66.6844 17.5024 66.6936 14.2866C67.0758 15.014 67.4279 15.7593 67.5315 16.5074C67.5175 21.4537 67.5034 26.3995 67.4894 31.3458C67.3857 30.5976 67.0335 29.8523 66.6514 29.125Z" fill="#D5D6DB"/>
<path d="M67.4898 31.3455C67.4828 31.2422 67.4904 31.1036 67.4906 31.0001C67.4911 30.8151 67.4917 30.6302 67.4922 30.4454C67.4924 30.3303 67.4928 30.1766 67.4933 30.0613C67.4935 30.0031 67.4937 29.9256 67.4939 29.8676C67.4952 29.3753 67.4968 28.8828 67.4981 28.3906C67.5092 24.4293 67.5206 20.4686 67.5318 16.5073C67.5521 16.6538 67.5629 16.8002 67.5624 16.9468L67.5204 31.7852C67.5208 31.6383 67.5101 31.4919 67.4898 31.3455Z" fill="#D5D6DB"/>
<path d="M71.8015 30.5648C71.546 29.7287 71.1256 28.7602 70.4409 27.727C70.4549 22.7808 70.4689 17.8349 70.4829 12.8887C71.1676 13.9218 71.5881 14.8903 71.8435 15.7265C71.9707 16.1421 72.0714 16.6182 72.1375 17.1413C72.1235 22.0876 72.1095 27.0334 72.0954 31.9797C72.0293 31.4566 71.9287 30.9805 71.8015 30.5648Z" fill="#E56353"/>
<path d="M27.9596 6.91166C28.4453 7.19205 28.8419 7.52496 29.1182 7.90166C29.585 8.53707 29.6877 9.21013 29.5723 9.89107C29.3648 11.1363 29.5421 12.3955 30.0635 13.6092C30.1946 13.9132 30.2918 14.221 30.3448 14.5348C30.5072 15.5373 30.1145 16.6129 28.9262 17.347C27.225 18.395 24.2956 18.4778 21.9892 17.9332C19.8689 17.4335 18.1507 16.5089 16.5202 15.5675C16.3797 15.4865 16.2401 15.4053 16.1007 15.3241C14.6342 14.4775 13.1712 13.6289 11.7082 12.7803C11.3118 12.5513 10.9694 12.2869 10.7497 11.9868C9.89472 10.8283 11.2813 10.2126 12.5222 9.71333C14.6536 8.85882 16.7851 8.00431 18.9131 7.14783C20.7624 6.40583 22.7001 5.63996 25.2816 6.03285C26.3042 6.18913 27.2318 6.49163 27.9596 6.91166Z" fill="#E56353"/>
<path d="M72.095 31.98C72.0862 31.8366 72.0958 31.6935 72.0963 31.5501C72.0967 31.4072 72.0972 31.264 72.0976 31.1211C72.1107 26.4611 72.1241 21.8016 72.1372 17.1416C72.1959 17.6063 72.2274 18.108 72.2259 18.6374L72.1838 33.4758C72.1851 32.9463 72.1536 32.4447 72.095 31.98Z" fill="#E56353"/>
<path d="M22.1238 22.2824L22.0818 37.1207C20.5529 35.6965 18.9185 34.5957 17.4472 33.746C15.1096 32.3964 13.1825 31.6809 13.0527 31.6323L13.0948 16.7939C13.2248 16.8425 15.1518 17.5581 17.4892 18.9077C18.9605 19.7574 20.5949 20.8583 22.1238 22.2824Z" fill="#D5D6DB"/>
<path d="M67.5615 16.9464L67.5195 31.7848C67.5188 32.0045 67.4932 32.2243 67.4367 32.4436C67.2334 33.2351 66.5157 34.0401 65.3906 34.5158C64.0837 35.0715 63.4785 34.9706 62.6971 34.5195C62.5071 34.4098 62.3068 34.2796 62.0836 34.1329C61.9017 34.0132 61.7132 33.897 61.5184 33.7845C59.4331 32.5806 56.6271 31.8023 53.6849 31.676C48.6719 31.4608 43.4813 33.016 38.7535 32.0096C37.6827 31.7815 36.7284 31.4131 35.928 30.9511C34.2588 29.9873 33.2585 28.6156 33.2622 27.2544L33.3042 12.416C33.3003 13.7772 34.3008 15.149 35.97 16.1127C36.7702 16.5748 37.7245 16.9431 38.7955 17.1712C43.5233 18.1776 48.7139 16.6225 53.7269 16.8376C56.6691 16.9639 59.4752 17.7423 61.5604 18.9461C61.7552 19.0586 61.9439 19.1748 62.1256 19.2946C62.3491 19.4412 62.5493 19.5714 62.7391 19.6811C63.5203 20.1322 64.1255 20.2331 65.4327 19.6774C66.5577 19.2018 67.2754 18.3965 67.4788 17.6052C67.5352 17.3859 67.5608 17.1662 67.5615 16.9464Z" fill="#E56353"/>
<path d="M63.3282 10.2487C63.8377 10.5429 64.2797 10.8808 64.6465 11.2369C65.5201 12.0836 66.0296 13.0348 66.5291 13.9762C67.1593 15.1545 67.7931 16.3859 67.4797 17.6055C67.2764 18.397 66.5586 19.202 65.4336 19.6776C64.1267 20.2334 63.5215 20.1325 62.7401 19.6814C62.5501 19.5717 62.3498 19.4415 62.1265 19.2948C61.9449 19.1751 61.7562 19.0589 61.5614 18.9463C59.4761 17.7425 56.67 16.9642 53.7279 16.8379C48.7148 16.6227 43.5243 18.1779 38.7965 17.1714C37.7257 16.9434 36.7714 16.575 35.9709 16.1129C33.6633 14.7806 32.6337 12.6682 33.7694 10.8819C35.2959 8.47815 40.4705 7.10643 44.6253 8.00647C46.7265 8.46043 48.5071 9.39767 50.706 9.65245C54.0676 10.0392 57.6036 8.74059 60.8677 9.35039C61.8026 9.52353 62.6291 9.84506 63.3282 10.2487Z" fill="#E56353"/>
<path d="M64.6122 37.0126C64.5941 36.9956 64.5755 36.9785 64.5566 36.9614C64.5706 32.0151 64.5847 27.0693 64.5987 22.123C64.6177 22.1399 64.6363 22.157 64.6543 22.174C64.6405 27.1205 64.6262 32.0664 64.6122 37.0126Z" fill="#D5D6DB"/>
<path d="M32.9829 32.6947C29.4603 32.7537 26.8352 34.8852 26.8705 36.9239L26.9125 22.0855C26.8773 20.0468 29.5023 17.9154 33.025 17.8563C37.0416 17.7911 39.9274 20.1928 43.8315 20.7554C46.505 21.1382 48.9851 20.5087 50.911 19.4725C52.3445 18.7027 53.6249 17.9824 55.7034 18.6397L55.6614 33.478C53.5829 32.8209 52.3024 33.5413 50.869 34.3109C48.9431 35.3468 46.4627 35.9766 43.7895 35.5937C39.8853 35.0312 36.9996 32.6294 32.9829 32.6947Z" fill="#D5D6DB"/>
<path d="M64.6118 37.0132C64.6258 32.0669 64.6398 27.1211 64.6538 22.1748C64.8353 22.3464 64.9725 22.5298 65.0715 22.7218C65.0575 27.6681 65.0434 32.6139 65.0294 37.5602C64.9307 37.3682 64.7933 37.1848 64.6118 37.0132Z" fill="#D5D6DB"/>
<path d="M65.0545 37.6097C65.0466 37.5928 65.0383 37.5762 65.0298 37.5596C65.0438 32.6133 65.0578 27.6675 65.0718 22.7212C65.0804 22.7378 65.0887 22.7545 65.0965 22.7713C65.0825 27.7178 65.0683 32.6634 65.0545 37.6097Z" fill="#D5D6DB"/>
<path d="M60.8728 36.3331C59.3242 36.6045 58.3502 37.292 57.7627 38.102C57.7767 33.1558 57.7907 28.2099 57.8047 23.2637C58.3922 22.4536 59.3662 21.7661 60.9148 21.4947C62.1031 21.2854 63.3665 21.3592 64.221 21.8526C64.3578 21.9316 64.4841 22.0211 64.5979 22.1222C64.5981 22.1224 64.5981 22.1224 64.5983 22.1227C64.5843 27.0689 64.5703 32.0148 64.5563 36.961C64.5561 36.9608 64.5561 36.9608 64.5559 36.9606C64.4421 36.8597 64.3158 36.7699 64.179 36.6909C63.3245 36.1978 62.0611 36.1238 60.8728 36.3331Z" fill="#D5D6DB"/>
<path d="M57.7373 38.1388C57.7513 33.1925 57.7653 28.2467 57.7793 23.3004C57.7881 23.2882 57.7968 23.2759 57.8056 23.2637C57.7916 28.2099 57.7776 33.1558 57.7636 38.102C57.7546 38.1143 57.7458 38.1266 57.7373 38.1388Z" fill="#D5D6DB"/>
<path d="M65.0552 37.6094C65.0462 37.5693 65.0554 37.5137 65.0556 37.4728C65.0558 37.4294 65.0559 37.3714 65.0561 37.3281C65.0563 37.2272 65.0567 37.1263 65.0569 37.0254C65.0576 36.831 65.058 36.6367 65.0587 36.4421C65.0716 31.885 65.0845 27.3283 65.0974 22.771C65.1909 22.9671 65.2454 23.172 65.2662 23.3821C65.2522 28.3284 65.2382 33.2742 65.2242 38.2205C65.2029 38.0104 65.1487 37.8055 65.0552 37.6094Z" fill="#D5D6DB"/>
<path d="M65.2327 38.3482C65.2311 38.3053 65.2283 38.2627 65.2241 38.2202C65.2381 33.2739 65.2521 28.3281 65.2661 23.3818C65.2703 23.4243 65.2731 23.467 65.2747 23.5099C65.2607 28.4562 65.2464 33.402 65.2327 38.3482Z" fill="#D5D6DB"/>
<path d="M65.2332 38.3488C65.2257 37.8877 65.2358 37.4267 65.2371 36.9655C65.2384 36.5043 65.2398 36.0434 65.2411 35.5822C65.2524 31.5581 65.2638 27.5344 65.2752 23.5103C65.2761 23.5372 65.2765 23.5643 65.2765 23.5912L65.2345 38.4296C65.2345 38.4027 65.2341 38.3758 65.2332 38.3488Z" fill="#D5D6DB"/>
<path d="M57.7371 38.1389C57.5626 38.3854 57.4234 38.6428 57.314 38.903C57.328 33.9568 57.3422 29.0107 57.3562 24.0645C57.4654 23.8044 57.6046 23.5472 57.7791 23.3008C57.7662 27.8739 57.753 32.4463 57.7401 37.0191C57.7397 37.2056 57.739 37.3921 57.7386 37.5786C57.7386 37.6007 57.7384 37.63 57.7384 37.6519C57.7384 37.6738 57.7382 37.7031 57.7382 37.725C57.7379 37.8415 57.7375 37.9579 57.7371 38.0746C57.7371 38.0938 57.7428 38.1205 57.7371 38.1389Z" fill="#D5D6DB"/>
<path d="M57.0823 39.6293C56.9948 40.0235 56.9508 40.4208 56.9497 40.8182L56.9917 25.9799C56.9928 25.5824 57.0368 25.1849 57.1244 24.7909C57.1782 24.5508 57.2539 24.3065 57.3557 24.0645C57.3417 29.0107 57.3277 33.9568 57.3135 38.903C57.2119 39.1451 57.1362 39.3894 57.0823 39.6293Z" fill="#D5D6DB"/>
<path d="M51.897 42.0406L51.939 27.2022C51.9427 25.8966 52.6118 24.5934 53.2764 23.3322C54.0888 21.7869 55.1395 20.2179 55.7031 18.6392L55.6611 33.4775C55.0977 35.0563 54.0468 36.6253 53.2343 38.1706C52.5698 39.4317 51.9007 40.7352 51.897 42.0406Z" fill="#E56353"/>
<path d="M52.0005 42.9113C51.9283 42.6215 51.8961 42.3312 51.897 42.041L51.939 27.2026C51.9381 27.4927 51.9703 27.7829 52.0425 28.0729V28.0731C52.0285 33.0194 52.0145 37.9652 52.0005 42.9115C52.0005 42.9115 52.0005 42.9115 52.0005 42.9113Z" fill="#D5D6DB"/>
<path d="M52.6834 45.3998C52.6859 44.6027 52.2026 43.7221 52.001 42.9116C52.015 37.9653 52.029 33.0195 52.043 28.0732C52.2444 28.8838 52.7277 29.7643 52.7255 30.5615C52.713 35.0131 52.6961 40.9482 52.6834 45.3998Z" fill="#D5D6DB"/>
<path d="M52.7262 30.5616L52.6841 45.4C52.6828 45.8859 52.5009 46.3409 51.9651 46.7303C50.7267 47.6321 48.3481 47.5651 46.408 47.3027C40.978 46.5681 35.9168 44.9379 31.9684 42.6583C31.769 42.5431 31.572 42.426 31.3783 42.3076C28.9476 40.8256 26.9031 38.9644 26.8711 36.9238L26.9131 22.0854C26.9451 24.1261 28.9896 25.987 31.4203 27.4693C31.614 27.5877 31.811 27.7048 32.0104 27.8199C35.9586 30.0993 41.0198 31.7298 46.45 32.4643C48.3901 32.7268 50.7687 32.794 52.0071 31.892C52.5432 31.5026 52.7249 31.0475 52.7262 30.5616Z" fill="#E56353"/>
<path d="M65.2751 23.5913L65.2331 38.4297C65.2293 39.7484 64.0154 41.2333 62.919 42.1299C62.0873 42.8082 59.4542 44.8197 58.1052 44.0409C57.892 43.9179 57.7108 43.7251 57.574 43.4462C57.1577 42.5921 56.9473 41.705 56.9497 40.8188L56.9918 25.9804C56.9891 26.8666 57.1997 27.7535 57.616 28.6078C57.7528 28.8867 57.934 29.0793 58.1472 29.2025C59.4962 29.9813 62.1295 27.9698 62.9611 27.2915C64.0572 26.395 65.2714 24.9101 65.2751 23.5913Z" fill="#E56353"/>
<path d="M66.6819 29.7739L66.6399 44.6123C63.3663 47.1443 58.7477 48.6167 52.9134 48.9857C52.0416 49.0409 51.1626 49.0687 50.3006 49.0667C42.0202 49.0667 35.3513 46.4988 30.5801 43.7442C25.1114 40.5868 22.1355 37.1843 22.0806 37.1211L22.1226 22.2827C22.1775 22.346 25.1534 25.7485 30.6222 28.9058C35.3933 31.6604 42.0622 34.2284 50.3427 34.2284C51.2046 34.2303 52.0837 34.2027 52.9555 34.1474C58.7897 33.7783 63.4083 32.3061 66.6819 29.7739Z" fill="#D5D6DB"/>
<path d="M72.2262 18.6372L72.1842 33.4756C72.1746 36.8588 70.8202 41.3785 66.6406 44.6127L66.6826 29.7743C70.8622 26.5401 72.2166 22.0204 72.2262 18.6372Z" fill="#D5D6DB"/>
<path d="M64.2221 21.8536C64.3589 21.9326 64.4852 22.0221 64.5991 22.1233C66.2735 23.6132 64.5019 26.0327 62.9621 27.2919C62.1303 27.9702 59.4972 29.9817 58.1482 29.203C57.935 29.0799 57.7538 28.8871 57.617 28.6083C57.0137 27.3709 56.8428 26.0644 57.1254 24.7914C57.4311 23.4298 58.438 21.9298 60.916 21.4955C62.104 21.2865 63.3674 21.3602 64.2221 21.8536Z" fill="#E56353"/>
<path d="M55.7041 18.6399C55.1407 20.2187 54.0899 21.7876 53.2774 23.3329C52.4649 24.8743 51.646 26.4787 52.0435 28.0732C52.3677 29.3777 53.422 30.8637 52.007 31.892C50.7686 32.7938 48.39 32.7268 46.4498 32.4644C41.0198 31.7298 35.9586 30.0996 32.0102 27.82C31.8108 27.7048 31.6139 27.5877 31.4201 27.4693C28.9895 25.9873 26.9449 24.1261 26.913 22.0855C26.8775 20.0468 29.5027 17.9154 33.0254 17.8563C37.0421 17.7911 39.9278 20.1928 43.832 20.7554C46.5054 21.1382 48.9855 20.5087 50.9115 19.4725C52.3452 18.7031 53.6256 17.9828 55.7041 18.6399Z" fill="#E56353"/>
<path d="M66.6816 29.774C63.4081 32.306 58.7895 33.7784 52.9552 34.1474C52.0834 34.2026 51.2044 34.2304 50.3424 34.2284C42.0619 34.2284 35.3931 31.6605 30.6219 28.9059C25.1532 25.7485 22.1773 22.346 22.1223 22.2828C20.5934 20.8585 18.9591 19.7577 17.4878 18.9081C15.1501 17.5584 13.2231 16.8429 13.0933 16.7943C10.5142 16.172 8.43681 15.351 6.73961 14.3713C3.31959 12.3968 1.44269 9.77722 2.20615 7.46759C3.58313 3.31323 12.9904 0.931152 28.0087 0.931152C43.7631 0.931152 55.6174 2.92428 63.2376 6.85954C63.6418 7.06813 64.029 7.27979 64.3983 7.49298C69.306 10.3262 71.1617 13.4964 71.8429 15.7266C72.8042 18.8704 72.2519 25.4638 66.6816 29.774ZM33.7683 10.8817C32.6323 12.668 33.662 14.7804 35.9696 16.1127C36.7698 16.5748 37.7242 16.9432 38.7951 17.1712C43.523 18.1776 48.7135 16.6225 53.7265 16.8377C56.6687 16.964 59.4748 17.7423 61.5601 18.9461C61.7549 19.0586 61.9435 19.1749 62.1252 19.2946C62.3487 19.4412 62.549 19.5715 62.7387 19.6811C63.5201 20.1323 64.1251 20.2332 65.4323 19.6774C66.5573 19.2018 67.275 18.3965 67.4784 17.6053C67.7918 16.3857 67.1579 15.1542 66.5278 13.976C66.0285 13.0346 65.5187 12.0833 64.6452 11.2367C64.2783 10.8806 63.8366 10.5426 63.3269 10.2485C62.6278 9.84485 61.8013 9.52354 60.8662 9.34997C57.6023 8.74016 54.0662 10.0388 50.7044 9.65202C48.5056 9.39746 46.7252 8.46 44.6237 8.00604C40.4694 7.10644 35.2948 8.47794 33.7683 10.8817ZM46.4485 32.464C48.3887 32.7264 50.7673 32.7936 52.0057 31.8916C53.4208 30.8633 52.3662 29.3773 52.042 28.0728C51.6445 26.4783 52.4636 24.8736 53.2759 23.3323C54.0883 21.787 55.139 20.2181 55.7026 18.6393C53.6241 17.9822 52.3436 18.7025 50.9102 19.4721C48.9843 20.5081 46.5039 21.1378 43.8307 20.755C39.9265 20.1924 37.0408 17.7907 33.0241 17.8559C29.5015 17.915 26.8764 20.0465 26.9117 22.0851C26.9436 24.1257 28.9882 25.9867 31.4189 27.4689C31.6126 27.5873 31.8093 27.7044 32.009 27.8196C35.9571 30.0992 41.0183 31.7294 46.4485 32.464ZM21.9888 17.9332C24.2949 18.4777 27.2247 18.395 28.9258 17.347C30.1141 16.6129 30.5068 15.5373 30.3444 14.5348C30.2914 14.2209 30.1944 13.9132 30.0631 13.6092C29.542 12.3955 29.3644 11.1363 29.5719 9.89104C29.6875 9.2101 29.5849 8.53726 29.1178 7.90185C28.8415 7.52516 28.4449 7.19224 27.9592 6.91185C27.2314 6.4916 26.3038 6.18911 25.281 6.03305C22.6995 5.64037 20.7618 6.40602 18.9124 7.14802C16.7845 8.0045 14.653 8.85901 12.5216 9.71353C11.2807 10.2128 9.89412 10.8285 10.7491 11.987C10.9688 12.2869 11.3109 12.5515 11.7075 12.7805C13.1705 13.6291 14.6335 14.4777 16.1 15.3243C16.2393 15.4053 16.3791 15.4865 16.5194 15.5677C18.1503 16.5089 19.8687 17.4335 21.9888 17.9332ZM40.0874 2.21204C39.283 2.15689 38.4436 2.53774 38.286 2.99761C38.1453 3.41195 38.5701 3.81075 38.9365 4.17584C39.3067 4.54291 39.6431 4.98898 39.3316 5.37181C39.1016 5.65591 38.5574 5.83364 38.4058 6.13548C38.2893 6.36881 38.4603 6.6017 38.7619 6.77593C38.9932 6.90944 39.3016 7.0086 39.617 7.04712C40.3466 7.13402 41.0886 7.00378 41.8207 6.93461C43.6186 6.76104 45.5174 6.94447 47.1216 7.44964C47.9441 7.70814 48.6888 8.04762 49.5317 8.27854C51.0058 8.685 52.6995 8.74235 54.3138 8.60818C55.3082 8.52522 60.7973 7.97649 59.9644 7.0747C59.9342 7.04187 59.8565 6.98824 59.7331 6.9171C58.3147 6.09805 50.8498 2.94551 40.0874 2.21204ZM6.97819 12.666C7.25354 12.5614 7.24894 12.3305 7.23428 12.1411C7.15526 10.8208 8.41908 9.57563 10.1075 8.69332C11.7958 7.81123 13.8813 7.23689 15.9359 6.6724C16.9734 6.3861 18.0076 6.10199 19.0418 5.81789C19.8276 5.60273 20.6134 5.38757 21.3959 5.17044C22.0694 4.98483 22.7669 4.79352 23.2828 4.47768C23.799 4.16577 24.1166 3.7 23.8793 3.28762C23.8025 3.1563 23.6911 3.0543 23.5545 2.9755C23.0484 2.68329 22.1996 2.70868 21.5049 2.73495C20.3501 2.77632 19.1878 2.67585 18.026 2.70934C15.5664 2.78048 13.1287 3.12784 10.8972 3.73173C8.03976 4.50942 5.44712 5.77039 4.27107 7.46759C3.14383 9.0849 3.56606 11.1181 5.68657 12.3425C5.79142 12.4031 5.9002 12.4614 6.01314 12.5178C6.28652 12.652 6.68248 12.7783 6.97819 12.666ZM58.1468 29.2025C59.4958 29.9812 62.1289 27.9697 62.9607 27.2914C64.5005 26.0322 66.2721 23.6127 64.5977 22.1228C64.4839 22.0219 64.3576 21.9321 64.2208 21.8531C63.3663 21.3597 62.1029 21.286 60.9146 21.4952C58.4366 21.9295 57.4298 23.4293 57.124 24.7909C56.8417 26.0639 57.0124 27.3702 57.6156 28.6078C57.7524 28.8866 57.9336 29.0792 58.1468 29.2025ZM33.255 2.01658C31.6616 2.18228 30.4057 3.05079 30.3019 3.98607C30.2404 4.54859 30.5604 5.12272 31.1829 5.55698C31.2613 5.61214 31.3416 5.66336 31.4237 5.71063C33.8931 7.13642 37.8918 5.09667 37.0443 3.3546C36.902 3.06021 36.6203 2.79842 36.2502 2.5848C35.4815 2.14091 34.3311 1.90473 33.255 2.01658Z" fill="white"/>
<path d="M53.157 34.5461C43.0145 35.1878 35.0256 32.2332 29.5124 29.0502C23.7657 25.7324 20.8622 22.3446 20.7094 22.1662C19.3349 20.894 17.7813 19.8491 16.3841 19.0428C14.1161 17.7334 12.3543 17.0868 12.2615 17.0529C9.78357 16.4709 7.51947 15.5801 5.65089 14.501C2.4793 12.6698 0.427295 10.8255 0.433643 8.50977L0.391617 23.3479C0.385051 25.6637 2.41539 28.0352 5.58697 29.8664C7.45578 30.9453 9.71988 31.8363 12.1976 32.4183C12.2904 32.4523 14.0522 33.0988 16.3202 34.4082C17.7171 35.2148 19.2707 36.2597 20.6455 37.5316C20.7983 37.71 23.7018 41.0978 29.4485 44.4156C34.9617 47.5986 42.9506 50.5531 53.0931 49.9115C70.133 48.8302 73.76 39.2461 73.7764 33.4786L73.8185 18.6402C73.8018 24.4077 70.1969 33.4648 53.157 34.5461Z" fill="#D15241"/>
<path d="M73.423 15.5648C74.742 19.879 73.8492 33.7586 53.1345 35.0732C42.9922 35.715 35.0031 32.7603 29.4901 29.5776C23.7434 26.2598 20.84 22.872 20.6872 22.6936C19.3124 21.4214 17.759 20.3765 16.3619 19.5701C14.0938 18.2608 12.3321 17.6142 12.2393 17.5803C9.7613 16.9983 7.4972 16.1072 5.62839 15.0284C-3.50441 9.75552 -3.17346 0.00175105 28.0037 0C48.0217 0 59.2268 3.19588 65.5284 6.83455C71.0506 10.023 72.8071 13.5518 73.423 15.5648ZM52.9555 34.1476C58.7897 33.7786 63.4083 32.3062 66.6819 29.7741C72.2522 25.4639 72.8045 18.8704 71.8429 15.7266C71.1618 13.4964 69.3061 10.3264 64.3983 7.49295C64.0293 7.27976 63.6421 7.06832 63.2378 6.8595C55.6177 2.92425 43.7636 0.931119 28.009 0.931119C12.9905 0.931119 3.58317 3.3132 2.20619 7.46756C1.44274 9.77719 3.31964 12.3968 6.73965 14.3713C8.43685 15.3512 10.5143 16.1722 12.8372 16.7175C13.2231 16.8429 15.1501 17.5584 17.4878 18.908C18.9591 19.7575 20.5935 20.8585 22.0436 22.2017C22.1773 22.346 25.1534 25.7485 30.622 28.9058C35.3931 31.6604 42.062 34.2284 50.3425 34.2284C51.2049 34.2305 52.0837 34.203 52.9555 34.1476Z" fill="#E56353"/>
</svg>
