<svg width="41" height="80" viewBox="0 0 41 80" fill="none" xmlns="http://www.w3.org/2000/svg">
<path d="M20.0778 0H20.0945H20.1125C29.4327 0.0154986 34.7438 5.6638 34.1077 52.7702L20.1125 68.4845V68.5217L20.0945 68.5013L20.0778 68.5217V68.4845L6.08256 52.7702C5.4465 5.6638 10.7588 0.0154986 20.0778 0Z" fill="#FFCE54"/>
<path d="M34.1374 41.2758C34.1337 40.8493 34.1288 40.424 34.1219 40.0062H28.367V36.1973H34.0513C34.0407 35.767 34.0283 35.3479 34.0165 34.9276H28.3682V31.1187H33.882C33.8634 30.6909 33.8442 30.2656 33.8237 29.849H28.3682V26.0401H33.5975C33.5683 25.6173 33.5417 25.1809 33.51 24.7705H28.3682V20.9615H33.1598C33.1151 20.5375 33.0724 20.0998 33.0253 19.6919H28.367V15.883H32.4958C32.4245 15.4465 32.352 15.0262 32.2776 14.6133H28.367V10.8044H31.4469C31.3316 10.3642 31.2119 9.94141 31.0917 9.53473H28.367V5.7258H29.6162C29.3862 5.27138 29.1525 4.84486 28.9076 4.45615H28.3658V3.66821C27.9616 3.12575 27.5388 2.65708 27.0961 2.25721V4.45615H20.7467V0.0142587C20.5359 0.00743932 20.3263 0 20.1118 0C20.105 0 20.1001 0 20.0939 0C20.0889 0 20.0839 0 20.0771 0C19.8744 0 19.676 0.00743932 19.4758 0.0142587V4.45615H13.1263V2.22436C12.683 2.6205 12.2602 3.08422 11.8567 3.62109V4.45615H11.2838C11.0402 4.84486 10.8052 5.27138 10.5752 5.7258H11.8591V9.53473H9.10102C8.97951 9.94141 8.8611 10.3642 8.74579 10.8044H11.8591V14.6133H7.91569C7.84067 15.0262 7.76814 15.4465 7.69685 15.883H11.8591V19.6919H7.16741C7.12092 20.0998 7.07752 20.5375 7.03289 20.9615H11.8604V24.7705H6.6851C6.65348 25.1809 6.62682 25.6173 6.59769 26.0401H11.8616V29.849H6.37017C6.34971 30.2656 6.33111 30.6909 6.31189 31.1187H11.8591V34.9276H6.17612C6.16311 35.3479 6.15071 35.767 6.14141 36.1973H11.8591V40.0062H6.06949C6.06329 40.424 6.05895 40.8493 6.054 41.2758H11.8579V45.0848H6.03354C6.0323 45.5001 6.03478 45.9316 6.03664 46.3544H11.8579V50.1633H6.05647C6.06019 50.5837 6.06453 51.0052 6.06949 51.433H11.8591V55.2419H8.28641L9.41719 56.5116H11.8604V59.2542L13.13 60.6801V56.5116H19.4795V67.8082L20.0808 68.4833V68.5199L20.0976 68.5L20.1156 68.5199V68.4833L20.7504 67.7697V56.5103H27.0998V58.4328C27.0998 58.783 27.3844 59.0676 27.7347 59.0676C28.0849 59.0676 28.3695 58.783 28.3695 58.4328V56.5103H30.778L31.9094 55.2407H28.3695V51.4317H34.0953C34.1058 51.4317 34.1145 51.4268 34.1244 51.4255C34.1288 51.0027 34.1337 50.5861 34.1374 50.1714C34.1219 50.1702 34.1108 50.1621 34.0953 50.1621H28.3695V46.3532H34.1579C34.1591 45.9304 34.1616 45.4989 34.1604 45.0835H28.3695V41.2746H34.1374V41.2758ZM19.4783 55.2419H13.1288V51.433H19.4783V55.2419ZM19.4783 50.1633H13.1288V46.3544H19.4783V50.1633ZM19.4783 45.0848H13.1288V41.2758H19.4783V45.0848ZM19.4783 40.0062H13.1288V36.1973H19.4783V40.0062ZM19.4783 34.9276H13.1288V31.1187H19.4783V34.9276ZM19.4783 29.849H13.1288V26.0401H19.4783V29.849ZM19.4783 24.7705H13.1288V20.9615H19.4783V24.7705ZM19.4783 19.6919H13.1288V15.883H19.4783V19.6919ZM19.4783 14.6133H13.1288V10.8044H19.4783V14.6133ZM19.4783 9.53473H13.1288V5.7258H19.4783V9.53473ZM27.0974 55.2419H20.7479V51.433H27.0974V55.2419ZM27.0974 50.1633H20.7479V46.3544H27.0974V50.1633ZM27.0974 45.0848H20.7479V41.2758H27.0974V45.0848ZM27.0974 40.0062H20.7479V36.1973H27.0974V40.0062ZM27.0974 34.9276H20.7479V31.1187H27.0974V34.9276ZM27.0974 29.849H20.7479V26.0401H27.0974V29.849ZM27.0974 24.7705H20.7479V20.9615H27.0974V24.7705ZM27.0974 19.6919H20.7479V15.883H27.0974V19.6919ZM27.0974 14.6133H20.7479V10.8044H27.0974V14.6133ZM27.0974 9.53473H20.7479V5.7258H27.0974V9.53473Z" fill="#F6BB42"/>
<path d="M18.6616 64.4345C20.7942 69.7809 22.0044 72.4968 23.6044 80L26.4611 79.7719C35.9835 77.7781 43.0297 62.3639 39.4874 30.4839C39.4874 30.4839 23.9218 41.4426 19.8854 59.6857L18.6616 64.4345Z" fill="#8CC152"/>
<path d="M0.750405 35.562C-3.05853 69.8424 8.4966 79.9996 15.9861 79.9996H23.604C22.0039 72.4964 20.0108 66.1606 17.8776 60.8167C10.2473 41.7596 0.750405 35.562 0.750405 35.562Z" fill="#A0D468"/>
<path d="M16.3033 75.5562C16.4515 75.5562 16.6015 75.5047 16.7224 75.3975C16.9865 75.1656 17.0113 74.7658 16.7795 74.5029C5.32601 61.5015 5.19396 48.3909 5.19396 48.2588C5.19396 47.9086 4.90941 47.624 4.55914 47.624C4.20825 47.624 3.92432 47.9086 3.92432 48.2588C3.92432 48.8137 4.05884 61.9838 15.8272 75.3405C15.9512 75.483 16.1267 75.5562 16.3033 75.5562Z" fill="#8CC152"/>
<path d="M25.1918 71.7474C25.3629 71.7474 25.5334 71.6792 25.6574 71.5447C34.5157 61.9716 35.9249 46.4308 35.9813 45.7731C36.0104 45.4253 35.7513 45.1172 35.4023 45.088C35.0886 45.0601 34.7457 45.3162 34.7166 45.6664C34.7023 45.8226 33.2833 61.4347 24.7256 70.6811C24.4869 70.939 24.5037 71.3414 24.7597 71.5788C24.8831 71.6916 25.0368 71.7474 25.1918 71.7474Z" fill="#7EAF3E"/>
</svg>
