<svg width="36" height="71" viewBox="0 0 36 71" fill="none" xmlns="http://www.w3.org/2000/svg">
<path d="M25.1596 8.98242L31.3658 21.8847C31.3658 21.8847 34.2239 27.5193 34.2239 32.1739C34.2239 36.8285 34.2239 62.3065 34.2239 62.3065C34.2239 62.3065 34.7138 69.2476 29.0793 69.2476C23.4447 69.2476 17.7285 69.2476 17.7285 69.2476C17.7285 69.2476 12.094 69.2476 6.37776 69.2476C0.661543 69.2476 1.23316 62.3065 1.23316 62.3065C1.23316 62.3065 1.23316 36.8285 1.23316 32.1739C1.23316 27.5193 4.09127 21.8847 4.09127 21.8847L10.2974 8.98242H25.1596Z" fill="#F4F5F7"/>
<path d="M6.37751 62.3065C6.37751 62.3065 6.37751 36.8285 6.37751 32.1739C6.37751 27.5193 9.23562 21.8847 9.23562 21.8847L15.4418 8.98242H10.2972L4.09103 21.8847C4.09103 21.8847 1.23292 27.5193 1.23292 32.1739C1.23292 36.8285 1.23292 62.3065 1.23292 62.3065C1.23292 62.3065 0.742961 69.2476 6.37751 69.2476C8.17404 69.2476 9.97056 69.2476 11.5221 69.2476C5.88755 69.2476 6.37751 62.3065 6.37751 62.3065Z" fill="white"/>
<path d="M34.1419 34.3789H1.64111V49.6494H34.1419V34.3789Z" fill="#50C1E9"/>
<path d="M6.13242 34.3789H1.64111V49.6494H6.13242V34.3789Z" fill="#87D3E8"/>
<path d="M29.0789 5.14467C29.0789 7.26783 27.364 8.9827 25.2408 8.9827H10.297C8.17385 8.9827 6.45898 7.26783 6.45898 5.14467C6.45898 3.0215 8.17385 1.30664 10.297 1.30664H25.2408C27.364 1.30664 29.0789 3.0215 29.0789 5.14467Z" fill="#FFCE55"/>
<path d="M12.0937 5.14467C12.0937 3.0215 13.8085 1.30664 15.9317 1.30664H10.2155C8.09231 1.30664 6.37744 3.0215 6.37744 5.14467C6.37744 7.26783 8.09231 8.9827 10.2155 8.9827H15.9317C13.8085 8.9827 12.0937 7.26783 12.0937 5.14467Z" fill="#FFDE94"/>
<path d="M35.4486 32.1741C35.4486 27.2745 32.5905 21.5583 32.5089 21.3133L27.0376 9.88088C28.9975 9.14594 30.304 7.26776 30.304 5.14459C30.304 2.36815 28.0175 0 25.1594 0H10.2973C7.52084 0 5.15269 2.28649 5.15269 5.14459C5.15269 7.34942 6.54092 9.14594 8.4191 9.88088L2.94787 21.3133C2.86621 21.5583 0.00809856 27.2745 0.00809856 32.1741V34.4606V49.6494V62.1434C0.00809856 62.3067 -0.236882 66.2264 1.96794 68.5946C3.11119 69.8195 4.58107 70.3911 6.37759 70.3911H29.0791C30.8757 70.3911 32.4272 69.8195 33.4888 68.5946C35.6936 66.2264 35.4486 62.3067 35.4486 62.2251V32.1741ZM7.6025 5.14459C7.6025 3.67471 8.74574 2.53147 10.2156 2.53147H25.1594C26.6293 2.53147 27.7726 3.67471 27.7726 5.14459C27.7726 6.61448 26.6293 7.75772 25.1594 7.75772H10.2973C8.8274 7.75772 7.6025 6.61448 7.6025 5.14459ZM2.4579 32.1741C2.4579 27.9278 5.15269 22.4566 5.15269 22.3749L11.0322 10.2075H24.4245L30.304 22.3749C30.304 22.4566 32.9988 27.8461 32.9988 32.0925V33.154H2.4579V32.1741ZM2.4579 35.7672H32.9172V48.5062H2.4579V35.7672ZM31.6923 67.043C31.039 67.6963 30.2224 68.0229 29.0791 68.0229H6.37759C5.23435 68.0229 4.41775 67.6963 3.76447 67.043C2.29458 65.4098 2.4579 62.4701 2.4579 62.3067V50.956H32.9172V62.3884C32.9988 62.4701 33.1621 65.4098 31.6923 67.043Z" fill="#56596A"/>
<path d="M10.4605 38.1353L9.56219 40.83C9.31721 41.7283 8.99057 42.7899 8.74559 43.7698C8.58227 42.7899 8.33729 41.81 8.09231 40.83L7.2757 38.1353H4.8259L4.33594 46.3013H6.0508L6.21412 43.1982C6.29578 42.2183 6.29578 40.9117 6.37744 39.8501C6.54076 40.9117 6.8674 42.0549 7.11238 43.0349L8.01065 46.2196H9.48053L10.4605 43.0349C10.7871 42.0549 11.1137 40.9117 11.3587 39.8501C11.3587 41.075 11.3587 42.2183 11.4404 43.1982L11.522 46.3013H13.3186L12.9103 38.1353H10.4605Z" fill="#56596A"/>
<path d="M16.6663 38.1353H14.7881V46.3013H16.6663V38.1353Z" fill="#56596A"/>
<path d="M20.0964 38.1353H18.2183V46.3013H23.3629V44.7497H20.0964V38.1353Z" fill="#56596A"/>
<path d="M30.9571 38.1353H28.6706L26.7925 40.83C26.6291 41.1567 26.3842 41.4017 26.2208 41.7283V38.1353H24.4243V46.3013H26.2208V43.6065L26.9558 42.7082L28.9156 46.2196H31.0388L28.1807 41.565L30.9571 38.1353Z" fill="#56596A"/>
</svg>
