<svg width="86" height="86" viewBox="0 0 86 86" fill="none" xmlns="http://www.w3.org/2000/svg">
<path d="M33.1964 81.6506C30.6999 82.2912 28.0946 82.4272 25.509 82.0392L21.1847 81.3908C20.6571 81.3116 20.1812 81.0301 19.8578 80.6058L17.2072 77.1279C14.8581 74.0459 13.4966 70.3719 13.27 66.503C13.0435 62.6344 13.9665 58.8265 15.9398 55.4913L16.8555 53.9434C18.856 50.5622 21.8957 48.0336 25.5309 46.6912C24.9557 42.8588 25.7041 38.9864 27.7041 35.6055L29.1536 33.1549C31.154 29.7739 34.1943 27.2451 37.8292 25.9027C37.254 22.0704 38.0024 18.1979 40.0024 14.817L40.9182 13.2689C42.8913 9.93358 45.7842 7.29091 49.284 5.62673C52.7843 3.96257 56.6596 3.38677 60.4919 3.96159L64.8162 4.61002C65.3438 4.68918 65.8197 4.97072 66.1431 5.395L68.7937 8.87288C71.1428 11.9549 72.5043 15.6289 72.7308 19.4978C72.9574 23.3663 72.0343 27.1742 70.0611 30.5095L69.1454 32.0574C67.1449 35.4386 64.1052 37.9672 60.47 39.3096C61.0452 43.142 60.2968 47.0144 58.2968 50.3953L56.8473 52.8458C56.8471 52.8459 56.8471 52.8459 56.8471 52.8459C54.8468 56.2269 51.8066 58.7556 48.1717 60.0981C48.7469 63.9304 47.9985 67.8029 45.9985 71.1838L45.0826 72.7319C43.1096 76.0672 40.2167 78.7099 36.7169 80.3741C35.5783 80.9155 34.3999 81.3418 33.1964 81.6506Z" fill="#AED44D"/>
<path d="M36.717 80.3745C40.2168 78.7103 43.1097 76.0676 45.0827 72.7323L45.9985 71.1842C47.9985 67.8035 48.747 63.9308 48.1718 60.0985C51.8067 58.756 54.8469 56.2273 56.8472 52.8464C56.8472 52.8464 56.8472 52.8463 56.8473 52.8462L58.2968 50.3957C60.2968 47.0149 61.0453 43.1424 60.4701 39.31C64.1053 37.9676 67.145 35.439 69.1455 32.0578L70.0612 30.5099C72.0344 27.1746 72.9575 23.3667 72.7309 19.4982C72.5045 15.6294 71.1429 11.9554 68.7938 8.87328L66.1432 5.3954C65.9817 5.18363 65.7824 5.0074 65.5575 4.87428L20.446 81.1287C20.6711 81.2616 20.9215 81.3516 21.1849 81.391L25.5092 82.0394C28.0948 82.4273 30.7001 82.2915 33.1965 81.6509C34.4 81.342 35.5784 80.9157 36.717 80.3745Z" fill="#80BF3B"/>
<path d="M32.076 73.192C29.8916 73.7526 27.6195 73.4288 25.6787 72.2805C23.7378 71.1324 22.36 69.297 21.7995 67.1125C21.239 64.9282 21.5628 62.6562 22.711 60.7152L24.1606 58.265C25.3087 56.3242 27.1442 54.9465 29.3285 54.386C31.5129 53.8255 33.785 54.1492 35.7257 55.2974C37.6666 56.4455 39.0443 58.281 39.6049 60.4654C40.1654 62.6497 39.8417 64.9218 38.6934 66.8626L38.6935 66.8625L37.2441 69.3128C36.0957 71.2537 34.2603 72.6315 32.076 73.192Z" fill="#D8EA66"/>
<path d="M44.3732 52.3997C42.2791 52.937 39.9803 52.6773 37.9769 51.4921C33.9703 49.1217 32.639 43.9336 35.0092 39.9269L36.4588 37.4766C38.8291 33.4699 44.0174 32.1386 48.0241 34.5089C52.0307 36.8793 53.362 42.0674 50.9918 46.0741L49.5422 48.5244C48.3569 50.5279 46.4673 51.8623 44.3732 52.3997Z" fill="#D8EA66"/>
<path d="M56.6726 31.6149C54.4881 32.1755 52.2161 31.8518 50.2753 30.7035C48.3344 29.5554 46.9567 27.72 46.3962 25.5355C45.8357 23.3512 46.1594 21.0792 47.3076 19.1384L48.7569 16.6882C49.9053 14.7472 51.7407 13.3694 53.925 12.8089C56.1095 12.2484 58.3815 12.5722 60.3223 13.7205C62.2632 14.8686 63.641 16.704 64.2016 18.8884C64.7621 21.0727 64.4383 23.3448 63.29 25.2857L63.2901 25.2858L61.8405 27.736C60.6923 29.6767 58.8569 31.0544 56.6726 31.6149Z" fill="#D8EA66"/>
<path d="M32.0765 73.192C34.2609 72.6315 36.0963 71.2537 37.2446 69.3127L38.6941 66.8625L38.6939 66.8625C39.8422 64.9217 40.1659 62.6497 39.6054 60.4654C39.0449 58.2814 37.6676 56.4462 35.7274 55.2981L25.6804 72.2812C27.6209 73.4289 29.8925 73.7524 32.0765 73.192Z" fill="#AED44D"/>
<path d="M44.3743 52.3996C46.4684 51.8623 48.3581 50.5277 49.5432 48.5244L50.9928 46.0741C53.3629 42.0676 52.0321 36.8803 48.0263 34.5095L37.9792 51.4926C39.9822 52.6774 42.2804 52.9369 44.3743 52.3996Z" fill="#AED44D"/>
<path d="M56.6732 31.6147C58.8575 31.0542 60.693 29.6765 61.8411 27.7358L63.2907 25.2856C63.2906 25.2855 63.2906 25.2855 63.2906 25.2855C64.4389 23.3446 64.7627 21.0725 64.2022 18.8882C63.6418 16.7042 62.2644 14.869 60.3241 13.7209L50.2771 30.704C52.2177 31.8516 54.4891 32.1752 56.6732 31.6147Z" fill="#AED44D"/>
</svg>
