<svg width="16" height="15" viewBox="0 0 16 15" fill="none" xmlns="http://www.w3.org/2000/svg">
<path d="M15.1598 4.2592C15.1517 3.6533 15.0383 3.05342 14.8246 2.4864C14.6393 2.00812 14.3562 1.57376 13.9935 1.21106C13.6308 0.84837 13.1965 0.565321 12.7182 0.38C12.1585 0.169886 11.5671 0.056273 10.9694 0.0440001C10.1998 0.00960005 9.9558 0 8.0022 0C6.0486 0 5.7982 5.36442e-08 5.0342 0.0440001C4.43673 0.0563633 3.84568 0.169974 3.2862 0.38C2.80785 0.565192 2.37342 0.848196 2.01071 1.21091C1.648 1.57362 1.365 2.00805 1.1798 2.4864C0.969269 3.04571 0.855903 3.63689 0.844605 4.2344C0.810205 5.0048 0.799805 5.2488 0.799805 7.2024C0.799805 9.156 0.799805 9.4056 0.844605 10.1704C0.856605 10.7688 0.969405 11.3592 1.1798 11.92C1.36531 12.3982 1.64852 12.8325 2.01135 13.195C2.37419 13.5576 2.80866 13.8405 3.287 14.0256C3.84495 14.2442 4.4361 14.3659 5.03501 14.3856C5.80541 14.42 6.04941 14.4304 8.00301 14.4304C9.9566 14.4304 10.207 14.4304 10.971 14.3856C11.5687 14.3738 12.1601 14.2605 12.7198 14.0504C13.198 13.8649 13.6322 13.5817 13.9949 13.2191C14.3575 12.8564 14.6407 12.4222 14.8262 11.944C15.0366 11.384 15.1494 10.7936 15.1614 10.1944C15.1958 9.4248 15.2062 9.1808 15.2062 7.2264C15.2046 5.2728 15.2046 5.0248 15.1598 4.2592ZM7.99741 10.8968C5.95421 10.8968 4.299 9.2416 4.299 7.1984C4.299 5.1552 5.95421 3.5 7.99741 3.5C8.97828 3.5 9.91898 3.88965 10.6126 4.58324C11.3062 5.27682 11.6958 6.21752 11.6958 7.1984C11.6958 8.17928 11.3062 9.11998 10.6126 9.81356C9.91898 10.5071 8.97828 10.8968 7.99741 10.8968ZM11.843 4.2256C11.7297 4.22571 11.6175 4.20347 11.5129 4.16017C11.4082 4.11687 11.3131 4.05335 11.233 3.97324C11.1529 3.89314 11.0893 3.79803 11.046 3.69335C11.0027 3.58867 10.9805 3.47648 10.9806 3.3632C10.9806 3.25 11.0029 3.13791 11.0462 3.03333C11.0895 2.92874 11.153 2.83372 11.2331 2.75367C11.3131 2.67363 11.4081 2.61014 11.5127 2.56682C11.6173 2.5235 11.7294 2.5012 11.8426 2.5012C11.9558 2.5012 12.0679 2.5235 12.1725 2.56682C12.2771 2.61014 12.3721 2.67363 12.4521 2.75367C12.5322 2.83372 12.5957 2.92874 12.639 3.03333C12.6823 3.13791 12.7046 3.25 12.7046 3.3632C12.7046 3.84 12.319 4.2256 11.843 4.2256Z" fill="#6C757D"/>
</svg>
