<svg width="17" height="17" viewBox="0 0 17 17" fill="none" xmlns="http://www.w3.org/2000/svg">
<path d="M8.5 0.1875C3.90957 0.1875 0.1875 3.90957 0.1875 8.5C0.1875 13.0904 3.90957 16.8125 8.5 16.8125C13.0904 16.8125 16.8125 13.0904 16.8125 8.5C16.8125 3.90957 13.0904 0.1875 8.5 0.1875ZM12.4948 6.45342C12.5004 6.54063 12.5004 6.63154 12.5004 6.72061C12.5004 9.44443 10.426 12.582 6.63525 12.582C5.46631 12.582 4.38271 12.2425 3.46982 11.658C3.63682 11.6766 3.79639 11.684 3.96709 11.684C4.93193 11.684 5.81885 11.3574 6.52578 10.8045C5.62031 10.7859 4.85957 10.1922 4.5998 9.37578C4.91709 9.42217 5.20283 9.42217 5.52939 9.33867C5.06316 9.24395 4.6441 8.99074 4.34341 8.62206C4.04271 8.25338 3.87893 7.79197 3.87988 7.31621V7.29023C4.15264 7.44424 4.47363 7.53887 4.80947 7.55186C4.52715 7.3637 4.29562 7.10879 4.1354 6.80972C3.97519 6.51066 3.89124 6.17668 3.89102 5.8374C3.89102 5.45332 3.99121 5.10264 4.17119 4.79834C4.68869 5.43539 5.33444 5.95642 6.06649 6.32755C6.79853 6.69869 7.60048 6.91163 8.42021 6.95254C8.12891 5.55166 9.17539 4.41797 10.4334 4.41797C11.0271 4.41797 11.5615 4.6666 11.9382 5.06738C12.4039 4.98018 12.8492 4.80576 13.2463 4.57197C13.0923 5.04883 12.7694 5.45146 12.3408 5.70566C12.7564 5.66113 13.1572 5.54609 13.5283 5.38467C13.2481 5.79658 12.8975 6.16211 12.4948 6.45342Z" fill="#6C757D"/>
</svg>
