<svg width="17" height="16" viewBox="0 0 17 16" fill="none" xmlns="http://www.w3.org/2000/svg">
<path d="M9.73525 7.86083L7.86358 6.9875C7.70025 6.91167 7.56608 6.99667 7.56608 7.1775V8.8225C7.56608 9.00333 7.70025 9.08833 7.86358 9.0125L9.73441 8.13917C9.89858 8.0625 9.89858 7.9375 9.73525 7.86083ZM8.39941 0C3.98108 0 0.399414 3.58167 0.399414 8C0.399414 12.4183 3.98108 16 8.39941 16C12.8177 16 16.3994 12.4183 16.3994 8C16.3994 3.58167 12.8177 0 8.39941 0ZM8.39941 11.25C4.30441 11.25 4.23275 10.8808 4.23275 8C4.23275 5.11917 4.30441 4.75 8.39941 4.75C12.4944 4.75 12.5661 5.11917 12.5661 8C12.5661 10.8808 12.4944 11.25 8.39941 11.25Z" fill="#6C757D"/>
</svg>
