<svg width="20" height="20" viewBox="0 0 20 20" fill="none" xmlns="http://www.w3.org/2000/svg">
<path d="M20 6.23364C20 4.78735 20 3.77555 20 3.67958C20 2.60545 19.2114 1.73157 18.2422 1.73157H18.0078V4.11247C18.0078 4.47108 17.7455 4.76181 17.4219 4.76181C17.0983 4.76181 16.8359 4.47108 16.8359 4.11247C16.8359 3.38353 16.8359 1.37521 16.8359 0.649338C16.8359 0.29073 16.5736 0 16.25 0C15.9264 0 15.6641 0.29073 15.6641 0.649338V1.73157H11.7578V4.11247C11.7578 4.47108 11.4955 4.76181 11.1719 4.76181C10.8483 4.76181 10.5859 4.47108 10.5859 4.11247C10.5859 3.38353 10.5859 1.37521 10.5859 0.649338C10.5859 0.29073 10.3236 0 10 0C9.67641 0 9.41406 0.29073 9.41406 0.649338V1.73157H5.50781V4.11247C5.50781 4.47108 5.24547 4.76181 4.92188 4.76181C4.59828 4.76181 4.33594 4.47108 4.33594 4.11247C4.33594 3.38353 4.33594 1.37521 4.33594 0.649338C4.33594 0.29073 4.07359 0 3.75 0C3.42641 0 3.16406 0.29073 3.16406 0.649338V1.73157H1.75781C0.788555 1.73157 0 2.60545 0 3.67958V6.23364H20Z" fill="#6C757D"/>
<path d="M0 7.5332V18.0525C0 19.1266 0.788555 20.0005 1.75781 20.0005H18.2422C19.2114 20.0005 20 19.1266 20 18.0525C20 17.7743 20 11.6971 20 7.5332C19.6354 7.5332 0.201719 7.5332 0 7.5332ZM5.625 16.5374H4.375C4.05141 16.5374 3.78906 16.2466 3.78906 15.888C3.78906 15.5294 4.05141 15.2387 4.375 15.2387H5.625C5.94859 15.2387 6.21094 15.5294 6.21094 15.888C6.21094 16.2466 5.94859 16.5374 5.625 16.5374ZM5.625 13.7668H4.375C4.05141 13.7668 3.78906 13.4761 3.78906 13.1175C3.78906 12.7589 4.05141 12.4682 4.375 12.4682H5.625C5.94859 12.4682 6.21094 12.7589 6.21094 13.1175C6.21094 13.4761 5.94859 13.7668 5.625 13.7668ZM5.625 10.9963H4.375C4.05141 10.9963 3.78906 10.7056 3.78906 10.347C3.78906 9.98839 4.05141 9.69766 4.375 9.69766H5.625C5.94859 9.69766 6.21094 9.98839 6.21094 10.347C6.21094 10.7056 5.94859 10.9963 5.625 10.9963ZM10.625 16.5374H9.375C9.05141 16.5374 8.78906 16.2466 8.78906 15.888C8.78906 15.5294 9.05141 15.2387 9.375 15.2387H10.625C10.9486 15.2387 11.2109 15.5294 11.2109 15.888C11.2109 16.2466 10.9486 16.5374 10.625 16.5374ZM10.625 13.7668H9.375C9.05141 13.7668 8.78906 13.4761 8.78906 13.1175C8.78906 12.7589 9.05141 12.4682 9.375 12.4682H10.625C10.9486 12.4682 11.2109 12.7589 11.2109 13.1175C11.2109 13.4761 10.9486 13.7668 10.625 13.7668ZM10.625 10.9963H9.375C9.05141 10.9963 8.78906 10.7056 8.78906 10.347C8.78906 9.98839 9.05141 9.69766 9.375 9.69766H10.625C10.9486 9.69766 11.2109 9.98839 11.2109 10.347C11.2109 10.7056 10.9486 10.9963 10.625 10.9963ZM15.625 16.5374H14.375C14.0514 16.5374 13.7891 16.2466 13.7891 15.888C13.7891 15.5294 14.0514 15.2387 14.375 15.2387H15.625C15.9486 15.2387 16.2109 15.5294 16.2109 15.888C16.2109 16.2466 15.9486 16.5374 15.625 16.5374ZM15.625 13.7668H14.375C14.0514 13.7668 13.7891 13.4761 13.7891 13.1175C13.7891 12.7589 14.0514 12.4682 14.375 12.4682H15.625C15.9486 12.4682 16.2109 12.7589 16.2109 13.1175C16.2109 13.4761 15.9486 13.7668 15.625 13.7668ZM15.625 10.9963H14.375C14.0514 10.9963 13.7891 10.7056 13.7891 10.347C13.7891 9.98839 14.0514 9.69766 14.375 9.69766H15.625C15.9486 9.69766 16.2109 9.98839 16.2109 10.347C16.2109 10.7056 15.9486 10.9963 15.625 10.9963Z" fill="#6C757D"/>
</svg>
