<svg width="18" height="18" viewBox="0 0 18 18" fill="none" xmlns="http://www.w3.org/2000/svg">
<path fill-rule="evenodd" clip-rule="evenodd" d="M0.279297 8.75298C0.279297 3.95778 4.16015 0.0644531 8.94191 0.0644531C13.7323 0.0644531 17.6045 3.95778 17.6045 8.75298C17.6045 13.5499 13.7323 17.4415 8.94191 17.4415C4.16015 17.4415 0.279297 13.5499 0.279297 8.75298ZM8.18054 5.46007C8.18054 5.0439 8.52705 4.69551 8.94285 4.69551C9.35866 4.69551 9.6965 5.0439 9.6965 5.46007V9.30027C9.6965 9.71818 9.35866 10.0562 8.94285 10.0562C8.52705 10.0562 8.18054 9.71818 8.18054 9.30027V5.46007ZM8.94963 12.8204C8.52516 12.8204 8.18732 12.4729 8.18732 12.056C8.18732 11.639 8.52516 11.3001 8.94097 11.3001C9.36543 11.3001 9.70328 11.639 9.70328 12.056C9.70328 12.4729 9.36543 12.8204 8.94963 12.8204Z" fill="#DC3545"/>
</svg>
