<svg width="15" height="15" viewBox="0 0 15 15" fill="none" xmlns="http://www.w3.org/2000/svg">
<path d="M7.5 0C6.51509 -1.46764e-08 5.53982 0.193993 4.62987 0.570903C3.71993 0.947814 2.89314 1.50026 2.1967 2.1967C1.50026 2.89314 0.947814 3.71993 0.570904 4.62987C0.193993 5.53982 0 6.51509 0 7.5C0 8.48491 0.193993 9.46018 0.570904 10.3701C0.947814 11.2801 1.50026 12.1069 2.1967 12.8033C2.89314 13.4997 3.71993 14.0522 4.62987 14.4291C5.53982 14.806 6.51509 15 7.5 15C9.48912 15 11.3968 14.2098 12.8033 12.8033C14.2098 11.3968 15 9.48912 15 7.5C15 5.51088 14.2098 3.60322 12.8033 2.1967C11.3968 0.790176 9.48912 2.96403e-08 7.5 0ZM8.4375 4.375C8.4375 4.62347 8.33879 4.86177 8.1631 5.03747C7.9874 5.21317 7.7491 5.31187 7.50062 5.31187C7.25215 5.31187 7.01385 5.21317 6.83815 5.03747C6.66246 4.86177 6.56375 4.62347 6.56375 4.375C6.56375 4.12669 6.69942 10.8006 6.875 10.625C7.05058 10.4494 7.25169 3.43875 7.5 3.43875C7.74831 3.43875 7.98645 3.53739 8.16203 3.71297C8.33761 3.88855 8.43625 4.12669 8.43625 4.375H8.4375ZM7.5 6.25C7.66576 6.25 7.82473 6.31585 7.94194 6.43306C8.05915 6.55027 8.125 6.70924 8.125 6.875V10.625C8.125 10.7908 8.05915 10.9497 7.94194 11.0669C7.82473 11.1842 7.66576 11.25 7.5 11.25C7.33424 11.25 7.17527 11.1842 7.05806 11.0669C6.94085 10.9497 6.875 10.7908 6.875 10.625V6.875C6.875 6.70924 6.94085 6.55027 7.05806 6.43306C7.17527 6.31585 7.33424 6.25 7.5 6.25Z" fill="#6C757D"/>
</svg>
