<svg width="20" height="20" viewBox="0 0 20 20" fill="none" xmlns="http://www.w3.org/2000/svg">
<path fill-rule="evenodd" clip-rule="evenodd" d="M0 10C0 4.481 4.48 0 10 0C15.53 0 20 4.481 20 10C20 15.521 15.53 20 10 20C4.48 20 0 15.521 0 10ZM9.12109 6.21005C9.12109 5.73106 9.52109 5.33008 10.0011 5.33008C10.4811 5.33008 10.8711 5.73106 10.8711 6.21005V10.6299C10.8711 11.1109 10.4811 11.4999 10.0011 11.4999C9.52109 11.4999 9.12109 11.1109 9.12109 10.6299V6.21005ZM10.0089 14.6814C9.51891 14.6814 9.12891 14.2815 9.12891 13.8015C9.12891 13.3216 9.51891 12.9316 9.99891 12.9316C10.4889 12.9316 10.8789 13.3216 10.8789 13.8015C10.8789 14.2815 10.4889 14.6814 10.0089 14.6814Z" fill="#DC3545"/>
</svg>
