<svg width="27" height="27" viewBox="0 0 27 27" fill="none" xmlns="http://www.w3.org/2000/svg">
<g filter="url(#filter0_d_9666_17591)">
<circle cx="13.5" cy="11.5" r="9.5" fill="#FF611D"/>
<path d="M17.8182 11.0682H13.9318V7.18182C13.9318 7.06729 13.8863 6.95746 13.8053 6.87648C13.7244 6.79549 13.6145 6.75 13.5 6.75C13.3855 6.75 13.2756 6.79549 13.1947 6.87648C13.1137 6.95746 13.0682 7.06729 13.0682 7.18182V11.0682H9.18182C9.06729 11.0682 8.95746 11.1137 8.87648 11.1947C8.79549 11.2756 8.75 11.3855 8.75 11.5C8.75 11.6145 8.79549 11.7244 8.87648 11.8053C8.95746 11.8863 9.06729 11.9318 9.18182 11.9318H13.0682V15.8182C13.0682 15.9327 13.1137 16.0425 13.1947 16.1235C13.2756 16.2045 13.3855 16.25 13.5 16.25C13.6145 16.25 13.7244 16.2045 13.8053 16.1235C13.8863 16.0425 13.9318 15.9327 13.9318 15.8182V11.9318H17.8182C17.9327 11.9318 18.0425 11.8863 18.1235 11.8053C18.2045 11.7244 18.25 11.6145 18.25 11.5C18.25 11.3855 18.2045 11.2756 18.1235 11.1947C18.0425 11.1137 17.9327 11.0682 17.8182 11.0682Z" fill="white"/>
</g>
<defs>
<filter id="filter0_d_9666_17591" x="0" y="0" width="27" height="27" filterUnits="userSpaceOnUse" color-interpolation-filters="sRGB">
<feFlood flood-opacity="0" result="BackgroundImageFix"/>
<feColorMatrix in="SourceAlpha" type="matrix" values="0 0 0 0 0 0 0 0 0 0 0 0 0 0 0 0 0 0 127 0" result="hardAlpha"/>
<feOffset dy="2"/>
<feGaussianBlur stdDeviation="2"/>
<feColorMatrix type="matrix" values="0 0 0 0 0 0 0 0 0 0 0 0 0 0 0 0 0 0 0.25 0"/>
<feBlend mode="normal" in2="BackgroundImageFix" result="effect1_dropShadow_9666_17591"/>
<feBlend mode="normal" in="SourceGraphic" in2="effect1_dropShadow_9666_17591" result="shape"/>
</filter>
</defs>
</svg>
