<svg width="20" height="20" viewBox="0 0 20 20" fill="none" xmlns="http://www.w3.org/2000/svg">
<path d="M20 6.23364C20 4.78735 20 3.77555 20 3.67958C20 2.60545 19.2114 1.73157 18.2422 1.73157H18.0078V4.11247C18.0078 4.47108 17.7455 4.76181 17.4219 4.76181C17.0983 4.76181 16.8359 4.47108 16.8359 4.11247C16.8359 3.38353 16.8359 1.37521 16.8359 0.649338C16.8359 0.29073 16.5736 0 16.25 0C15.9264 0 15.6641 0.29073 15.6641 0.649338V1.73157H11.7578V4.11247C11.7578 4.47108 11.4955 4.76181 11.1719 4.76181C10.8483 4.76181 10.5859 4.47108 10.5859 4.11247C10.5859 3.38353 10.5859 1.37521 10.5859 0.649338C10.5859 0.29073 10.3236 0 10 0C9.67641 0 9.41406 0.29073 9.41406 0.649338V1.73157H5.50781V4.11247C5.50781 4.47108 5.24547 4.76181 4.92188 4.76181C4.59828 4.76181 4.33594 4.47108 4.33594 4.11247C4.33594 3.38353 4.33594 1.37521 4.33594 0.649338C4.33594 0.29073 4.07359 0 3.75 0C3.42641 0 3.16406 0.29073 3.16406 0.649338V1.73157H1.75781C0.788555 1.73157 0 2.60545 0 3.67958V6.23364H20Z" fill="#6C757D"/>
<path d="M0 7.53125V18.0505C0 19.1247 0.788555 19.9985 1.75781 19.9985H18.2422C19.2114 19.9985 20 19.1247 20 18.0505C20 17.7724 20 11.6952 20 7.53125C19.6354 7.53125 0.201719 7.53125 0 7.53125ZM5.625 16.5354H4.375C4.05141 16.5354 3.78906 16.2447 3.78906 15.8861C3.78906 15.5275 4.05141 15.2367 4.375 15.2367H5.625C5.94859 15.2367 6.21094 15.5275 6.21094 15.8861C6.21094 16.2447 5.94859 16.5354 5.625 16.5354ZM5.625 13.7649H4.375C4.05141 13.7649 3.78906 13.4742 3.78906 13.1156C3.78906 12.7569 4.05141 12.4662 4.375 12.4662H5.625C5.94859 12.4662 6.21094 12.7569 6.21094 13.1156C6.21094 13.4742 5.94859 13.7649 5.625 13.7649ZM5.625 10.9944H4.375C4.05141 10.9944 3.78906 10.7037 3.78906 10.345C3.78906 9.98644 4.05141 9.69571 4.375 9.69571H5.625C5.94859 9.69571 6.21094 9.98644 6.21094 10.345C6.21094 10.7037 5.94859 10.9944 5.625 10.9944ZM10.625 16.5354H9.375C9.05141 16.5354 8.78906 16.2447 8.78906 15.8861C8.78906 15.5275 9.05141 15.2367 9.375 15.2367H10.625C10.9486 15.2367 11.2109 15.5275 11.2109 15.8861C11.2109 16.2447 10.9486 16.5354 10.625 16.5354ZM10.625 13.7649H9.375C9.05141 13.7649 8.78906 13.4742 8.78906 13.1156C8.78906 12.7569 9.05141 12.4662 9.375 12.4662H10.625C10.9486 12.4662 11.2109 12.7569 11.2109 13.1156C11.2109 13.4742 10.9486 13.7649 10.625 13.7649ZM10.625 10.9944H9.375C9.05141 10.9944 8.78906 10.7037 8.78906 10.345C8.78906 9.98644 9.05141 9.69571 9.375 9.69571H10.625C10.9486 9.69571 11.2109 9.98644 11.2109 10.345C11.2109 10.7037 10.9486 10.9944 10.625 10.9944ZM15.625 16.5354H14.375C14.0514 16.5354 13.7891 16.2447 13.7891 15.8861C13.7891 15.5275 14.0514 15.2367 14.375 15.2367H15.625C15.9486 15.2367 16.2109 15.5275 16.2109 15.8861C16.2109 16.2447 15.9486 16.5354 15.625 16.5354ZM15.625 13.7649H14.375C14.0514 13.7649 13.7891 13.4742 13.7891 13.1156C13.7891 12.7569 14.0514 12.4662 14.375 12.4662H15.625C15.9486 12.4662 16.2109 12.7569 16.2109 13.1156C16.2109 13.4742 15.9486 13.7649 15.625 13.7649ZM15.625 10.9944H14.375C14.0514 10.9944 13.7891 10.7037 13.7891 10.345C13.7891 9.98644 14.0514 9.69571 14.375 9.69571H15.625C15.9486 9.69571 16.2109 9.98644 16.2109 10.345C16.2109 10.7037 15.9486 10.9944 15.625 10.9944Z" fill="#6C757D"/>
</svg>
