<svg width="30" height="30" viewBox="0 0 30 30" fill="none" xmlns="http://www.w3.org/2000/svg">
<circle cx="15" cy="15" r="15" fill="#FF611D"/>
<path d="M20.7338 9.27531C20.3788 8.92036 19.8055 8.92036 19.4505 9.27531L15 13.7167L10.5495 9.26621C10.1945 8.91126 9.62116 8.91126 9.26621 9.26621C8.91126 9.62116 8.91126 10.1945 9.26621 10.5495L13.7167 15L9.26621 19.4505C8.91126 19.8055 8.91126 20.3788 9.26621 20.7338C9.62116 21.0887 10.1945 21.0887 10.5495 20.7338L15 16.2833L19.4505 20.7338C19.8055 21.0887 20.3788 21.0887 20.7338 20.7338C21.0887 20.3788 21.0887 19.8055 20.7338 19.4505L16.2833 15L20.7338 10.5495C21.0796 10.2036 21.0796 9.62116 20.7338 9.27531Z" fill="#F5F8FE"/>
</svg>
