<svg width="39" height="26" viewBox="0 0 39 26" fill="none" xmlns="http://www.w3.org/2000/svg">
<path fill-rule="evenodd" clip-rule="evenodd" d="M38.3316 2.07822C38.7069 2.70291 38.8971 3.42131 38.8802 4.14987C38.8802 5.75643 38.8809 7.36335 38.8817 8.97002C38.8834 12.9861 38.8852 17.0007 38.8758 21.004C38.8812 21.5545 38.7761 22.1004 38.5666 22.6095C38.357 23.1186 38.0475 23.5804 37.6562 23.9676C37.2648 24.3548 36.7998 24.6595 36.2885 24.8637C35.7773 25.0678 35.2302 25.1673 34.6799 25.1561H26.8541H4.3205C3.53816 25.192 2.76171 25.0048 2.08173 24.6162C1.40175 24.2277 0.846255 23.6538 0.480048 22.9615C0.148063 22.351 -0.0169605 21.6636 0.00163646 20.9689V4.22887C-0.0141683 3.66877 0.0846475 3.11136 0.29202 2.59082C0.499393 2.07029 0.810947 1.59762 1.20756 1.20182C1.60418 0.806026 2.0775 0.495453 2.59846 0.289161C3.11942 0.0828685 3.67705 -0.0147904 4.23711 0.00217634H19.4585H34.6184C35.3676 -0.0221784 36.1093 0.158262 36.7636 0.524073C37.4178 0.889883 37.96 1.42721 38.3316 2.07822Z" fill="#364E5A"/>
<path d="M23.4066 17.6724H26.7248C26.8665 17.6592 27.0093 17.6757 27.1442 17.7209C27.2791 17.7661 27.4031 17.8389 27.5083 17.9348C27.6135 18.0306 27.6975 18.1473 27.7549 18.2775C27.8124 18.4076 27.8421 18.5483 27.8421 18.6906C27.8421 18.8329 27.8124 18.9736 27.7549 19.1038C27.6975 19.2339 27.6135 19.3506 27.5083 19.4465C27.4031 19.5423 27.2791 19.6152 27.1442 19.6603C27.0093 19.7055 26.8665 19.7221 26.7248 19.7089C24.4864 19.7089 22.2509 19.7089 20.0183 19.7089C19.7482 19.7089 19.4892 19.6016 19.2982 19.4107C19.1073 19.2197 19 18.9607 19 18.6906C19 18.4206 19.1073 18.1616 19.2982 17.9706C19.4892 17.7796 19.7482 17.6724 20.0183 17.6724H23.4066Z" fill="white"/>
<path d="M32.8872 9H20.1588C19.5528 9 19.0615 9.49127 19.0615 10.0973C19.0615 10.7033 19.5528 11.1945 20.1588 11.1945H32.8872C33.4932 11.1945 33.9844 10.7033 33.9844 10.0973C33.9844 9.49127 33.4932 9 32.8872 9Z" fill="white"/>
<path d="M32.8872 13.3906H20.1588C19.5528 13.3906 19.0615 13.8819 19.0615 14.4879C19.0615 15.0939 19.5528 15.5852 20.1588 15.5852H32.8872C33.4932 15.5852 33.9844 15.0939 33.9844 14.4879C33.9844 13.8819 33.4932 13.3906 32.8872 13.3906Z" fill="white"/>
<rect x="4.125" y="7.125" width="11.5921" height="12.9079" stroke="white" stroke-width="0.25"/>
<path d="M5.87385 16.3687C6.27743 15.8564 6.84117 15.4993 7.46995 15.3509L8.91069 17.7162L9.10382 18.0332L9.46319 17.9401L9.56025 17.9149L9.90286 17.8261L9.90348 17.8188L10.0432 18.632L10.738 17.7652C11.3343 17.0213 11.8425 16.2115 12.2527 15.3518C12.7086 15.4412 13.1333 15.655 13.4782 15.9726L13.4848 15.9786L13.4916 15.9845C13.8147 16.2613 14.0708 16.6078 14.2405 16.998C14.4102 17.3881 14.4891 17.8117 14.4713 18.2368L14.4703 18.2592L14.4714 18.2816C14.4847 18.5599 14.3876 18.8322 14.2011 19.0392C14.0147 19.2462 13.754 19.3712 13.4758 19.387L13.4505 19.3884L13.4254 19.3924C13.0518 19.452 12.6744 19.4848 12.2962 19.4904C11.7509 19.4904 11.2096 19.4929 10.6697 19.4953C9.59376 19.5 8.52346 19.5048 7.43837 19.4905C6.93833 19.478 6.44109 19.4116 5.95523 19.2927L5.95525 19.2926L5.94767 19.2909C5.76539 19.2493 5.60157 19.1495 5.4809 19.0067C5.36023 18.8639 5.28925 18.6857 5.27865 18.499L5.27785 18.4849L5.27625 18.4708C5.19065 17.7187 5.40542 16.9633 5.87385 16.3687Z" fill="white" stroke="white"/>
<path d="M10.7255 9.42754C10.9733 9.54323 11.1945 9.70789 11.3761 9.91104C11.2616 9.91864 11.1549 9.95022 11.0644 9.98995L11.0643 9.98992L11.0591 9.99231C10.6861 10.161 10.2815 10.2483 9.87218 10.2483C9.46285 10.2483 9.05823 10.161 8.6853 9.99231L8.68535 9.99219L8.67511 9.98783C8.58844 9.95092 8.48339 9.91957 8.36901 9.91227C8.51264 9.75341 8.68035 9.61647 8.867 9.50693C9.14739 9.3456 9.46248 9.2541 9.78568 9.24016C10.1095 9.22619 10.4318 9.29046 10.7255 9.42754Z" fill="white" stroke="white"/>
<path d="M14.5107 1.89944H14.9007V3.99944H14.5107V1.89944Z" fill="white"/>
<path d="M15.4688 1.89944H16.3867C16.6107 1.89944 16.8098 1.94344 16.9838 2.03144C17.1578 2.11744 17.2928 2.24044 17.3888 2.40044C17.4848 2.55844 17.5328 2.74144 17.5328 2.94944C17.5328 3.15744 17.4848 3.34144 17.3888 3.50144C17.2928 3.65944 17.1578 3.78244 16.9838 3.87044C16.8098 3.95644 16.6107 3.99944 16.3867 3.99944H15.4688V1.89944ZM16.3688 3.66944C16.5228 3.66944 16.6578 3.64044 16.7738 3.58244C16.8917 3.52244 16.9818 3.43844 17.0438 3.33044C17.1077 3.22044 17.1398 3.09344 17.1398 2.94944C17.1398 2.80544 17.1077 2.67944 17.0438 2.57144C16.9818 2.46144 16.8917 2.37744 16.7738 2.31944C16.6578 2.25944 16.5228 2.22944 16.3688 2.22944H15.8588V3.66944H16.3688Z" fill="white"/>
<path d="M19.7484 4.02944C19.5364 4.02944 19.3444 3.98344 19.1724 3.89144C19.0024 3.79744 18.8684 3.66844 18.7704 3.50444C18.6744 3.34044 18.6264 3.15544 18.6264 2.94944C18.6264 2.74344 18.6754 2.55844 18.7734 2.39444C18.8714 2.23044 19.0054 2.10244 19.1754 2.01044C19.3474 1.91644 19.5394 1.86944 19.7514 1.86944C19.9234 1.86944 20.0804 1.89944 20.2224 1.95944C20.3644 2.01944 20.4844 2.10644 20.5824 2.22044L20.3304 2.45744C20.1784 2.29344 19.9914 2.21144 19.7694 2.21144C19.6254 2.21144 19.4964 2.24344 19.3824 2.30744C19.2684 2.36944 19.1794 2.45644 19.1154 2.56844C19.0514 2.68044 19.0194 2.80744 19.0194 2.94944C19.0194 3.09144 19.0514 3.21844 19.1154 3.33044C19.1794 3.44244 19.2684 3.53044 19.3824 3.59444C19.4964 3.65644 19.6254 3.68744 19.7694 3.68744C19.9914 3.68744 20.1784 3.60444 20.3304 3.43844L20.5824 3.67844C20.4844 3.79244 20.3634 3.87944 20.2194 3.93944C20.0774 3.99944 19.9204 4.02944 19.7484 4.02944Z" fill="white"/>
<path d="M21.5174 2.37944C21.7534 2.37944 21.9334 2.43644 22.0574 2.55044C22.1834 2.66244 22.2464 2.83244 22.2464 3.06044V3.99944H21.8924V3.80444C21.8464 3.87444 21.7804 3.92844 21.6944 3.96644C21.6104 4.00244 21.5084 4.02044 21.3884 4.02044C21.2684 4.02044 21.1634 4.00044 21.0734 3.96044C20.9834 3.91844 20.9134 3.86144 20.8634 3.78944C20.8154 3.71544 20.7914 3.63244 20.7914 3.54044C20.7914 3.39644 20.8444 3.28144 20.9504 3.19544C21.0584 3.10744 21.2274 3.06344 21.4574 3.06344H21.8714V3.03944C21.8714 2.92744 21.8374 2.84144 21.7694 2.78144C21.7034 2.72144 21.6044 2.69144 21.4724 2.69144C21.3824 2.69144 21.2934 2.70544 21.2054 2.73344C21.1194 2.76144 21.0464 2.80044 20.9864 2.85044L20.8394 2.57744C20.9234 2.51344 21.0244 2.46444 21.1424 2.43044C21.2604 2.39644 21.3854 2.37944 21.5174 2.37944ZM21.4664 3.74744C21.5604 3.74744 21.6434 3.72644 21.7154 3.68444C21.7894 3.64044 21.8414 3.57844 21.8714 3.49844V3.31244H21.4844C21.2684 3.31244 21.1604 3.38344 21.1604 3.52544C21.1604 3.59344 21.1874 3.64744 21.2414 3.68744C21.2954 3.72744 21.3704 3.74744 21.4664 3.74744Z" fill="white"/>
<path d="M23.0847 2.63144C23.1927 2.46344 23.3827 2.37944 23.6547 2.37944V2.73644C23.6227 2.73044 23.5937 2.72744 23.5677 2.72744C23.4217 2.72744 23.3077 2.77044 23.2257 2.85644C23.1437 2.94044 23.1027 3.06244 23.1027 3.22244V3.99944H22.7277V2.39744H23.0847V2.63144Z" fill="white"/>
<path d="M25.5271 1.77344V3.99944H25.1671V3.79244C25.1051 3.86844 25.0281 3.92544 24.9361 3.96344C24.8461 4.00144 24.7461 4.02044 24.6361 4.02044C24.4821 4.02044 24.3431 3.98644 24.2191 3.91844C24.0971 3.85044 24.0011 3.75444 23.9311 3.63044C23.8611 3.50444 23.8261 3.36044 23.8261 3.19844C23.8261 3.03644 23.8611 2.89344 23.9311 2.76944C24.0011 2.64544 24.0971 2.54944 24.2191 2.48144C24.3431 2.41344 24.4821 2.37944 24.6361 2.37944C24.7421 2.37944 24.8391 2.39744 24.9271 2.43344C25.0151 2.46944 25.0901 2.52344 25.1521 2.59544V1.77344H25.5271ZM24.6811 3.69944C24.7711 3.69944 24.8521 3.67944 24.9241 3.63944C24.9961 3.59744 25.0531 3.53844 25.0951 3.46244C25.1371 3.38644 25.1581 3.29844 25.1581 3.19844C25.1581 3.09844 25.1371 3.01044 25.0951 2.93444C25.0531 2.85844 24.9961 2.80044 24.9241 2.76044C24.8521 2.71844 24.7711 2.69744 24.6811 2.69744C24.5911 2.69744 24.5101 2.71844 24.4381 2.76044C24.3661 2.80044 24.3091 2.85844 24.2671 2.93444C24.2251 3.01044 24.2041 3.09844 24.2041 3.19844C24.2041 3.29844 24.2251 3.38644 24.2671 3.46244C24.3091 3.53844 24.3661 3.59744 24.4381 3.63944C24.5101 3.67944 24.5911 3.69944 24.6811 3.69944Z" fill="white"/>
</svg>
