<svg width="39" height="26" viewBox="0 0 39 26" fill="none" xmlns="http://www.w3.org/2000/svg">
<path fill-rule="evenodd" clip-rule="evenodd" d="M38.3316 2.07822C38.7069 2.70291 38.8971 3.42131 38.8802 4.14987C38.8802 5.75643 38.8809 7.36335 38.8817 8.97002C38.8834 12.9861 38.8852 17.0007 38.8758 21.004C38.8812 21.5545 38.7761 22.1004 38.5666 22.6095C38.357 23.1186 38.0475 23.5804 37.6562 23.9676C37.2648 24.3548 36.7998 24.6595 36.2885 24.8637C35.7773 25.0678 35.2302 25.1673 34.6799 25.1561H26.8541H4.3205C3.53816 25.192 2.76171 25.0048 2.08173 24.6162C1.40175 24.2277 0.846255 23.6538 0.480048 22.9615C0.148063 22.351 -0.0169605 21.6636 0.00163646 20.9689V4.22887C-0.0141683 3.66877 0.0846475 3.11136 0.29202 2.59082C0.499393 2.07029 0.810947 1.59762 1.20756 1.20182C1.60418 0.806026 2.0775 0.495453 2.59846 0.289161C3.11942 0.0828685 3.67705 -0.0147904 4.23711 0.00217634H19.4585H34.6184C35.3676 -0.0221784 36.1093 0.158262 36.7636 0.524073C37.4178 0.889883 37.96 1.42721 38.3316 2.07822Z" fill="#364E5A"/>
<circle cx="10.7702" cy="13.7311" r="6.60612" stroke="white" stroke-width="0.25"/>
<path d="M5.96041 16.9992C6.48542 16.3328 7.22566 15.8748 8.04906 15.6997L9.84934 18.6553L10.0425 18.9723L10.4018 18.8792L10.5203 18.8484L10.863 18.7596L10.8931 18.407C10.9012 18.3114 10.909 18.2171 10.9166 18.1236C10.9229 18.0467 10.9292 17.9705 10.9356 17.8948C10.9567 18.0891 10.9838 18.2827 11.0169 18.4755L11.205 19.5703L11.8998 18.7035C12.6402 17.78 13.2684 16.7725 13.7719 15.7022C14.3804 15.8045 14.949 16.0814 15.4065 16.5026L15.4131 16.5087L15.4199 16.5145C15.8271 16.8633 16.1498 17.3001 16.3636 17.7918C16.5775 18.2835 16.677 18.8173 16.6545 19.353L16.6536 19.3754L16.6546 19.3978C16.6723 19.7667 16.5435 20.1276 16.2964 20.402C16.0492 20.6764 15.7037 20.8421 15.335 20.863L15.3096 20.8644L15.2845 20.8684C14.823 20.9421 14.3567 20.9825 13.8893 20.9895C13.2243 20.9895 12.5636 20.9924 11.9044 20.9954C10.59 21.0012 9.28125 21.007 7.95527 20.9896C7.3366 20.9741 6.7214 20.892 6.12028 20.7449L6.1203 20.7448L6.11272 20.7431C5.86681 20.6869 5.64582 20.5523 5.48303 20.3597C5.32024 20.167 5.22449 19.9266 5.21019 19.6748L5.20939 19.6606L5.20779 19.6466C5.09998 18.6994 5.37046 17.748 5.96041 16.9992ZM10.9925 16.6348C10.9767 16.6712 10.9623 16.7082 10.9495 16.7457C10.946 16.7354 10.9424 16.7251 10.9386 16.7148L10.4697 16.8885L10.9386 16.7148C10.9285 16.6877 10.9175 16.661 10.9055 16.6348H10.9925Z" fill="white" stroke="white"/>
<path d="M23.6586 17.9458H26.9768C27.1184 17.9326 27.2613 17.9492 27.3962 17.9944C27.5311 18.0395 27.6551 18.1124 27.7603 18.2082C27.8654 18.3041 27.9494 18.4208 28.0069 18.5509C28.0644 18.6811 28.0941 18.8218 28.0941 18.9641C28.0941 19.1063 28.0644 19.2471 28.0069 19.3772C27.9494 19.5074 27.8654 19.6241 27.7603 19.7199C27.6551 19.8158 27.5311 19.8886 27.3962 19.9338C27.2613 19.979 27.1184 19.9955 26.9768 19.9823C24.7383 19.9823 22.5028 19.9823 20.2702 19.9823C20.0002 19.9823 19.7412 19.8751 19.5502 19.6841C19.3592 19.4931 19.252 19.2341 19.252 18.9641C19.252 18.694 19.3592 18.435 19.5502 18.244C19.7412 18.0531 20.0002 17.9458 20.2702 17.9458H23.6586Z" fill="#364E5A"/>
<path d="M12.9703 9.25699C12.984 9.27491 12.9975 9.293 13.0107 9.31125C12.8006 9.26144 12.5944 9.30662 12.4285 9.37938L12.4284 9.37935L12.4232 9.38174C11.9535 9.59423 11.444 9.70415 10.9285 9.70415C10.413 9.70415 9.90349 9.59423 9.43386 9.38174L9.43391 9.38163L9.42367 9.37727C9.26354 9.30906 9.05665 9.26148 8.84306 9.3149C9.05814 9.0238 9.33075 8.77774 9.64574 8.59296C10.0035 8.387 10.4057 8.27019 10.8181 8.25239C11.2312 8.23457 11.6425 8.31657 12.0171 8.49145C12.3917 8.66632 12.7187 8.92892 12.9703 9.25699Z" fill="white" stroke="white"/>
<path d="M23.4066 17.6724H26.7248C26.8665 17.6592 27.0093 17.6757 27.1442 17.7209C27.2791 17.7661 27.4031 17.8389 27.5083 17.9348C27.6135 18.0306 27.6975 18.1473 27.7549 18.2775C27.8124 18.4076 27.8421 18.5483 27.8421 18.6906C27.8421 18.8329 27.8124 18.9736 27.7549 19.1038C27.6975 19.2339 27.6135 19.3506 27.5083 19.4465C27.4031 19.5423 27.2791 19.6152 27.1442 19.6603C27.0093 19.7055 26.8665 19.7221 26.7248 19.7089C24.4864 19.7089 22.2509 19.7089 20.0183 19.7089C19.7482 19.7089 19.4892 19.6016 19.2982 19.4107C19.1073 19.2197 19 18.9607 19 18.6906C19 18.4206 19.1073 18.1616 19.2982 17.9706C19.4892 17.7796 19.7482 17.6724 20.0183 17.6724H23.4066Z" fill="white"/>
<path d="M32.8872 9H20.1588C19.5528 9 19.0615 9.49127 19.0615 10.0973C19.0615 10.7033 19.5528 11.1945 20.1588 11.1945H32.8872C33.4932 11.1945 33.9844 10.7033 33.9844 10.0973C33.9844 9.49127 33.4932 9 32.8872 9Z" fill="white"/>
<path d="M32.8872 13.3906H20.1588C19.5528 13.3906 19.0615 13.8819 19.0615 14.4879C19.0615 15.0939 19.5528 15.5852 20.1588 15.5852H32.8872C33.4932 15.5852 33.9844 15.0939 33.9844 14.4879C33.9844 13.8819 33.4932 13.3906 32.8872 13.3906Z" fill="white"/>
<path d="M8 4.316H8.918C9.599 4.316 10.064 3.896 10.064 3.266C10.064 2.636 9.599 2.216 8.918 2.216H8V4.316ZM8.39 3.986V2.546H8.9C9.368 2.546 9.671 2.831 9.671 3.266C9.671 3.701 9.368 3.986 8.9 3.986H8.39Z" fill="white"/>
<path d="M10.7995 2.948V2.714H10.4425V4.316H10.8175V3.539C10.8175 3.212 10.9975 3.044 11.2825 3.044C11.3095 3.044 11.3365 3.047 11.3695 3.053V2.696C11.1025 2.696 10.9075 2.78 10.7995 2.948Z" fill="white"/>
<path d="M11.8766 2.45C12.0176 2.45 12.1166 2.348 12.1166 2.216C12.1166 2.093 12.0146 2 11.8766 2C11.7386 2 11.6366 2.099 11.6366 2.225C11.6366 2.351 11.7386 2.45 11.8766 2.45ZM11.6876 4.316H12.0626V2.714H11.6876V4.316Z" fill="white"/>
<path d="M13.6948 2.714L13.1818 3.902L12.6838 2.714H12.2938L12.9808 4.316H13.3678L14.0548 2.714H13.6948Z" fill="white"/>
<path d="M14.4782 2.45C14.6192 2.45 14.7182 2.348 14.7182 2.216C14.7182 2.093 14.6162 2 14.4782 2C14.3402 2 14.2382 2.099 14.2382 2.225C14.2382 2.351 14.3402 2.45 14.4782 2.45ZM14.2892 4.316H14.6642V2.714H14.2892V4.316Z" fill="white"/>
<path d="M16.0654 2.696C15.8314 2.696 15.6364 2.774 15.5134 2.921V2.714H15.1564V4.316H15.5314V3.506C15.5314 3.185 15.7114 3.023 15.9784 3.023C16.2184 3.023 16.3594 3.161 16.3594 3.446V4.316H16.7344V3.398C16.7344 2.915 16.4494 2.696 16.0654 2.696Z" fill="white"/>
<path d="M18.4577 2.714V2.927C18.3257 2.768 18.1277 2.696 17.9027 2.696C17.4437 2.696 17.0927 3.002 17.0927 3.467C17.0927 3.932 17.4437 4.244 17.9027 4.244C18.1187 4.244 18.3077 4.175 18.4397 4.031V4.115C18.4397 4.439 18.2837 4.601 17.9297 4.601C17.7077 4.601 17.4797 4.526 17.3387 4.409L17.1707 4.691C17.3537 4.841 17.6507 4.919 17.9507 4.919C18.5117 4.919 18.8147 4.655 18.8147 4.073V2.714H18.4577ZM17.9597 3.926C17.6747 3.926 17.4707 3.74 17.4707 3.467C17.4707 3.197 17.6747 3.014 17.9597 3.014C18.2417 3.014 18.4457 3.197 18.4457 3.467C18.4457 3.74 18.2417 3.926 17.9597 3.926Z" fill="white"/>
<path d="M20.1729 4.316H21.6609V3.986H20.5629V2.216H20.1729V4.316Z" fill="white"/>
<path d="M22.1218 2.45C22.2628 2.45 22.3618 2.348 22.3618 2.216C22.3618 2.093 22.2598 2 22.1218 2C21.9838 2 21.8818 2.099 21.8818 2.225C21.8818 2.351 21.9838 2.45 22.1218 2.45ZM21.9328 4.316H22.3078V2.714H21.9328V4.316Z" fill="white"/>
<path d="M23.5349 4.337C23.8469 4.337 24.0959 4.202 24.2189 3.962L23.9309 3.794C23.8349 3.947 23.6909 4.016 23.5319 4.016C23.2559 4.016 23.0459 3.827 23.0459 3.515C23.0459 3.206 23.2559 3.014 23.5319 3.014C23.6909 3.014 23.8349 3.083 23.9309 3.236L24.2189 3.068C24.0959 2.825 23.8469 2.696 23.5349 2.696C23.0279 2.696 22.6679 3.035 22.6679 3.515C22.6679 3.995 23.0279 4.337 23.5349 4.337Z" fill="white"/>
<path d="M26.0257 3.524C26.0257 3.023 25.6837 2.696 25.2157 2.696C24.7387 2.696 24.3877 3.038 24.3877 3.515C24.3877 3.992 24.7357 4.337 25.2727 4.337C25.5487 4.337 25.7737 4.247 25.9177 4.076L25.7167 3.845C25.6027 3.962 25.4617 4.019 25.2817 4.019C25.0027 4.019 24.8077 3.869 24.7627 3.635H26.0197C26.0227 3.599 26.0257 3.554 26.0257 3.524ZM25.2157 2.996C25.4617 2.996 25.6387 3.155 25.6687 3.386H24.7597C24.7957 3.152 24.9727 2.996 25.2157 2.996Z" fill="white"/>
<path d="M27.2949 2.696C27.0609 2.696 26.8659 2.774 26.7429 2.921V2.714H26.3859V4.316H26.7609V3.506C26.7609 3.185 26.9409 3.023 27.2079 3.023C27.4479 3.023 27.5889 3.161 27.5889 3.446V4.316H27.9639V3.398C27.9639 2.915 27.6789 2.696 27.2949 2.696Z" fill="white"/>
<path d="M28.9346 4.337C29.3846 4.337 29.6606 4.142 29.6606 3.842C29.6606 3.215 28.6706 3.503 28.6706 3.179C28.6706 3.074 28.7786 2.999 29.0066 2.999C29.1596 2.999 29.3126 3.029 29.4656 3.119L29.6096 2.834C29.4656 2.747 29.2226 2.696 29.0096 2.696C28.5776 2.696 28.3046 2.894 28.3046 3.197C28.3046 3.836 29.2946 3.548 29.2946 3.854C29.2946 3.965 29.1956 4.031 28.9586 4.031C28.7576 4.031 28.5416 3.965 28.4006 3.872L28.2566 4.157C28.4006 4.259 28.6676 4.337 28.9346 4.337Z" fill="white"/>
<path d="M31.4895 3.524C31.4895 3.023 31.1475 2.696 30.6795 2.696C30.2025 2.696 29.8515 3.038 29.8515 3.515C29.8515 3.992 30.1995 4.337 30.7365 4.337C31.0125 4.337 31.2375 4.247 31.3815 4.076L31.1805 3.845C31.0665 3.962 30.9255 4.019 30.7455 4.019C30.4665 4.019 30.2715 3.869 30.2265 3.635H31.4835C31.4865 3.599 31.4895 3.554 31.4895 3.524ZM30.6795 2.996C30.9255 2.996 31.1025 3.155 31.1325 3.386H30.2235C30.2595 3.152 30.4365 2.996 30.6795 2.996Z" fill="white"/>
</svg>
