<svg width="25" height="30" viewBox="0 0 25 30" fill="none" xmlns="http://www.w3.org/2000/svg">
<path fill-rule="evenodd" clip-rule="evenodd" d="M21.6934 0C24.1271 0 24.9735 0.797151 24.9829 3.26597C25.0079 10.828 25.0055 18.3907 24.9758 25.9543C24.9688 28.3012 23.9841 29.2789 21.6395 29.2789C15.353 29.3008 9.06641 29.3008 2.77987 29.2789C0.70962 29.2718 0.00625216 28.5474 0.00625216 26.4373C-0.00312393 23.7916 -1.43112e-06 21.1387 0.00312393 18.4834C0.00468769 17.1548 0.00625216 15.8256 0.00625216 14.4964V2.81347C0.0203195 0.543938 0.571291 0 2.83379 0H21.6934ZM21.9865 27.701C23.3299 27.8581 23.7215 27.5134 23.7215 26.1418V26.1301C23.737 20.4482 23.7348 14.7676 23.7325 9.08631C23.7317 7.05721 23.7309 5.02803 23.7309 2.99869C23.7324 2.86934 23.7246 2.74006 23.7074 2.61184C23.562 1.53803 23.0814 1.20745 21.9865 1.46535V27.701Z" fill="#364E5A"/>
<path d="M5 19H16.6829C15.9749 19.8065 5.98706 19.9073 5 19Z" fill="white"/>
<path fill-rule="evenodd" clip-rule="evenodd" d="M4.3584 18.75H17.2349L16.8706 19.1649C16.7861 19.2612 16.6598 19.3266 16.5384 19.3751C16.4095 19.4265 16.2516 19.4719 16.0735 19.5125C15.7166 19.5939 15.2532 19.6617 14.7231 19.7165C13.6612 19.8263 12.3068 19.8864 10.947 19.8927C9.58727 19.899 8.21517 19.8516 7.1179 19.745C6.56987 19.6918 6.08466 19.6232 5.70157 19.5376C5.51012 19.4948 5.33918 19.4466 5.19636 19.3918C5.05761 19.3386 4.92649 19.2722 4.83058 19.1841L4.3584 18.75ZM7.19345 19.25C8.26422 19.3526 9.60697 19.3989 10.9447 19.3927C12.1589 19.3871 13.3634 19.3382 14.3509 19.25H7.19345Z" fill="white"/>
<path d="M7.3418 22.0625H14.3942C13.6135 22.862 8.29369 22.9347 7.3418 22.0625Z" fill="white"/>
<path fill-rule="evenodd" clip-rule="evenodd" d="M6.69922 21.8125H14.9881L14.5734 22.2372C14.4343 22.3797 14.2206 22.4837 13.9881 22.5641C13.7486 22.6469 13.4586 22.7148 13.1389 22.7689C12.4989 22.8774 11.717 22.9348 10.934 22.9394C10.1511 22.944 9.35815 22.8958 8.6963 22.7897C8.36555 22.7367 8.06221 22.6684 7.80688 22.5827C7.55631 22.4986 7.33028 22.3907 7.17324 22.2468L6.69922 21.8125ZM8.88263 22.3125C9.48914 22.4018 10.2104 22.4436 10.9311 22.4394C11.5986 22.4355 12.2588 22.3921 12.8198 22.3125H8.88263Z" fill="white"/>
<path d="M15.2279 5.77213C14.6737 5.21242 14.0143 4.76774 13.2877 4.46362C12.5611 4.15951 11.7816 4.00196 10.9939 4.00002C10.2062 3.99808 9.42594 4.15179 8.69785 4.45233C7.96976 4.75286 7.30823 5.19429 6.75126 5.75126C6.19429 6.30823 5.75286 6.96976 5.45233 7.69785C5.15179 8.42594 4.99808 9.20623 5.00002 9.9939C5.00196 10.7816 5.15951 11.5611 5.46362 12.2877C5.76774 13.0143 6.21242 13.6737 6.77213 14.2279C7.32635 14.7876 7.9857 15.2323 8.7123 15.5364C9.4389 15.8405 10.2184 15.998 11.0061 16C11.7938 16.0019 12.5741 15.8482 13.3021 15.5477C14.0302 15.2471 14.6918 14.8057 15.2487 14.2487C15.8057 13.6918 16.2471 13.0302 16.5477 12.3021C16.8482 11.5741 17.0019 10.7938 17 10.0061C16.998 9.21842 16.8405 8.4389 16.5364 7.7123C16.2323 6.9857 15.7876 6.32635 15.2279 5.77213ZM5.87498 10C5.87479 9.54641 5.93493 9.09481 6.05382 8.65708C6.24975 9.07883 6.53429 9.44319 6.72782 9.87588C6.97793 10.4322 7.64952 10.2779 7.94608 10.7653C8.20927 11.198 7.92819 11.7452 8.12519 12.1979C8.26826 12.5265 8.60566 12.5983 8.83842 12.8385C9.07625 13.0809 9.07118 13.4129 9.10748 13.729C9.14844 14.1003 9.21489 14.4684 9.30634 14.8306C9.30634 14.8333 9.30634 14.8362 9.30848 14.8389C7.31105 14.1374 5.87498 12.2334 5.87498 10ZM11 15.125C10.7138 15.1249 10.4281 15.101 10.1458 15.0535C10.1488 14.9811 10.1501 14.9136 10.1573 14.8666C10.2222 14.4422 10.4346 14.0271 10.7213 13.7095C11.0045 13.3961 11.3927 13.1842 11.6318 12.8286C11.8662 12.4816 11.9364 12.0145 11.8398 11.609C11.6975 11.0101 10.8836 10.8101 10.4448 10.4853C10.1925 10.2984 9.96806 10.0096 9.6368 9.98612C9.48412 9.97544 9.35626 10.0083 9.20491 9.9693C9.06611 9.93327 8.9572 9.85853 8.80932 9.87801C8.53305 9.91432 8.35875 10.2095 8.06192 10.1695C7.78031 10.1319 7.49016 9.80221 7.4261 9.53394C7.34389 9.18907 7.61669 9.07723 7.90897 9.04653C8.03096 9.03372 8.16789 9.01984 8.28507 9.06468C8.43936 9.12181 8.51223 9.27289 8.65077 9.34923C8.91049 9.49177 8.96307 9.26408 8.9233 9.03345C8.86377 8.68805 8.79437 8.54738 9.10241 8.30954C9.31595 8.14565 9.49853 8.02713 9.46436 7.73271C9.44408 7.55974 9.34932 7.48153 9.43767 7.30937C9.50467 7.1783 9.68858 7.06005 9.80843 6.98184C10.1178 6.78005 11.1337 6.795 10.7187 6.23018C10.5967 6.06441 10.3717 5.76812 10.1581 5.72755C9.89118 5.6771 9.77267 5.97499 9.58662 6.10632C9.39443 6.24219 9.02019 6.39647 8.82774 6.1864C8.56882 5.90372 8.99937 5.8111 9.09467 5.61357C9.13871 5.52148 9.09467 5.39362 9.02046 5.27324C9.11673 5.23267 9.21461 5.19503 9.31408 5.16033C9.37642 5.20637 9.45038 5.23411 9.52762 5.24041C9.7062 5.25215 9.87463 5.15552 10.0305 5.27724C10.2035 5.41071 10.3281 5.5794 10.5577 5.62105C10.7798 5.66135 11.0149 5.53189 11.0699 5.30447C11.1033 5.1662 11.0699 5.02019 11.0379 4.87738C12.0362 4.88313 13.0108 5.1821 13.8406 5.73716C13.7873 5.71687 13.7235 5.71927 13.6447 5.75584C13.4827 5.83112 13.2531 6.02277 13.2342 6.21282C13.2126 6.4285 13.5307 6.45893 13.6818 6.45893C13.9087 6.45893 14.1385 6.3575 14.0654 6.09538C14.0336 5.98167 13.9904 5.86342 13.9207 5.79188C14.0882 5.90809 14.2486 6.03412 14.4012 6.16932C14.3988 6.17172 14.3964 6.17385 14.394 6.17652C14.2402 6.33668 14.0617 6.46347 13.9565 6.65833C13.8823 6.79553 13.7987 6.86066 13.6485 6.89616C13.5657 6.91565 13.4712 6.92285 13.4018 6.97837C13.2086 7.13052 13.3185 7.49621 13.5016 7.60592C13.7331 7.74446 14.0763 7.67933 14.2509 7.48153C14.3873 7.32672 14.4677 7.05792 14.713 7.05819C14.821 7.05796 14.9247 7.10025 15.0018 7.1759C15.1032 7.28107 15.0832 7.3793 15.1048 7.51063C15.143 7.74392 15.3488 7.6174 15.474 7.49969C15.5652 7.66209 15.6476 7.82934 15.7206 8.00071C15.5829 8.19904 15.4734 8.41525 15.1422 8.18409C14.9439 8.04555 14.8219 7.84456 14.5728 7.78209C14.3553 7.72871 14.1324 7.78423 13.9175 7.82133C13.6733 7.86377 13.3837 7.88246 13.1984 8.06744C13.0193 8.24575 12.9246 8.48438 12.734 8.66349C12.3653 9.0105 12.2097 9.38927 12.4484 9.87988C12.6779 10.3515 13.1581 10.6075 13.6762 10.5739C14.1853 10.54 14.714 10.2448 14.6994 10.9844C14.694 11.2463 14.7487 11.4275 14.8291 11.6707C14.9036 11.8949 14.8985 12.1122 14.9156 12.3436C14.9318 12.6146 14.9742 12.8834 15.0421 13.1463C14.5636 13.7623 13.9507 14.2608 13.2502 14.6037C12.5496 14.9467 11.78 15.125 11 15.125Z" fill="white"/>
</svg>
