<svg width="39" height="25" viewBox="0 0 39 25" fill="none" xmlns="http://www.w3.org/2000/svg">
<path fill-rule="evenodd" clip-rule="evenodd" d="M34.3592 0.00348654H19.3072C14.2695 -0.00232393 9.23182 -0.000872045 4.19414 0.00784367C3.63952 -0.00716245 3.08766 0.0910156 2.57225 0.296385C2.05684 0.501754 1.58868 0.810006 1.19636 1.20232C0.804045 1.59464 0.495793 2.0628 0.290424 2.57821C0.0850548 3.09362 -0.0131233 3.64548 0.00188286 4.2001V20.821C-0.0196784 21.5166 0.144266 22.2055 0.476889 22.8169C0.8409 23.5039 1.39252 24.0734 2.06757 24.4591C2.74262 24.8449 3.51333 25.031 4.29001 24.9958H26.6545H34.4246C34.9711 25.0069 35.5142 24.9082 36.0218 24.7055C36.5294 24.5028 36.9912 24.2003 37.3797 23.8158C37.7682 23.4313 38.0756 22.9728 38.2836 22.4673C38.4916 21.9619 38.5961 21.4198 38.5907 20.8733V4.12166C38.6075 3.39828 38.4186 2.685 38.046 2.06475C37.6774 1.41806 37.1392 0.884286 36.4895 0.52103C35.8398 0.157774 35.1032 -0.0211761 34.3592 0.00348654Z" fill="#364E5A"/>
<path d="M23.4476 16.809H26.7421C26.8828 16.796 27.0246 16.8124 27.1585 16.8573C27.2925 16.9021 27.4156 16.9744 27.52 17.0696C27.6244 17.1648 27.7078 17.2806 27.7649 17.4099C27.822 17.5391 27.8514 17.6788 27.8514 17.8201C27.8514 17.9613 27.822 18.101 27.7649 18.2303C27.7078 18.3595 27.6244 18.4754 27.52 18.5705C27.4156 18.6657 27.2925 18.738 27.1585 18.7829C27.0246 18.8277 26.8828 18.8442 26.7421 18.8311C24.5196 18.8311 22.3 18.8311 20.0833 18.8311C19.8151 18.8311 19.558 18.7246 19.3684 18.535C19.1788 18.3454 19.0723 18.0882 19.0723 17.8201C19.0723 17.5519 19.1788 17.2948 19.3684 17.1052C19.558 16.9156 19.8151 16.809 20.0833 16.809H23.4476Z" fill="white"/>
<path d="M32.8601 8.19922H20.2223C19.6206 8.19922 19.1328 8.68699 19.1328 9.28868C19.1328 9.89038 19.6206 10.3781 20.2223 10.3781H32.8601C33.4618 10.3781 33.9495 9.89038 33.9495 9.28868C33.9495 8.68699 33.4618 8.19922 32.8601 8.19922Z" fill="white"/>
<path d="M32.8601 12.5547H20.2223C19.6206 12.5547 19.1328 13.0425 19.1328 13.6442C19.1328 14.2458 19.6206 14.7336 20.2223 14.7336H32.8601C33.4618 14.7336 33.9495 14.2458 33.9495 13.6442C33.9495 13.0425 33.4618 12.5547 32.8601 12.5547Z" fill="white"/>
<path fill-rule="evenodd" clip-rule="evenodd" d="M10.5258 8.81634L15.7458 14.0364V17.6966C15.7458 18.0427 15.6083 18.3746 15.3636 18.6194C15.1189 18.8641 14.7869 19.0016 14.4408 19.0016H6.61069C6.26457 19.0016 5.93264 18.8641 5.6879 18.6194C5.44316 18.3746 5.30566 18.0427 5.30566 17.6966V14.0364L10.5258 8.81634ZM14.8758 8.12641V11.1715L13.1358 9.43144V8.12641C13.1358 8.01104 13.1816 7.9004 13.2632 7.81882C13.3448 7.73724 13.4554 7.69141 13.5708 7.69141H14.4408C14.5562 7.69141 14.6668 7.73724 14.7484 7.81882C14.83 7.9004 14.8758 8.01104 14.8758 8.12641Z" fill="white"/>
<path fill-rule="evenodd" clip-rule="evenodd" d="M9.91056 7.25473C10.0737 7.09163 10.295 7 10.5257 7C10.7564 7 10.9776 7.09163 11.1408 7.25473L16.9237 13.0368C17.0054 13.1185 17.0513 13.2293 17.0513 13.3448C17.0513 13.4603 17.0054 13.5711 16.9237 13.6528C16.8421 13.7345 16.7313 13.7804 16.6158 13.7804C16.5002 13.7804 16.3895 13.7345 16.3078 13.6528L10.5257 7.86983L4.74354 13.6528C4.66186 13.7345 4.55107 13.7804 4.43556 13.7804C4.32004 13.7804 4.20925 13.7345 4.12757 13.6528C4.04589 13.5711 4 13.4603 4 13.3448C4 13.2293 4.04589 13.1185 4.12757 13.0368L9.91056 7.25473Z" fill="white"/>
<path d="M14.3708 1.89959C14.5528 1.89959 14.7108 1.92959 14.8448 1.98959C14.9808 2.04959 15.0848 2.13559 15.1568 2.24759C15.2288 2.35959 15.2648 2.49259 15.2648 2.64659C15.2648 2.79859 15.2288 2.93159 15.1568 3.04559C15.0848 3.15759 14.9808 3.24359 14.8448 3.30359C14.7108 3.36359 14.5528 3.39359 14.3708 3.39359H13.8968V3.99959H13.5068V1.89959H14.3708ZM14.3528 3.06359C14.5228 3.06359 14.6518 3.02759 14.7398 2.95559C14.8278 2.88359 14.8718 2.78059 14.8718 2.64659C14.8718 2.51259 14.8278 2.40959 14.7398 2.33759C14.6518 2.26559 14.5228 2.22959 14.3528 2.22959H13.8968V3.06359H14.3528Z" fill="white"/>
<path d="M17.1184 3.20759C17.1184 3.23359 17.1164 3.27059 17.1124 3.31859H15.8554C15.8774 3.43659 15.9344 3.53059 16.0264 3.60059C16.1204 3.66859 16.2364 3.70259 16.3744 3.70259C16.5504 3.70259 16.6954 3.64459 16.8094 3.52859L17.0104 3.75959C16.9384 3.84559 16.8474 3.91059 16.7374 3.95459C16.6274 3.99859 16.5034 4.02059 16.3654 4.02059C16.1894 4.02059 16.0344 3.98559 15.9004 3.91559C15.7664 3.84559 15.6624 3.74859 15.5884 3.62459C15.5164 3.49859 15.4804 3.35659 15.4804 3.19859C15.4804 3.04259 15.5154 2.90259 15.5854 2.77859C15.6574 2.65259 15.7564 2.55459 15.8824 2.48459C16.0084 2.41459 16.1504 2.37959 16.3084 2.37959C16.4644 2.37959 16.6034 2.41459 16.7254 2.48459C16.8494 2.55259 16.9454 2.64959 17.0134 2.77559C17.0834 2.89959 17.1184 3.04359 17.1184 3.20759ZM16.3084 2.67959C16.1884 2.67959 16.0864 2.71559 16.0024 2.78759C15.9204 2.85759 15.8704 2.95159 15.8524 3.06959H16.7614C16.7454 2.95359 16.6964 2.85959 16.6144 2.78759C16.5324 2.71559 16.4304 2.67959 16.3084 2.67959Z" fill="white"/>
<path d="M17.8356 2.63159C17.9436 2.46359 18.1336 2.37959 18.4056 2.37959V2.73659C18.3736 2.73059 18.3446 2.72759 18.3186 2.72759C18.1726 2.72759 18.0586 2.77059 17.9766 2.85659C17.8946 2.94059 17.8536 3.06259 17.8536 3.22259V3.99959H17.4786V2.39759H17.8356V2.63159Z" fill="white"/>
<path d="M20.7458 2.37959C20.9478 2.37959 21.1078 2.43859 21.2258 2.55659C21.3438 2.67259 21.4028 2.84759 21.4028 3.08159V3.99959H21.0278V3.12959C21.0278 2.98959 20.9968 2.88459 20.9348 2.81459C20.8728 2.74259 20.7838 2.70659 20.6678 2.70659C20.5418 2.70659 20.4408 2.74859 20.3648 2.83259C20.2888 2.91459 20.2508 3.03259 20.2508 3.18659V3.99959H19.8758V3.12959C19.8758 2.98959 19.8448 2.88459 19.7828 2.81459C19.7208 2.74259 19.6318 2.70659 19.5158 2.70659C19.3878 2.70659 19.2858 2.74759 19.2098 2.82959C19.1358 2.91159 19.0988 3.03059 19.0988 3.18659V3.99959H18.7238V2.39759H19.0808V2.60159C19.1408 2.52959 19.2158 2.47459 19.3058 2.43659C19.3958 2.39859 19.4958 2.37959 19.6058 2.37959C19.7258 2.37959 19.8318 2.40259 19.9238 2.44859C20.0178 2.49259 20.0918 2.55859 20.1458 2.64659C20.2118 2.56259 20.2968 2.49759 20.4008 2.45159C20.5048 2.40359 20.6198 2.37959 20.7458 2.37959Z" fill="white"/>
<path d="M21.882 2.39759H22.257V3.99959H21.882V2.39759ZM22.071 2.13359C22.003 2.13359 21.946 2.11259 21.9 2.07059C21.854 2.02659 21.831 1.97259 21.831 1.90859C21.831 1.84459 21.854 1.79159 21.9 1.74959C21.946 1.70559 22.003 1.68359 22.071 1.68359C22.139 1.68359 22.196 1.70459 22.242 1.74659C22.288 1.78659 22.311 1.83759 22.311 1.89959C22.311 1.96559 22.288 2.02159 22.242 2.06759C22.198 2.11159 22.141 2.13359 22.071 2.13359Z" fill="white"/>
<path d="M23.7122 3.91259C23.6682 3.94859 23.6142 3.97559 23.5502 3.99359C23.4882 4.01159 23.4222 4.02059 23.3522 4.02059C23.1762 4.02059 23.0402 3.97459 22.9442 3.88259C22.8482 3.79059 22.8002 3.65659 22.8002 3.48059V2.70959H22.5362V2.40959H22.8002V2.04359H23.1752V2.40959H23.6042V2.70959H23.1752V3.47159C23.1752 3.54959 23.1942 3.60959 23.2322 3.65159C23.2702 3.69159 23.3252 3.71159 23.3972 3.71159C23.4812 3.71159 23.5512 3.68959 23.6072 3.64559L23.7122 3.91259Z" fill="white"/>
</svg>
