<svg width="14" height="13" viewBox="0 0 14 13" fill="none" xmlns="http://www.w3.org/2000/svg">
<path d="M13.5475 4.57767L9.35058 3.98457L7.47444 0.28611C7.4232 0.184848 7.33889 0.102875 7.23476 0.0530477C6.97358 -0.0723237 6.65621 0.0321525 6.52563 0.28611L4.64949 3.98457L0.452561 4.57767C0.336852 4.59374 0.231061 4.64679 0.150065 4.72715C0.0521452 4.82502 -0.00181317 4.95668 4.65248e-05 5.09321C0.00190622 5.22974 0.0594318 5.35996 0.159983 5.45527L3.19652 8.33399L2.47912 12.3989C2.4623 12.4935 2.47306 12.5907 2.51018 12.6796C2.54731 12.7686 2.60931 12.8456 2.68916 12.902C2.76901 12.9584 2.86352 12.9919 2.96196 12.9987C3.0604 13.0055 3.15883 12.9854 3.2461 12.9406L7.00003 11.0214L10.754 12.9406C10.8564 12.9936 10.9755 13.0113 11.0895 12.992C11.3771 12.9438 11.5705 12.6786 11.5209 12.3989L10.8035 8.33399L13.8401 5.45527C13.9227 5.37651 13.9773 5.27364 13.9938 5.16113C14.0384 4.87985 13.8368 4.61946 13.5475 4.57767Z" fill="#C4C4C4"/>
</svg>
